<svg width="1080" height="1080" viewBox="0 0 1080 1080" fill="none" xmlns="http://www.w3.org/2000/svg">
<path d="M487.929 139.73C490.598 142.785 491.158 147.149 489.346 150.778L489.275 150.919C483.558 162.369 477.704 174.093 472.061 184.166C466.686 193.761 461.013 202.771 455.319 208.669C451.294 214.028 447.241 219.199 443.51 223.96C441.953 225.947 440.451 227.863 439.031 229.691C436.155 233.394 433.634 236.711 431.529 239.659C482.193 295.976 526.384 371.207 557.543 441.117C573.69 477.344 586.433 512.356 594.792 542.83C603.078 573.041 607.308 599.682 605.717 618.798C605.362 623.073 602.318 626.646 598.153 627.676C593.987 628.706 589.629 626.964 587.322 623.347C565.926 589.812 508.575 527.496 450.403 471.653C421.453 443.862 392.596 417.958 368.314 398.341C356.165 388.525 345.281 380.38 336.18 374.381C330.588 370.696 325.98 368.033 322.363 366.273C290.664 409.264 265.898 459.648 250.826 507.851C235.045 558.325 230.271 605.175 238.148 638.234C262.653 707.804 307.88 777.629 358.791 830.497C361.987 833.815 362.502 838.886 360.04 842.779C322.162 902.667 277.978 934.702 210.972 960.356C210.914 960.378 210.856 960.4 210.797 960.421C176.291 972.898 152.291 982.823 135.842 991.406C119.155 1000.11 111.555 1006.79 108.218 1012.14C108.182 1012.2 108.146 1012.25 108.109 1012.31C108.092 1012.34 108.075 1012.36 108.058 1012.39C106.957 1014.04 105.143 1018.17 102.974 1024.68C100.916 1030.87 98.8221 1038.31 96.9401 1045.84C95.0606 1053.37 93.4242 1060.87 92.2648 1067.14C92.0793 1068.14 91.9094 1069.1 91.7547 1070H92.1521H92.8302H93.5265H94.2409H94.9734H95.7238H96.4921H97.2781H98.0819H98.9032H99.7421H100.598H101.472H102.363H103.271H104.197H105.139H106.098H107.075H108.068H109.077H110.104H111.147H112.206H113.282H114.374H115.482H116.606H117.747H118.903H120.075H121.263H122.467H123.687H124.922H126.172H127.438H128.719H130.015H131.327H132.653H133.995H135.351H136.723H138.109H139.509H140.925H142.354H143.798H145.257H146.729H148.216H149.717H151.232H152.761H154.303H155.86H157.43H159.013H160.61H162.221H163.845H165.482H167.132H168.795H170.472H172.161H173.863H175.578H177.305H179.046H180.798H182.563H184.34H186.13H187.932H189.746H191.572H193.409H195.259H197.121H198.994H200.878H202.775H204.682H206.601H208.532H210.473H212.426H214.389H216.364H218.349H220.345H222.352H224.37H226.398H228.436H230.485H232.544H234.614H236.693H238.782H240.882H242.991H245.11H247.239H249.377H251.525H253.683H255.849H258.025H260.211H262.405H264.608H266.821H269.042H271.272H273.511H275.758H278.014H280.279H282.551H284.833H287.122H289.419H291.725H294.038H296.36H298.689H301.026H303.37H305.723H308.082H310.449H312.823H315.205H317.594H319.989H322.392H324.802H327.218H329.641H332.071H334.508H336.951H339.4H341.856H344.317H346.786H349.26H351.74H354.226H356.718H359.215H361.719H364.227H366.742H369.262H371.787H374.317H376.852H379.393H381.939H384.489H387.045H389.605H392.17H394.739H397.313H399.891H402.474H405.061H407.652H410.247H412.847H415.45H418.057H420.668H423.282H425.9H428.522H431.147H433.775H436.407H439.042H441.68H444.321H446.965H449.612H452.262H454.914H457.569H460.226H462.886H465.548H468.213H470.88H473.549H476.22H478.893H481.567H484.244H486.922H489.602H492.283H494.966H497.651H500.336H503.023H505.711H508.4H511.09H513.781H516.472H519.165H521.858H524.551H527.245H529.94H532.634H535.329H538.024H540.719H543.415H546.11H548.804H551.499H554.193H556.887H559.58H562.273H564.965H567.656H570.346H573.036H575.724H578.411H581.098H583.783H586.466H589.148H591.829H594.508H597.185H599.861H602.535H605.206H607.876H610.544H613.21H615.873H618.534H621.193H623.849H626.502H629.153H631.801H634.447H637.089H639.729H642.365H644.998H647.628H650.255H652.878H655.498H658.114H660.727H663.335H665.94H668.541H671.139H673.732H676.321H678.905H681.486H684.062H686.633H689.2H691.763H694.32H696.873H699.421H701.964H704.502H707.035H709.562H712.084H714.601H717.113H719.619H722.119H724.613H727.102H729.585H732.062H734.533H736.998H739.456H741.908H744.354H746.794H749.227H751.653H754.073H756.485H758.891H761.29H763.682H766.067H768.445H770.815H773.178H775.534H777.882H780.223H782.555H784.881H787.198H789.507H791.808H794.101H796.386H798.663H800.931H803.191H805.443H807.685H809.92H812.145H814.361H816.569H818.768H820.957H823.138H825.309H827.47H829.623H831.766H833.899H836.022H838.136H840.24H842.334H844.418H846.492H848.556H850.61H852.653H854.686H856.708H858.72H860.721H862.712H864.692H866.66H868.618H870.565H872.5H874.424H876.337H878.239H880.129H882.008H883.875H885.73H887.573H889.405H891.224H893.031H894.827H896.61H898.381H900.139H901.885H903.618H905.339H907.047H908.742H910.425H912.094H913.75H915.394H917.024H918.64H920.244H921.834H923.41H924.973H926.522H928.057H929.578H931.086H932.579H934.058H935.523H936.974H938.411H939.833H941.24H942.633H944.011H945.374H946.723H948.057H949.375H950.679H951.967H953.24H954.497H955.74H956.966H958.177H959.373H960.552H961.716H962.864H963.996H965.112H966.211H967.295H968.362H969.412H970.446H971.464H972.464H973.449H974.416H975.366H976.299H977.216H978.115H978.996H979.861H980.708H981.537H982.349H983.144H983.92H984.679H985.42H986.143H986.847H987.534H988.202H988.242C988.087 1069.1 987.918 1068.14 987.732 1067.14C986.573 1060.87 984.936 1053.37 983.057 1045.84C981.175 1038.31 979.081 1030.87 977.023 1024.68C974.854 1018.17 973.04 1014.04 971.939 1012.39C971.91 1012.34 971.882 1012.3 971.854 1012.26C971.829 1012.22 971.804 1012.18 971.779 1012.14C968.442 1006.79 960.842 1000.11 944.154 991.406C927.705 982.823 903.705 972.898 869.199 960.421C869.17 960.411 869.142 960.4 869.113 960.39C799.76 934.595 755.755 898.533 716.157 837.075C713.705 833.268 714.116 828.289 717.159 824.937C755.532 782.67 795.153 737.271 821.508 694.041C876.111 580.526 839.273 452.278 686.219 274.113C662.091 246.087 640.38 219.515 624.449 199.454C616.484 189.424 609.947 181 605.264 174.819C602.926 171.733 601.025 169.172 599.63 167.234C598.494 165.657 597.103 163.701 596.418 162.328C596.207 161.905 596.026 161.468 595.877 161.02L595.876 161.018M487.929 139.73L601.886 150.571C603.679 152.796 605.365 157.861 605.365 157.861L595.876 161.018M487.929 139.73C475.821 125.874 467.328 106.968 467.328 86.6311C467.328 44.0131 501.315 10 543.843 10C586.372 10 620.358 44.013 620.358 86.6311C620.358 108.597 610.202 129.045 594.871 142.69C592.816 144.52 591.605 147.116 591.524 149.866C591.449 152.442 592.37 154.94 594.084 156.846M487.929 139.73L594.084 156.846M595.876 161.018L595.875 161.015C595.868 160.994 595.854 160.954 595.835 160.898C595.795 160.784 595.732 160.606 595.649 160.38C595.48 159.922 595.244 159.308 594.969 158.666C594.686 158.004 594.415 157.436 594.187 157.026C594.146 156.952 594.111 156.892 594.084 156.846M595.876 161.018L594.084 156.846" fill="#444444" stroke="black" stroke-width="20" stroke-linecap="round" stroke-linejoin="round"/>
</svg>
