<svg width="1082" height="1061" viewBox="0 0 1082 1061" fill="none" xmlns="http://www.w3.org/2000/svg">
<path d="M308.245 1057.8C288.734 1048.17 285.836 991.329 302.377 943.169C316.527 902.011 332.851 880.261 395.247 819.433C451.461 764.627 466.432 746.582 483.915 712.595C504.802 672.035 513.012 639.935 515.21 590.58C515.982 573.156 516.031 558.911 515.33 558.911C514.63 558.911 502.774 565.722 489.01 574.064C475.246 582.381 444.265 599.112 420.142 611.23C328.625 657.216 314.257 670.72 273.424 749.116C265.842 763.671 254.783 781.717 248.819 789.222C229.791 813.242 199.172 831.383 177.705 831.383C168.544 831.383 151.757 825.145 142.863 818.429C138.717 815.298 133.364 808.438 130.966 803.18C133.075 774 154.186 770.182 115.401 791.97C46.0843 781.86 -3.07197 722.179 2.37561 654.73C5.87936 611.374 25.5906 568.017 75.1598 494.664C109.084 444.472 122.872 420.117 132.331 393.706C137.232 380.011 137.802 373.916 137.894 334.24L137.998 290.023L145.819 273.675C152.336 260.051 159.194 251.877 186.93 224.678C205.233 206.728 223.343 187.416 227.207 181.751L234.21 171.474L228.897 105.268C221.605 14.0085 221.581 14.2452 236.576 8.00697C246.79 3.75735 246.283 3.52072 323.482 49.4945C359.099 70.7043 389.065 88.0589 390.079 88.0589C391.093 88.0589 410.17 68.7229 432.482 45.0895C466.094 9.47927 474.473 1.85243 481.404 0.566553C496.157 -2.17251 499.635 2.71525 529.65 68.0131L557.177 127.871L572.148 125.698C593.664 122.579 646.039 125.33 673.228 131.004C722.633 141.308 771.676 162.329 811.374 190.212C837.887 208.831 880.579 251.566 900.332 279.268C943.048 339.14 974.005 406.135 1002.38 500.162C1051.08 661.59 1081.1 850.361 1081.89 1000.39C1082.14 1047.64 1082.04 1048.84 1076.65 1054.17L1071.15 1059.64L692.715 1060.21C394.136 1060.67 313.002 1060.16 308.245 1057.8Z" fill="black"/>
<mask id="path-2-inside-1_126_2" fill="white">
<path d="M306.281 1057.8C286.77 1048.17 283.873 991.329 300.413 943.169C314.564 902.011 330.887 880.261 393.283 819.433C449.498 764.627 464.469 746.582 481.951 712.595C502.839 672.035 511.049 639.935 513.246 590.58C514.019 573.156 521.5 558 513.367 558C512.666 558 500.81 565.722 487.046 574.064C473.283 582.381 442.302 599.112 418.179 611.23C326.661 657.216 312.294 670.72 271.461 749.116C263.879 763.671 252.819 781.717 246.855 789.222C227.827 813.242 197.209 831.383 175.742 831.383C166.58 831.383 149.793 825.145 140.9 818.429C136.754 815.298 131.4 808.438 129.003 803.18C140.9 768.545 152.778 767.455 113.437 791.97C44.1207 781.86 -5.0356 722.179 0.411991 654.73C3.91574 611.374 23.627 568.017 73.1962 494.664C107.12 444.472 120.909 420.117 130.367 393.706C135.269 380.011 135.839 373.916 135.93 334.24L136.034 290.023L143.855 273.675C150.373 260.051 157.231 251.877 184.966 224.678C203.269 206.728 221.38 187.416 225.243 181.751L232.246 171.474L226.934 105.268C219.641 14.0085 219.617 14.2452 234.612 8.00697C244.827 3.75735 244.32 3.52072 321.518 49.4945C357.135 70.7043 387.101 88.0589 388.116 88.0589C389.13 88.0589 408.206 68.7229 430.518 45.0895C464.131 9.47927 472.51 1.85243 479.44 0.566553C494.194 -2.17251 497.671 2.71526 527.686 68.0131L555.214 127.871L570.185 125.698C591.7 122.579 644.075 125.33 671.265 131.004C720.67 141.308 769.712 162.329 809.41 190.212C835.924 208.831 878.616 251.566 898.368 279.268C941.085 339.14 972.041 406.135 1000.41 500.162C1049.12 661.59 1079.13 850.361 1079.93 1000.39C1080.17 1047.64 1080.08 1048.84 1074.69 1054.17L1069.18 1059.64L690.751 1060.21C392.172 1060.67 311.038 1060.16 306.281 1057.8Z"/>
</mask>
<path d="M306.281 1057.8C286.77 1048.17 283.873 991.329 300.413 943.169C314.564 902.011 330.887 880.261 393.283 819.433C449.498 764.627 464.469 746.582 481.951 712.595C502.839 672.035 511.049 639.935 513.246 590.58C514.019 573.156 521.5 558 513.367 558C512.666 558 500.81 565.722 487.046 574.064C473.283 582.381 442.302 599.112 418.179 611.23C326.661 657.216 312.294 670.72 271.461 749.116C263.879 763.671 252.819 781.717 246.855 789.222C227.827 813.242 197.209 831.383 175.742 831.383C166.58 831.383 149.793 825.145 140.9 818.429C136.754 815.298 131.4 808.438 129.003 803.18C140.9 768.545 152.778 767.455 113.437 791.97C44.1207 781.86 -5.0356 722.179 0.411991 654.73C3.91574 611.374 23.627 568.017 73.1962 494.664C107.12 444.472 120.909 420.117 130.367 393.706C135.269 380.011 135.839 373.916 135.93 334.24L136.034 290.023L143.855 273.675C150.373 260.051 157.231 251.877 184.966 224.678C203.269 206.728 221.38 187.416 225.243 181.751L232.246 171.474L226.934 105.268C219.641 14.0085 219.617 14.2452 234.612 8.00697C244.827 3.75735 244.32 3.52072 321.518 49.4945C357.135 70.7043 387.101 88.0589 388.116 88.0589C389.13 88.0589 408.206 68.7229 430.518 45.0895C464.131 9.47927 472.51 1.85243 479.44 0.566553C494.194 -2.17251 497.671 2.71526 527.686 68.0131L555.214 127.871L570.185 125.698C591.7 122.579 644.075 125.33 671.265 131.004C720.67 141.308 769.712 162.329 809.41 190.212C835.924 208.831 878.616 251.566 898.368 279.268C941.085 339.14 972.041 406.135 1000.41 500.162C1049.12 661.59 1079.13 850.361 1079.93 1000.39C1080.17 1047.64 1080.08 1048.84 1074.69 1054.17L1069.18 1059.64L690.751 1060.21C392.172 1060.67 311.038 1060.16 306.281 1057.8Z" fill="#444444"/>
<path d="M603.5 401.5L612.625 404.142C614.034 399.275 611.376 394.159 606.583 392.514C601.791 390.87 596.551 393.276 594.675 397.982L603.5 401.5ZM245 174.113L243.075 183.416L246.44 184.113L249.472 182.495L245 174.113ZM390 96.7427L394.472 105.124L400.806 101.744L399.284 94.7281L390 96.7427ZM513.367 558C521.058 563.577 521.058 563.576 521.059 563.574C521.06 563.573 521.061 563.572 521.062 563.57C521.065 563.567 521.068 563.562 521.073 563.556C521.082 563.544 521.094 563.526 521.11 563.504C521.143 563.459 521.19 563.394 521.251 563.309C521.374 563.138 521.555 562.887 521.789 562.559C522.259 561.904 522.947 560.939 523.829 559.69C525.594 557.192 528.14 553.554 531.28 548.97C537.558 539.804 546.224 526.838 555.789 511.617C574.855 481.279 597.752 441.576 612.325 405.018L594.675 397.982C580.748 432.924 558.579 471.471 539.702 501.508C530.297 516.474 521.773 529.227 515.605 538.233C512.521 542.735 510.029 546.296 508.312 548.726C507.454 549.941 506.789 550.872 506.342 551.496C506.119 551.809 505.95 552.044 505.837 552.199C505.781 552.277 505.74 552.335 505.713 552.372C505.699 552.391 505.689 552.405 505.683 552.413C505.68 552.417 505.678 552.42 505.677 552.422C505.676 552.423 505.676 552.423 505.675 552.424C505.676 552.424 505.676 552.423 513.367 558ZM246.925 164.81L234.171 162.171L230.321 180.777L243.075 183.416L246.925 164.81ZM378.832 90.0735L380.716 98.7573L399.284 94.7281L397.4 86.0443L378.832 90.0735ZM385.528 88.3612L240.528 165.732L249.472 182.495L394.472 105.124L385.528 88.3612ZM594.375 398.858C593.357 402.373 589.229 410.941 582.297 423.319C575.584 435.308 566.759 449.978 557.052 465.206C537.522 495.842 514.911 527.961 499.042 545.032L512.958 557.968C530.089 539.539 553.478 506.158 573.073 475.419C582.929 459.959 591.948 444.973 598.875 432.603C605.584 420.622 610.893 410.127 612.625 404.142L594.375 398.858ZM306.281 1057.8L314.743 1040.79L314.717 1040.77L314.692 1040.76L306.281 1057.8ZM300.413 943.169L282.446 936.991L282.444 936.997L300.413 943.169ZM393.283 819.433L406.546 833.037L406.547 833.037L393.283 819.433ZM481.951 712.595L465.06 703.896L465.056 703.904L481.951 712.595ZM513.246 590.58L532.227 591.425L532.227 591.421L513.246 590.58ZM487.046 574.064L496.873 590.325L496.884 590.319L496.894 590.313L487.046 574.064ZM418.179 611.23L409.65 594.252L409.648 594.253L418.179 611.23ZM271.461 749.116L288.312 757.893L288.312 757.893L271.461 749.116ZM246.855 789.222L231.98 777.4L231.971 777.412L231.962 777.424L246.855 789.222ZM140.9 818.429L152.35 803.267L152.35 803.267L140.9 818.429ZM129.003 803.18L111.033 797.007L108.572 804.171L111.715 811.063L129.003 803.18ZM113.437 791.97L110.695 810.771L117.581 811.776L123.486 808.096L113.437 791.97ZM0.411991 654.73L-18.5263 653.2L-18.5263 653.201L0.411991 654.73ZM73.1962 494.664L57.4546 484.025L57.4537 484.026L73.1962 494.664ZM130.367 393.706L148.254 400.112L148.256 400.109L130.367 393.706ZM135.93 334.24L116.93 334.196L116.93 334.196L135.93 334.24ZM136.034 290.023L118.895 281.824L117.044 285.691L117.034 289.979L136.034 290.023ZM143.855 273.675L160.995 281.875L160.995 281.874L143.855 273.675ZM184.966 224.678L171.663 211.112L171.663 211.112L184.966 224.678ZM225.243 181.751L240.94 192.457L240.945 192.45L225.243 181.751ZM232.246 171.474L247.948 182.172L251.721 176.634L251.185 169.954L232.246 171.474ZM226.934 105.268L207.994 106.781L207.995 106.787L226.934 105.268ZM234.612 8.00697L241.91 25.5495L241.911 25.5493L234.612 8.00697ZM321.518 49.4945L311.796 65.819L311.797 65.8192L321.518 49.4945ZM430.518 45.0895L444.334 58.1327L444.335 58.1314L430.518 45.0895ZM479.44 0.566553L482.906 19.2477L482.908 19.2474L479.44 0.566553ZM527.686 68.0131L510.422 75.9485L510.424 75.9516L527.686 68.0131ZM555.214 127.871L537.951 135.81L543.886 148.714L557.942 146.674L555.214 127.871ZM570.185 125.698L567.459 106.895L567.456 106.895L570.185 125.698ZM671.265 131.004L667.383 149.604L667.385 149.604L671.265 131.004ZM809.41 190.212L798.49 205.76L798.491 205.761L809.41 190.212ZM898.368 279.268L882.898 290.299L882.901 290.303L898.368 279.268ZM1000.41 500.162L1018.6 494.674L1018.6 494.673L1000.41 500.162ZM1079.93 1000.39L1098.93 1000.29L1098.93 1000.29L1079.93 1000.39ZM1074.69 1054.17L1061.32 1040.66L1061.31 1040.68L1061.29 1040.69L1074.69 1054.17ZM1069.18 1059.64L1069.21 1078.64L1077.03 1078.63L1082.58 1073.11L1069.18 1059.64ZM690.751 1060.21L690.723 1041.21L690.723 1041.21L690.751 1060.21ZM314.692 1040.76C316.18 1041.5 314.68 1041.54 312.622 1035.99C310.747 1030.94 309.289 1023.47 308.803 1013.96C307.834 995.002 310.884 971.174 318.383 949.34L282.444 936.997C273.402 963.324 269.63 991.995 270.853 1015.9C271.462 1027.82 273.353 1039.39 276.992 1049.2C280.448 1058.52 286.627 1069.28 297.87 1074.84L314.692 1040.76ZM318.381 949.346C331.007 912.622 344.556 893.47 406.546 833.037L380.02 805.828C317.218 867.052 298.12 891.4 282.446 936.991L318.381 949.346ZM406.547 833.037C463.021 777.979 479.882 758.156 498.847 721.286L465.056 703.904C449.056 735.008 435.975 751.276 380.02 805.828L406.547 833.037ZM498.843 721.293C521.091 678.091 529.919 643.278 532.227 591.425L494.265 589.735C492.179 636.593 484.586 665.978 465.06 703.896L498.843 721.293ZM532.227 591.421C532.553 584.086 534.09 579.03 535.41 570.744C535.838 568.053 536.822 561.939 535.302 555.96C534.389 552.369 532.262 547.502 527.447 543.73C522.621 539.948 517.311 539 513.367 539V577C511.456 577 507.691 576.525 504.01 573.641C500.34 570.765 498.956 567.219 498.473 565.32C498.037 563.605 498.14 562.543 498.126 562.843C498.118 563.018 498.071 563.582 497.883 564.768C497.389 567.864 496.929 569.705 496.024 574.837C495.276 579.072 494.51 584.201 494.265 589.738L532.227 591.421ZM513.367 539C509.987 539 507.417 539.943 507.11 540.048C506.254 540.341 505.581 540.639 505.232 540.798C504.501 541.13 503.877 541.464 503.519 541.658C502.742 542.081 501.893 542.581 501.125 543.041C499.537 543.993 497.421 545.305 495.058 546.778C490.231 549.786 483.954 553.721 477.199 557.815L496.894 590.313C503.903 586.065 510.436 581.969 515.153 579.03C517.562 577.529 519.402 576.39 520.664 575.633C520.968 575.451 521.209 575.308 521.396 575.2C521.488 575.146 521.558 575.106 521.609 575.077C521.662 575.047 521.683 575.036 521.679 575.038C521.677 575.039 521.624 575.068 521.531 575.116C521.447 575.159 521.253 575.256 520.982 575.38C520.761 575.48 520.196 575.733 519.427 575.997C519.207 576.072 516.703 577 513.367 577V539ZM477.22 557.803C464.061 565.754 433.575 582.234 409.65 594.252L426.708 628.208C451.029 615.991 482.504 599.009 496.873 590.325L477.22 557.803ZM409.648 594.253C364.149 617.115 335.236 633.089 312.801 654.174C290.087 675.521 275.035 701.123 254.61 740.339L288.312 757.893C308.719 718.712 321.268 698.365 338.825 681.864C356.661 665.102 380.691 651.331 426.71 628.207L409.648 594.253ZM254.61 740.338C247.245 754.477 236.838 771.288 231.98 777.4L261.73 801.043C268.801 792.145 280.512 772.866 288.312 757.893L254.61 740.338ZM231.962 777.424C223.98 787.5 213.371 796.536 202.525 802.966C191.341 809.595 181.741 812.383 175.742 812.383V850.383C191.209 850.383 207.652 844.101 221.901 835.655C236.488 827.008 250.702 814.964 261.748 801.019L231.962 777.424ZM175.742 812.383C174.491 812.383 170.487 811.714 164.841 809.615C159.451 807.612 154.848 805.153 152.35 803.267L129.45 833.591C135.845 838.421 144.082 842.439 151.6 845.234C158.861 847.933 167.831 850.383 175.742 850.383V812.383ZM152.35 803.267C152.366 803.278 152.271 803.207 152.07 803.024C151.874 802.846 151.619 802.602 151.315 802.286C150.698 801.645 149.994 800.835 149.275 799.914C147.731 797.935 146.695 796.186 146.29 795.297L111.715 811.063C113.708 815.432 116.548 819.742 119.316 823.29C122.029 826.767 125.564 830.656 129.45 833.591L152.35 803.267ZM146.972 809.353C149.631 801.611 152.285 795.747 154.296 791.497C155.178 789.632 156.342 787.246 157.057 785.631C157.421 784.806 158.016 783.422 158.489 781.876C158.728 781.094 159.089 779.786 159.294 778.174C159.472 776.779 159.747 773.65 158.634 769.938C157.308 765.515 154.093 760.75 148.49 758.061C143.713 755.77 139.376 756.064 137.377 756.337C133.628 756.849 130.751 758.378 130.073 758.728C127.96 759.818 125.539 761.415 123.646 762.669C119.241 765.588 112.932 769.898 103.389 775.845L123.486 808.096C133.613 801.785 140.572 797.038 144.632 794.348C146.972 792.798 147.583 792.453 147.502 792.495C147.39 792.553 146.974 792.765 146.341 793.011C145.81 793.218 144.431 793.726 142.52 793.987C140.792 794.223 136.668 794.537 132.052 792.322C129.611 791.151 127.376 789.425 125.578 787.193C123.821 785.013 122.807 782.759 122.234 780.85C121.179 777.33 121.461 774.451 121.6 773.364C121.766 772.06 122.041 771.119 122.15 770.762C122.363 770.066 122.522 769.768 122.301 770.267C121.845 771.299 121.237 772.517 119.948 775.242C117.615 780.172 114.323 787.432 111.033 797.007L146.972 809.353ZM116.18 773.169C56.2138 764.423 14.7545 713.163 19.3503 656.26L-18.5263 653.201C-24.8257 731.195 32.0276 799.297 110.695 810.771L116.18 773.169ZM19.3503 656.261C22.4344 618.096 39.6707 578.21 88.9387 505.303L57.4537 484.026C7.58333 557.824 -14.6029 604.651 -18.5263 653.2L19.3503 656.261ZM88.9379 505.304C122.972 454.949 137.936 428.923 148.254 400.112L112.479 387.3C103.881 411.311 91.2691 433.995 57.4546 484.025L88.9379 505.304ZM148.256 400.109C154.418 382.891 154.839 373.606 154.93 334.284L116.93 334.196C116.838 374.226 116.119 377.131 112.478 387.303L148.256 400.109ZM154.93 334.285L155.034 290.068L117.034 289.979L116.93 334.196L154.93 334.285ZM153.174 298.223L160.995 281.875L126.716 265.475L118.895 281.824L153.174 298.223ZM160.995 281.874C165.887 271.65 170.384 265.59 198.269 238.243L171.663 211.112C144.078 238.164 134.859 248.453 126.716 265.476L160.995 281.874ZM198.269 238.243C207.597 229.096 216.886 219.592 224.376 211.607C231.395 204.126 238.011 196.752 240.94 192.457L209.547 171.045C209.554 171.034 209.473 171.153 209.261 171.431C209.057 171.697 208.782 172.045 208.426 172.483C207.708 173.364 206.765 174.475 205.596 175.811C203.26 178.481 200.22 181.816 196.663 185.608C189.556 193.183 180.638 202.31 171.663 211.112L198.269 238.243ZM240.945 192.45L247.948 182.172L216.544 160.775L209.542 171.053L240.945 192.45ZM251.185 169.954L245.873 103.748L207.995 106.787L213.307 172.993L251.185 169.954ZM245.873 103.754C242.137 56.9931 240.553 36.4255 241.356 26.2488C241.729 21.5236 242.433 23.1403 240.37 25.5021C238.864 27.2265 236.971 27.6045 241.91 25.5495L227.315 -9.53559C224.757 -8.47147 217.243 -5.78377 211.752 0.502688C205.703 7.42644 204.058 15.8574 203.474 23.2601C202.363 37.3395 204.438 62.2832 207.994 106.781L245.873 103.754ZM241.911 25.5493C245.012 24.2592 243.131 25.3017 240.923 25.2178C239.443 25.1616 239.812 24.7006 244.76 27.0629C254.539 31.7318 272.63 42.4946 311.796 65.819L331.24 33.17C293.207 10.5206 272.953 -1.58513 261.132 -7.229C255.28 -10.023 249.037 -12.5014 242.366 -12.7548C234.968 -13.0357 229.32 -10.3701 227.314 -9.53534L241.911 25.5493ZM311.797 65.8192C329.651 76.4517 346.116 86.1337 358.271 93.1725C364.337 96.6852 369.392 99.5755 373.03 101.606C374.829 102.611 376.399 103.47 377.615 104.106C378.195 104.41 378.888 104.764 379.567 105.081C379.879 105.227 380.455 105.489 381.148 105.754C381.485 105.883 382.107 106.112 382.895 106.334C383.308 106.451 385.392 107.059 388.116 107.059V69.0589C390.808 69.0589 392.845 69.6585 393.199 69.7582C393.927 69.9633 394.476 70.1673 394.725 70.2626C395.243 70.4608 395.588 70.6235 395.617 70.6369C395.728 70.6887 395.639 70.6497 395.233 70.4373C394.476 70.0414 393.26 69.3794 391.551 68.4254C388.172 66.5395 383.319 63.7655 377.314 60.2883C365.328 53.3473 349.001 43.7472 331.239 33.1698L311.797 65.8192ZM388.116 107.059C391.487 107.059 394.013 106.154 394.946 105.798C396.134 105.345 397.044 104.863 397.557 104.574C398.589 103.996 399.376 103.432 399.754 103.155C400.578 102.55 401.301 101.936 401.769 101.53C402.783 100.65 403.961 99.5503 405.169 98.3941C407.643 96.0263 410.967 92.7215 414.855 88.7817C422.664 80.8678 433.111 70.0202 444.334 58.1327L416.702 32.0463C405.613 43.7922 395.366 54.4293 387.806 62.0918C384.008 65.9402 380.979 68.9465 378.893 70.9427C377.822 71.9685 377.169 72.5642 376.859 72.8337C376.664 73.003 376.852 72.8269 377.274 72.5173C377.451 72.3871 378.071 71.9349 378.969 71.4311C379.416 71.1802 380.268 70.726 381.407 70.2917C382.29 69.9549 384.776 69.0589 388.116 69.0589V107.059ZM444.335 58.1314C461.247 40.2144 471.241 29.9534 477.774 24.0082C484.744 17.6648 485.135 18.8341 482.906 19.2477L475.974 -18.1146C466.814 -16.4151 459.552 -10.7894 452.196 -4.0954C444.404 2.9969 433.402 14.3544 416.701 32.0476L444.335 58.1314ZM482.908 19.2474C485.892 18.6934 484.478 19.3834 482.218 18.5221C480 17.6773 480.059 16.5752 482.385 19.8274C487.522 27.0114 495.01 42.4186 510.422 75.9485L544.95 60.0777C530.347 28.3097 521.089 8.6241 513.295 -2.27543C509.156 -8.06497 503.703 -13.9566 495.746 -16.9881C487.746 -20.036 480.365 -18.9298 475.972 -18.1142L482.908 19.2474ZM510.424 75.9516L537.951 135.81L572.476 119.932L544.948 60.0746L510.424 75.9516ZM557.942 146.674L572.913 144.501L567.456 106.895L552.485 109.068L557.942 146.674ZM572.911 144.502C581.715 143.225 598.623 143.031 617.601 144.028C636.339 145.012 655.144 147.05 667.383 149.604L675.146 112.405C660.196 109.285 639.218 107.11 619.593 106.08C600.207 105.062 580.169 105.052 567.459 106.895L572.911 144.502ZM667.385 149.604C714.364 159.402 760.992 179.423 798.49 205.76L820.331 174.664C778.433 145.236 726.975 123.214 675.144 112.405L667.385 149.604ZM798.491 205.761C823.157 223.083 864.334 264.263 882.898 290.299L913.838 268.237C892.898 238.87 848.691 194.58 820.329 174.663L798.491 205.761ZM882.901 290.303C924.087 348.029 954.263 412.987 982.224 505.651L1018.6 494.673C989.82 399.283 958.082 330.251 913.835 268.233L882.901 290.303ZM982.224 505.65C1030.47 665.544 1060.14 852.498 1060.93 1000.49L1098.93 1000.29C1098.12 848.224 1067.77 657.635 1018.6 494.674L982.224 505.65ZM1060.93 1000.48C1061.05 1024.75 1061.06 1035.53 1060.51 1041.16C1060.26 1043.76 1060.03 1043.32 1060.66 1041.98C1061.44 1040.36 1062.55 1039.45 1061.32 1040.66L1088.06 1067.67C1089.53 1066.21 1092.67 1063.16 1094.97 1058.33C1097.13 1053.8 1097.92 1049.11 1098.33 1044.83C1099.12 1036.72 1099.05 1023.28 1098.93 1000.29L1060.93 1000.48ZM1061.29 1040.69L1055.79 1046.16L1082.58 1073.11L1088.09 1067.64L1061.29 1040.69ZM1069.16 1040.64L690.723 1041.21L690.78 1079.21L1069.21 1078.64L1069.16 1040.64ZM690.723 1041.21C541.42 1041.44 446.566 1041.43 388.452 1041.06C359.37 1040.88 339.633 1040.61 326.921 1040.25C320.534 1040.06 316.143 1039.86 313.313 1039.65C311.874 1039.55 311.108 1039.46 310.808 1039.41C309.589 1039.24 311.928 1039.39 314.743 1040.79L297.819 1074.81C301.229 1076.51 304.759 1076.93 305.397 1077.03C306.954 1077.25 308.711 1077.42 310.528 1077.55C314.212 1077.82 319.273 1078.04 325.827 1078.23C338.996 1078.61 359.095 1078.88 388.214 1079.06C446.501 1079.43 541.504 1079.44 690.78 1079.21L690.723 1041.21Z" fill="black" mask="url(#path-2-inside-1_126_2)"/>
<path d="M1028.05 938.454C1035.7 1034.43 1035.7 1015.1 1028.59 1022.11C1022.2 1028.44 1006.15 1031.89 1006.15 1025.89C1006.15 1025.89 1006.15 177.541 514.55 177.541C508.83 177.541 527.677 173.943 537.755 171.877C549.675 169.427 563.196 169.012 589.544 168.879C633.614 168.655 662.027 175.18 698.698 188.234C759.874 209.989 820.018 256.371 860.475 313.047C879.327 339.45 906.56 390.505 920.84 426.204C982.186 557.239 1013.8 759.155 1028.05 938.454Z" fill="white"/>
<path d="M206.14 389.378C205.435 390.687 204.887 391.741 204.564 392.546C204.403 392.947 204.275 393.34 204.224 393.706C204.175 394.062 204.179 394.536 204.458 394.962C204.754 395.414 205.211 395.593 205.59 395.656C205.958 395.718 206.362 395.693 206.757 395.639C207.553 395.53 208.622 395.252 209.931 394.891C211.576 394.446 215.382 392.894 220.115 390.805C224.885 388.699 230.681 386.009 236.347 383.247L236.348 383.247C252.065 375.571 261.522 368.745 275.452 355.015C283.904 346.693 293.064 335.467 300.112 325.388C303.637 320.347 306.647 315.575 308.78 311.581C309.846 309.585 310.702 307.767 311.293 306.197C311.877 304.648 312.236 303.256 312.236 302.141C312.236 301.446 311.958 300.78 311.583 300.199C311.201 299.607 310.673 299.031 310.057 298.495C308.827 297.424 307.161 296.436 305.347 295.762C289.362 289.761 268.652 296.28 255.359 311.233L255.359 311.233C253.696 313.104 250.47 317.668 246.434 323.704C242.382 329.765 237.471 337.377 232.42 345.397C222.322 361.431 211.644 379.134 206.14 389.378ZM206.14 389.378C206.14 389.377 206.14 389.377 206.141 389.377L207.021 389.851L206.14 389.378C206.14 389.378 206.14 389.378 206.14 389.378Z" fill="white" stroke="white" stroke-width="2"/>
<path d="M58.4097 682.763L58.4054 682.855L58.434 682.942L65.6863 705.102L65.9296 705.846L66.5022 705.313L83.7858 689.218C96.8463 680.026 105.953 672.604 111.798 666.161C117.647 659.714 120.282 654.19 120.282 648.804C120.282 641.784 116.925 634.831 111.908 629.643C106.893 624.457 100.164 620.98 93.3587 620.992L93.3584 620.992C82.7984 621.017 72.1722 630.305 65.7047 644.781C60.8062 655.738 59.3099 663.592 58.4097 682.763Z" fill="white" stroke="white"/>
</svg>
