<svg width="1080" height="1080" viewBox="0 0 1080 1080" fill="none" xmlns="http://www.w3.org/2000/svg">
<g clip-path="url(#clip0_126_10)">
<path d="M361.158 569.543L374.297 580.241C377.039 582.474 378.473 585.938 378.112 589.456C377.751 592.974 375.642 596.074 372.503 597.703L346.38 611.258C257.515 657.395 185.488 742.911 152.619 841.676L142.659 838.362L152.619 841.677C135.213 893.971 131.445 917.284 131.501 972.376C131.536 1006.21 133.214 1029.98 136.613 1045.84C139.771 1060.58 143.804 1065.63 146.501 1067.31C146.667 1067.32 146.85 1067.33 147.053 1067.34C148.614 1067.43 150.909 1067.52 153.94 1067.6C159.981 1067.78 168.664 1067.94 179.645 1068.09C201.592 1068.39 232.55 1068.65 269.536 1068.85C343.498 1069.26 441.474 1069.48 539.473 1069.5C637.473 1069.52 735.477 1069.34 809.498 1068.95C846.513 1068.76 877.508 1068.52 899.5 1068.23C910.503 1068.08 919.211 1067.92 925.278 1067.75C928.322 1067.67 930.632 1067.58 932.21 1067.49C932.495 1067.48 932.743 1067.46 932.959 1067.45C935.987 1065.8 940.163 1060.98 943.406 1046.34C946.882 1030.65 948.559 1006.87 948.585 972.379V972.372C948.661 917.282 944.896 893.97 927.49 841.677M361.158 569.543L937.452 838.361M361.158 569.543C361.158 569.543 361.157 569.542 361.156 569.542M361.158 569.543L361.156 569.542M927.49 841.677L937.452 838.361M927.49 841.677C927.49 841.677 927.49 841.677 927.49 841.677L937.452 838.361M927.49 841.677C894.61 742.91 822.583 657.395 733.718 611.258M937.452 838.361C903.745 737.108 829.941 649.384 738.556 601.939M733.718 611.258L733.72 611.259L738.556 601.939M733.718 611.258L707.595 597.703C704.456 596.074 702.348 592.974 701.986 589.456C701.625 585.938 703.059 582.474 705.802 580.241L718.94 569.543C718.94 569.543 718.941 569.542 718.942 569.542C745.088 548.241 768.942 510.809 779.753 473.348C784.207 457.857 785.263 449.053 785.136 423.194C785.058 409.081 784.772 400.863 783.831 393.902C782.915 387.123 781.336 381.24 778.278 371.863L738.556 601.939M733.718 611.258L738.556 601.939M712.431 588.383L721.305 581.158L717.267 579.063L712.431 588.383ZM712.431 588.383L719.061 596.526L722.588 593.654L712.431 588.383ZM655.611 229.674L665.115 234.355L664.328 235.527L655.611 229.674ZM655.611 229.674L661.517 220.878L660.251 220.255L655.611 229.674ZM361.156 569.542C335.01 548.241 311.157 510.809 300.345 473.348L361.156 569.542ZM433.204 223.821L422.226 207.47L300.344 473.346C295.891 457.856 294.835 449.051 294.962 423.194C295.04 409.081 295.326 400.863 296.267 393.902C297.183 387.123 298.762 381.24 301.82 371.863C320.566 314.512 353.023 276.556 404.453 251.248L404.457 251.246L429.127 239.093C431.844 237.754 433.851 235.308 434.632 232.382C435.413 229.456 434.893 226.335 433.204 223.821ZM666.596 213.313L657.879 207.46L657.872 207.47L666.596 213.313Z" fill="#444444" stroke="black" stroke-width="21" stroke-linejoin="round"/>
</g>
<defs>
<clipPath id="clip0_126_10">
<rect width="1080" height="1080" fill="white"/>
</clipPath>
</defs>
</svg>
