<svg width="1080" height="1080" viewBox="0 0 1080 1080" fill="none" xmlns="http://www.w3.org/2000/svg">
<path d="M999.468 364.566C999.192 364.412 998.922 364.246 998.66 364.068C988.814 357.402 975.052 360.068 966.618 371.376C941.057 405.726 898.193 422.234 856.157 414.003C801.503 403.745 765.41 352.456 765.41 298.32C765.41 288.792 757.616 281 748.098 281H666.281C658.078 281 651.362 286.401 649.931 293.15M999.468 364.566L639.168 290.88M999.468 364.566L1059.29 397.945M999.468 364.566L113.031 371.108M649.931 293.15C649.931 293.152 649.93 293.154 649.93 293.156L639.168 290.88M649.931 293.15C649.932 293.149 649.932 293.147 649.932 293.146L639.168 290.88M649.931 293.15C637.162 353.808 577.593 392.648 516.951 379.888M639.168 290.88C627.651 345.6 573.906 380.64 519.201 369.12M516.951 379.888C516.957 379.889 516.962 379.89 516.967 379.891L519.201 369.12M516.951 379.888C473.269 370.822 439.516 336.725 430.225 293.175L430.22 293.156C428.793 286.404 422.075 281 413.87 281H332.052C322.535 281 314.74 288.792 314.74 298.32C314.74 357.599 270.913 411.555 210.223 415.853L210.219 415.853C172.422 418.515 135.677 401.747 113.031 371.108M516.951 379.888C516.946 379.886 516.94 379.885 516.934 379.884L519.201 369.12M519.201 369.12L113.031 371.108M113.031 371.108C113.033 371.11 113.034 371.111 113.035 371.113L121.868 364.561L113.023 371.097C113.026 371.101 113.029 371.104 113.031 371.108ZM113.031 371.108C104.95 360.218 91.4073 357.507 81.3933 364.133C81.1712 364.28 80.9438 364.419 80.7116 364.55L20.8686 398.176M20.8686 398.176C20.9672 398.109 21.0665 398.042 21.1665 397.976L15.0996 388.8L20.4881 398.39L20.8686 398.176ZM20.8686 398.176C11.5688 404.536 8.29197 416.819 13.422 427.082C13.4415 427.121 13.4608 427.16 13.4799 427.199L226.653 866.68M226.653 866.68H222.895C225.194 866.68 227.29 867.993 228.294 870.062L226.653 866.68ZM226.653 866.68H853.016M853.016 866.68L851.376 870.063C852.379 867.994 854.476 866.68 856.775 866.68H853.016ZM853.016 866.68L1066.19 426.961C1066.22 426.892 1066.26 426.822 1066.29 426.754C1066.32 426.702 1066.35 426.651 1066.37 426.6C1071.76 416.458 1068.58 404.303 1059.29 397.945M1059.29 397.945L1059.69 398.166L1065.05 388.56L1058.98 397.736C1059.09 397.805 1059.19 397.874 1059.29 397.945ZM647.363 118.08C647.363 177.288 599.499 225.16 540.315 225.16C481.131 225.16 433.268 177.288 433.268 118.08C433.268 58.8723 481.131 11 540.315 11C599.499 11 647.363 58.8723 647.363 118.08ZM169.137 955.88H911.493C923.982 955.88 934.125 965.94 934.324 978.796V1046.16C934.324 1058.81 924.13 1069 911.493 1069H169.137C156.5 1069 146.307 1058.81 146.307 1046.16V978.72C146.307 966.072 156.5 955.88 169.137 955.88Z" fill="white" stroke="black" stroke-width="22" stroke-linejoin="round"/>
</svg>
