<svg width="1080" height="1080" viewBox="0 0 1080 1080" fill="none" xmlns="http://www.w3.org/2000/svg">
<path d="M999.468 364.566C999.192 364.412 998.922 364.246 998.66 364.068C988.817 357.404 975.061 360.066 966.626 371.366C941.065 405.723 898.196 422.236 856.155 414.003C801.502 403.744 765.41 352.455 765.41 298.32C765.41 288.792 757.616 281 748.098 281H666.281C658.078 281 651.362 286.401 649.931 293.15M999.468 364.566L639.168 290.88M999.468 364.566L1059.29 397.945C1068.58 404.303 1071.76 416.458 1066.37 426.6C1066.34 426.66 1066.31 426.72 1066.28 426.78M999.468 364.566L1066.28 426.78M649.931 293.15C649.931 293.152 649.93 293.154 649.93 293.156L639.168 290.88M649.931 293.15C649.932 293.149 649.932 293.147 649.932 293.146L639.168 290.88M649.931 293.15C637.162 353.808 577.593 392.648 516.951 379.888M639.168 290.88C627.651 345.6 573.906 380.64 519.201 369.12M516.951 379.888C516.957 379.889 516.962 379.89 516.967 379.891L519.201 369.12M516.951 379.888C516.946 379.886 516.94 379.885 516.934 379.884L519.201 369.12M516.951 379.888L519.201 369.12M1066.28 426.78C1066.25 426.84 1066.22 426.901 1066.19 426.961M1066.28 426.78L1066.19 426.961M1066.19 426.961L853.016 866.68H226.653L1066.19 426.961ZM113.031 371.108C113.033 371.11 113.034 371.111 113.035 371.113L121.87 364.56L113.023 371.097C113.026 371.101 113.029 371.104 113.031 371.108ZM20.8686 398.176C20.9672 398.109 21.0665 398.042 21.1665 397.976L15.0996 388.8L20.4881 398.39L20.8686 398.176ZM647.363 118.08C647.363 177.288 599.499 225.16 540.315 225.16C481.131 225.16 433.268 177.288 433.268 118.08C433.268 58.8723 481.131 11 540.315 11C599.499 11 647.363 58.8723 647.363 118.08ZM169.137 955.88H911.493C923.982 955.88 934.125 965.94 934.324 978.796V1046.16C934.324 1058.81 924.13 1069 911.493 1069H169.137C156.5 1069 146.307 1058.81 146.307 1046.16V978.72C146.307 966.072 156.5 955.88 169.137 955.88Z" fill="#444444" stroke="black" stroke-width="22" stroke-linejoin="round"/>
</svg>
