<svg width="1080" height="1080" viewBox="0 0 1080 1080" fill="none" xmlns="http://www.w3.org/2000/svg">
<path d="M489.346 150.778C491.158 147.149 490.598 142.785 487.929 139.73C475.821 125.874 467.329 106.968 467.329 86.6311C467.329 44.0131 501.315 10 543.843 10C586.372 10 620.358 44.013 620.358 86.6311C620.358 108.597 610.202 129.045 594.871 142.69C592.816 144.52 591.605 147.116 591.524 149.866C591.449 152.442 592.37 154.94 594.084 156.846C594.112 156.892 594.146 156.952 594.187 157.026C594.415 157.436 594.686 158.004 594.97 158.666C595.244 159.308 595.48 159.922 595.649 160.38L595.683 160.472C595.749 160.654 595.801 160.8 595.835 160.898C595.854 160.954 595.868 160.994 595.875 161.015L595.876 161.018C595.877 161.022 595.878 161.025 595.879 161.028C596.028 161.473 596.208 161.908 596.418 162.328C597.103 163.701 598.495 165.657 599.63 167.234C601.025 169.172 602.926 171.733 605.264 174.819C609.947 181 616.485 189.424 624.449 199.454C640.38 219.515 662.091 246.087 686.219 274.113C839.273 452.278 876.111 580.527 821.508 694.042C795.153 737.271 755.532 782.67 717.159 824.937C714.116 828.289 713.705 833.268 716.157 837.075C755.755 898.533 799.76 934.595 869.113 960.39C869.142 960.4 869.17 960.411 869.199 960.421C903.705 972.898 927.705 982.823 944.154 991.406C960.842 1000.11 968.442 1006.79 971.779 1012.14C971.806 1012.18 971.832 1012.22 971.859 1012.26C971.885 1012.31 971.912 1012.35 971.939 1012.39C973.04 1014.04 974.854 1018.17 977.023 1024.68C979.081 1030.87 981.175 1038.31 983.057 1045.84C984.936 1053.37 986.573 1060.87 987.732 1067.14C987.918 1068.14 988.088 1069.1 988.242 1070H988.202H987.534H986.847H986.143H985.42H984.679H983.92H983.144H982.349H981.537H980.708H979.861H978.996H978.115H977.216H976.299H975.366H974.416H973.449H972.465H971.464H970.446H969.412H968.362H967.295H966.211H965.112H963.996H962.864H961.716H960.552H959.373H958.177H956.966H955.74H954.497H953.24H951.967H950.679H949.375H948.057H946.723H945.375H944.011H942.633H941.24H939.833H938.411H936.974H935.523H934.058H932.579H931.086H929.578H928.057H926.522H924.973H923.41H921.834H920.244H918.64H917.024H915.394H913.75H912.094H910.425H908.742H907.047H905.339H903.618H901.885H900.139H898.381H896.61H894.827H893.032H891.224H889.405H887.573H885.73H883.875H882.008H880.129H878.239H876.337H874.424H872.5H870.565H868.618H866.66H864.692H862.712H860.722H858.72H856.709H854.686H852.653H850.61H848.556H846.492H844.418H842.334H840.24H838.136H836.022H833.899H831.766H829.623H827.47H825.309H823.138H820.957H818.768H816.569H814.362H812.145H809.92H807.685H805.443H803.191H800.931H798.663H796.386H794.101H791.808H789.507H787.198H784.881H782.556H780.223H777.882H775.534H773.179H770.815H768.445H766.067H763.682H761.29H758.891H756.485H754.073H751.653H749.227H746.794H744.354H741.908H739.456H736.998H734.533H732.062H729.585H727.102H724.613H722.119H719.619H717.113H714.601H712.084H709.562H707.035H704.502H701.964H699.421H696.873H694.32H691.763H689.2H686.633H684.062H681.486H678.905H676.321H673.732H671.139H668.542H665.94H663.335H660.727H658.114H655.498H652.878H650.255H647.628H644.998H642.365H639.729H637.089H634.447H631.801H629.153H626.502H623.849H621.193H618.534H615.873H613.21H610.544H607.876H605.206H602.535H599.861H597.185H594.508H591.829H589.148H586.466H583.783H581.098H578.412H575.724H573.036H570.346H567.656H564.965H562.273H559.58H556.887H554.193H551.499H548.804H546.11H543.415H540.719H538.024H535.329H532.634H529.94H527.245H524.551H521.858H519.165H516.472H513.781H511.09H508.4H505.711H503.023H500.336H497.651H494.966H492.284H489.602H486.922H484.244H481.567H478.893H476.22H473.549H470.88H468.213H465.549H462.886H460.226H457.569H454.914H452.262H449.612H446.965H444.321H441.68H439.042H436.407H433.776H431.147H428.522H425.9H423.282H420.668H418.057H415.45H412.847H410.247H407.652H405.061H402.474H399.891H397.313H394.739H392.17H389.605H387.045H384.489H381.939H379.393H376.853H374.317H371.787H369.262H366.742H364.227H361.719H359.215H356.718H354.226H351.74H349.26H346.786H344.318H341.856H339.4H336.951H334.508H332.071H329.641H327.218H324.802H322.392H319.989H317.594H315.205H312.823H310.449H308.082H305.723H303.37H301.026H298.689H296.36H294.038H291.725H289.419H287.122H284.833H282.551H280.279H278.014H275.758H273.511H271.272H269.042H266.821H264.608H262.405H260.211H258.025H255.849H253.683H251.525H249.377H247.239H245.11H242.991H240.882H238.782H236.693H234.614H232.544H230.485H228.436H226.398H224.37H222.352H220.346H218.349H216.364H214.389H212.426H210.473H208.532H206.601H204.682H202.775H200.879H198.994H197.121H195.259H193.41H191.572H189.746H187.932H186.13H184.341H182.563H180.798H179.046H177.305H175.578H173.863H172.161H170.472H168.796H167.132H165.482H163.845H162.221H160.611H159.013H157.43H155.86H154.304H152.761H151.232H149.717H148.216H146.73H145.257H143.798H142.354H140.925H139.509H138.109H136.723H135.352H133.995H132.654H131.327H130.015H128.719H127.438H126.172H124.922H123.687H122.467H121.263H120.075H118.903H117.747H116.606H115.482H114.374H113.282H112.206H111.147H110.104H109.077H108.068H107.075H106.099H105.139H104.197H103.271H102.363H101.472H100.599H99.7422H98.9033H98.0819H97.2782H96.4921H95.7239H94.9735H94.241H93.5266H92.8303H92.1521H91.7548C91.9095 1069.1 92.0794 1068.14 92.2649 1067.14C93.4242 1060.87 95.0607 1053.37 96.9401 1045.84C98.8221 1038.31 100.916 1030.87 102.974 1024.68C105.143 1018.17 106.957 1014.04 108.058 1012.39C108.075 1012.36 108.092 1012.34 108.108 1012.31C108.145 1012.25 108.182 1012.2 108.218 1012.14C111.555 1006.79 119.155 1000.11 135.842 991.406C152.291 982.823 176.291 972.898 210.797 960.421C210.856 960.4 210.914 960.378 210.972 960.356C277.978 934.702 322.162 902.667 360.04 842.779C362.502 838.886 361.987 833.815 358.792 830.497C307.88 777.629 262.653 707.804 238.148 638.234C230.272 605.175 235.045 558.325 250.827 507.851C265.898 459.648 290.664 409.264 322.363 366.273C325.981 368.033 330.588 370.696 336.18 374.381C345.281 380.38 356.165 388.525 368.314 398.341C392.596 417.958 421.453 443.862 450.403 471.653C508.575 527.496 565.926 589.812 587.322 623.347C589.63 626.964 593.988 628.706 598.153 627.676C602.318 626.646 605.362 623.073 605.717 618.798C607.308 599.682 603.078 573.041 594.792 542.83C586.433 512.356 573.69 477.344 557.543 441.117C526.384 371.207 482.193 295.976 431.529 239.659C433.634 236.711 436.155 233.394 439.032 229.691C440.451 227.863 441.953 225.947 443.51 223.96C447.241 219.199 451.294 214.028 455.319 208.669C461.013 202.772 466.686 193.761 472.061 184.166C477.704 174.093 483.558 162.369 489.275 150.919L489.346 150.778Z" fill="white" stroke="black" stroke-width="20" stroke-linecap="round" stroke-linejoin="round"/>
</svg>
