<svg width="1080" height="1080" viewBox="0 0 1080 1080" fill="none" xmlns="http://www.w3.org/2000/svg">
<g clip-path="url(#clip0_127_83)">
<path d="M664.776 1068.5H435.224C347.252 1062.94 268.996 1043.56 206.635 1012.33C199.575 1008.8 194.8 1006.36 191.33 1004.18C187.918 1002.04 186.8 1000.76 186.332 1000.03C185.974 999.471 185.451 998.405 185.313 995.381C185.165 992.103 185.5 987.609 186.266 980.583C186.369 979.634 186.878 978.185 188.237 976.269C196.705 964.336 212.459 934.241 206.238 882.755C200.061 831.619 172.323 760.28 95.9902 665.154L95.6809 664.724C87.5285 653.369 74.3116 634.958 61.7848 615.285C49.1045 595.37 37.7566 575.113 32.7802 559.942L21.8562 563.525L32.7801 559.942C30.0053 551.483 28.5767 546.148 27.74 540.162C26.8798 534.008 26.5935 526.804 26.5149 514.529C26.3672 491.459 27.2613 484.744 31.4 471.495C40.5312 442.265 53.2719 420.689 71.8476 402.245C97.2211 377.054 120.89 364.649 159.874 356.595C230.896 341.925 326.508 348.621 413.972 421.928C420.878 427.716 427.372 432.89 432.303 436.572C434.736 438.39 436.956 439.971 438.725 441.097C439.551 441.623 440.623 442.273 441.73 442.789C442.21 443.013 443.285 443.495 444.654 443.792C445.33 443.939 446.647 444.171 448.292 444.022C449.942 443.873 452.909 443.233 455.476 440.672L455.486 440.662C458.057 438.09 458.63 435.075 458.73 434.552L458.739 434.505C458.936 433.509 458.983 432.645 459 432.148C459.034 431.096 458.973 430.033 458.903 429.173C458.758 427.37 458.465 425.117 458.089 422.672C457.329 417.717 456.116 411.214 454.638 404.312L443.393 406.72L454.638 404.312C441.47 342.83 448.293 296.722 473.809 259.146C485.679 241.665 497.272 231.897 519.173 221.499L529.68 216.511C539.379 211.907 545.492 202.059 545.316 191.324L544.425 137.024C544.185 122.411 532.511 110.56 517.901 110.104L472.061 108.671C469.695 108.597 467.815 106.658 467.815 104.289V101.668C467.815 99.3001 469.695 97.3609 472.061 97.2869L518.368 95.8398C532.568 95.396 544.054 84.1704 544.852 70.0133L549.654 13.1555C549.669 12.9725 549.694 12.8438 549.715 12.7596C549.819 12.726 549.972 12.6971 550.153 12.6976C550.335 12.698 550.487 12.7278 550.592 12.762C550.612 12.8462 550.636 12.9751 550.65 13.1581L555.147 69.9782C555.927 84.1519 567.421 95.3956 581.632 95.8398L627.94 97.2869C630.305 97.3609 632.185 99.3 632.185 101.668V104.289C632.185 106.658 630.305 108.597 627.939 108.671L582.099 110.104C567.489 110.56 555.815 122.411 555.575 137.024L554.684 191.324C554.508 202.059 560.621 211.907 570.32 216.511L580.827 221.499C602.729 231.897 614.321 241.665 626.191 259.146C651.707 296.722 658.53 342.83 645.362 404.312C643.884 411.214 642.671 417.717 641.911 422.672C641.535 425.117 641.242 427.37 641.097 429.173C641.028 430.033 640.966 431.096 641 432.148C641.017 432.645 641.064 433.509 641.261 434.505L641.27 434.552C641.37 435.076 641.943 438.091 644.514 440.662L644.524 440.672C647.091 443.233 650.058 443.873 651.708 444.022C653.353 444.171 654.67 443.939 655.346 443.792C656.715 443.495 657.79 443.013 658.27 442.789C659.377 442.273 660.449 441.623 661.275 441.097C663.044 439.971 665.264 438.39 667.697 436.572C672.628 432.89 679.122 427.716 686.028 421.928C773.492 348.621 869.104 341.925 940.126 356.595C979.11 364.649 1002.78 377.054 1028.15 402.245C1046.73 420.689 1059.47 442.265 1068.6 471.495C1072.74 484.744 1073.63 491.459 1073.49 514.529C1073.41 526.804 1073.12 534.008 1072.26 540.162C1071.42 546.148 1069.99 551.483 1067.22 559.942C1062.24 575.113 1050.9 595.37 1038.22 615.285C1025.69 634.958 1012.47 653.37 1004.32 664.723L1004.01 665.154C927.677 760.28 899.94 831.619 893.762 882.755C887.541 934.241 903.295 964.336 911.763 976.269C913.122 978.185 913.631 979.634 913.734 980.583C914.5 987.609 914.835 992.103 914.687 995.381C914.55 998.405 914.026 999.471 913.668 1000.03C913.2 1000.76 912.082 1002.04 908.67 1004.18C905.2 1006.36 900.425 1008.8 893.365 1012.33C831.004 1043.56 752.748 1062.94 664.776 1068.5Z" fill="white" stroke="black" stroke-width="23" stroke-linejoin="round"/>
</g>
<defs>
<clipPath id="clip0_127_83">
<rect width="1080" height="1080" fill="white"/>
</clipPath>
</defs>
</svg>
