<svg width="1080" height="1080" viewBox="0 0 1080 1080" fill="none" xmlns="http://www.w3.org/2000/svg">
<g clip-path="url(#clip0_127_77)">
<path d="M361.158 569.543L374.297 580.241C377.039 582.474 378.473 585.938 378.112 589.456C377.751 592.974 375.642 596.074 372.503 597.703L346.38 611.258C257.515 657.395 185.488 742.911 152.619 841.676L142.656 838.361L152.619 841.677C135.213 893.971 131.445 917.284 131.501 972.376C131.536 1006.21 133.214 1029.98 136.613 1045.84C139.771 1060.58 143.804 1065.63 146.501 1067.31C146.666 1067.32 146.85 1067.33 147.053 1067.34C148.614 1067.43 150.909 1067.52 153.94 1067.6C159.981 1067.78 168.664 1067.94 179.645 1068.09C201.592 1068.39 232.55 1068.65 269.536 1068.85C343.498 1069.26 441.474 1069.48 539.473 1069.5C637.473 1069.52 735.477 1069.34 809.498 1068.95C846.513 1068.76 877.508 1068.52 899.5 1068.23C910.503 1068.08 919.211 1067.92 925.278 1067.75C928.322 1067.67 930.632 1067.58 932.21 1067.49C932.495 1067.48 932.743 1067.46 932.959 1067.45C935.987 1065.8 940.163 1060.98 943.406 1046.34C946.882 1030.65 948.559 1006.87 948.585 972.379V972.372C948.661 917.282 944.896 893.97 927.49 841.677C894.61 742.91 822.583 657.395 733.718 611.258L707.595 597.703C704.456 596.074 702.348 592.974 701.986 589.456C701.625 585.938 703.059 582.474 705.802 580.241L718.94 569.543C718.94 569.543 718.941 569.542 718.942 569.542C745.088 548.241 768.942 510.809 779.753 473.348L361.158 569.543ZM361.158 569.543C335.011 548.243 311.157 510.81 300.345 473.348L361.158 569.543ZM404.457 251.246L404.453 251.248C353.023 276.556 320.566 314.512 301.82 371.863C298.762 381.24 297.183 387.123 296.267 393.902C295.326 400.864 295.04 409.083 294.962 423.201C294.835 449.053 295.892 457.857 300.344 473.346L404.457 251.246ZM404.457 251.246L429.127 239.093C431.844 237.754 433.851 235.308 434.632 232.382M404.457 251.246L434.632 232.382M434.632 232.382C435.413 229.456 434.893 226.335 433.204 223.821M434.632 232.382L433.204 223.821M433.204 223.821L422.226 207.47C401.869 177.079 395.64 140.808 404.733 107.151L404.735 107.144M433.204 223.821L404.735 107.144M404.735 107.144C414.963 69.1932 435.014 44.7854 470.133 27.4815L470.135 27.4803M404.735 107.144L470.135 27.4803M470.135 27.4803C516.056 4.8399 564.042 4.8399 609.963 27.4803L609.965 27.4815M470.135 27.4803L609.965 27.4815M609.965 27.4815C645.084 44.7855 665.135 69.1932 675.363 107.144L675.365 107.151M609.965 27.4815L675.365 107.151M675.365 107.151C684.457 140.804 678.23 177.071 657.879 207.46M675.365 107.151L657.879 207.46M645.466 232.382C644.685 229.456 645.206 226.335 646.894 223.821L657.872 207.47C657.874 207.466 657.877 207.463 657.879 207.46M645.466 232.382L657.879 207.46M645.466 232.382C646.248 235.308 648.254 237.754 650.971 239.093M645.466 232.382L650.971 239.093M650.971 239.093L675.641 251.246L675.646 251.248M650.971 239.093L675.646 251.248M675.646 251.248C727.075 276.556 759.532 314.512 778.278 371.863M675.646 251.248L778.278 371.863M778.278 371.863C781.336 381.24 782.915 387.123 783.831 393.902M778.278 371.863L783.831 393.902M783.831 393.902C784.772 400.863 785.058 409.081 785.136 423.194M783.831 393.902L785.136 423.194M785.136 423.194C785.263 449.051 784.207 457.856 779.754 473.346L785.136 423.194Z" fill="white" stroke="black" stroke-width="21" stroke-linejoin="round"/>
</g>
<defs>
<clipPath id="clip0_127_77">
<rect width="1080" height="1080" fill="white"/>
</clipPath>
</defs>
</svg>
