<svg width="1080" height="1080" viewBox="0 0 1080 1080" fill="none" xmlns="http://www.w3.org/2000/svg">
<path d="M324.771 713.242C324.781 713.346 324.794 713.45 324.809 713.553C329.411 744.966 320.653 773.394 306.474 800.943C299.376 814.734 290.985 828.182 282.318 841.624C280.458 844.509 278.583 847.398 276.705 850.29C269.928 860.729 263.122 871.211 256.934 881.683C236.027 912.182 223.818 952.822 235.1 988.265C211.799 993.662 200.721 1015.46 201.707 1034.94C202.262 1045.89 206.583 1056.83 215.231 1064.33C223.908 1071.86 236.163 1075.24 251.229 1072.62C384.585 1073.88 517.983 1072.09 651.273 1070.31C682.417 1069.89 713.556 1069.47 744.687 1069.09C745.165 1069.09 745.914 1069.09 746.902 1069.09C754.498 1069.1 776.242 1069.14 798.193 1066.17C810.579 1064.5 823.428 1061.82 834.044 1057.46C844.426 1053.19 854.116 1046.71 857.829 1036.53C861.974 1025.17 861.503 1016.06 857.05 1008.71C852.912 1001.88 845.935 997.724 840.239 994.587C839.181 994.004 838.165 993.454 837.191 992.927C832.344 990.302 828.541 988.242 825.79 985.541C824.312 984.088 823.396 982.659 822.915 981.107C822.435 979.562 822.25 977.451 822.911 974.424C822.955 974.222 822.989 974.019 823.014 973.814C827.583 935.84 814.651 902.621 797.765 871.765C791.283 859.92 784.108 848.236 777.053 836.749C774.943 833.314 772.844 829.896 770.778 826.496C761.762 811.665 753.288 797.066 746.676 782.187C746.478 781.677 746.28 781.166 746.08 780.653C739.255 763.095 731.507 743.164 729.231 724.062C726.913 704.603 730.391 687.184 745.542 674.249C745.939 673.91 746.294 673.525 746.598 673.101C754.989 661.438 757.959 651.284 754.239 642.315C750.821 634.073 742.485 629.196 735.605 625.605C733.642 624.581 731.729 623.627 729.88 622.705C724.445 619.995 719.553 617.556 715.515 614.379C710.61 610.519 708.034 606.351 708.502 600.145C708.523 599.859 708.526 599.572 708.509 599.285C706.005 555.571 698.5 512.188 691.071 469.24C687.224 447.001 683.397 424.879 680.295 402.887C679.837 394.608 679.158 386.387 678.48 378.184C677.297 363.861 676.119 349.598 676.132 335.194C676.151 313.251 679.019 292.402 688.7 273.681C702.881 261.843 710.045 246.417 716.056 232.705C716.393 231.937 716.725 231.177 717.055 230.423C722.977 216.876 727.855 205.717 736.766 198.124C737.738 197.297 738.444 196.201 738.797 194.974C745.654 171.148 748.93 137.371 750.433 104.038C751.943 70.5608 751.682 36.9724 751.279 13.2716C751.218 9.72537 748.326 6.88221 744.78 6.88218L734.893 6.88207C719.801 6.88191 714.906 6.88185 698.34 6.88293C695.364 6.88312 692.768 8.90489 692.039 11.7906C686.57 33.4327 679.871 50.2762 673.174 61.7806C669.821 67.5395 666.577 71.7739 663.641 74.5931C660.638 77.4761 658.411 78.4515 657.093 78.6448C656.163 78.7812 655.219 78.6339 653.932 77.3346C652.418 75.8065 650.609 72.776 649.061 67.4428C645.977 56.8167 644.569 39.323 646.367 13.8395C646.494 12.0406 645.868 10.2698 644.638 8.95056C643.409 7.63129 641.686 6.88209 639.883 6.88209H639.511H639.139H638.768H638.398H638.028H637.659H637.291H636.923H636.555H636.188H635.822H635.456H635.091H634.726H634.362H633.998H633.635H633.273H632.911H632.549H632.188H631.828H631.468H631.109H630.75H630.392H630.034H629.677H629.32H628.964H628.609H628.253H627.899H627.545H627.191H626.838H626.485H626.133H625.782H625.431H625.08H624.73H624.38H624.031H623.682H623.334H622.986H622.639H622.292H621.946H621.6H621.255H620.91H620.565H620.221H619.878H619.535H619.192H618.85H618.508H618.167H617.826H617.486H617.146H616.806H616.467H616.129H615.79H615.453H615.115H614.778H614.442H614.106H613.77H613.435H613.1H612.765H612.431H612.098H611.765H611.432H611.099H610.767H610.436H610.104H609.773H609.443H609.113H608.783H608.454H608.125H607.796H607.468H607.14H606.813H606.486H606.159H605.833H605.507H605.181H604.856H604.531H604.206H603.882H603.558H603.234H602.911H602.588H602.266H601.943H601.621H601.3H600.979H600.658H600.337H600.017H599.697H599.377H599.058H598.739H598.42H598.102H597.784H597.466H597.149H596.832H596.515H596.198H595.882H595.566H595.25H594.935H594.62H594.305H593.99H593.676H593.362H593.048H592.734H592.421H592.108H591.795H591.483H591.171H590.859H590.547H590.236H589.925H589.614H589.303H588.992H588.682H588.372H588.062H587.753H587.444H587.135H586.826H586.517H586.209H585.901H585.593H585.285H584.977H584.67H584.363H584.056H583.749H583.443H583.136H582.83H582.524H582.219H581.913H581.608H581.303H580.998H580.693H580.388H580.084H579.779H579.475H579.171H578.868H578.564H578.26H577.957H577.654H577.351H577.048H576.746H576.443H576.141H575.838H575.536H575.234H574.932H574.631H574.329H574.028H573.727H573.425H573.124H572.823H572.523H572.222H571.921H571.621H571.32H571.02H570.72H570.42H570.12H569.82H569.52H569.221H568.921H568.622H568.322H568.023H567.724H567.424H567.125H566.826H566.527H566.229H565.93H565.631H565.332H565.034H564.735H564.437H564.138H563.84H563.542H563.243H562.945H562.647H562.349H562.051H561.753H561.455H561.157H560.859H560.561H560.263H559.965H559.667H559.369H559.071H558.773H558.476H558.178H557.88H557.582H557.284H556.987H556.689H556.391H556.093H555.795H555.497H555.2H554.902H554.604H554.306H554.008H553.71H553.412H553.114H552.816H552.518H552.22H551.922H551.624H551.325H551.027H550.729H550.43H550.132H549.833H549.535H549.236H548.938H548.639H548.34H548.041H547.742H547.443H547.144H546.845H546.546H546.247H545.947H545.648H545.348H545.048H544.749H544.449H544.149H543.849H543.549H543.248H542.948H542.647H542.347H542.046H541.745H541.444H541.143H540.842H540.541H540.239H539.938H539.636H539.334H539.032H538.73H538.428H538.126H537.823H537.52H537.218H536.915H536.612H536.308H536.005H535.701H535.397H535.093H534.789H534.485H534.181H533.876H533.571H533.266H532.961H532.656H532.35H532.044H531.738H531.432H531.126H530.819H530.513H530.206H529.899H529.591H529.284H528.976H528.668H528.36H528.052H527.743H527.434H527.125H526.816H526.506H526.197H525.887H525.576H525.266H524.955H524.644H524.333H524.022H523.71H523.398H523.086H522.773H522.461H522.148H521.834H521.521H521.207H520.893H520.579H520.264H519.949H519.634H519.319H519.003H518.687H518.371H518.054H517.737H517.42H517.103H516.785H516.467H516.148H515.83H515.511H515.191H514.872H514.552H514.232H513.911H513.59H513.269H512.947H512.625H512.303H511.981H511.658H511.334H511.011H510.687H510.363H510.038H509.713H509.388H509.062H508.736H508.41H508.083H507.756H507.429H507.101H506.772H506.444H506.115H505.786H505.456H505.126H504.795H504.464H504.133H503.802H503.469H503.137H502.804H502.471H502.137H501.803H501.469H501.134H500.799H500.463H500.127H499.79H499.453H499.116H498.778H498.44H498.101H497.762H497.423H497.083H496.742H496.402H496.06H495.719H495.376H495.034H494.691H494.347H494.003H493.659H493.314H492.969H492.623H492.276H491.93H491.582H491.235H490.886H490.538H490.189H489.839H489.489H489.138H488.787H488.435H488.083H487.731H487.378H487.024H486.67H486.315H485.96H485.604H485.248H484.892H484.534H484.177H483.819H483.46H483.1H482.741H482.38H482.019H481.658H481.296H480.934H480.57H480.207H479.843H479.478H479.113H478.747H478.381H478.014H477.646H477.278H476.91H476.54H476.171H475.8H475.429H475.058H474.686C474.49 6.88209 474.295 6.89091 474.1 6.90852C469.011 7.36886 465.237 7.11546 461.37 6.8558C460.264 6.78157 459.151 6.70683 457.997 6.64811C452.719 6.37946 447.297 6.55024 440.41 9.284C437.834 10.3064 436.19 12.8496 436.314 15.6182C437.61 44.3518 434.966 60.4083 431.207 68.1256C429.396 71.8446 427.772 72.7309 427.066 72.9505C426.379 73.1641 425.015 73.2264 422.629 71.8178C417.602 68.8489 411.468 61.2562 406.52 50.8408C401.668 40.6264 398.515 28.8578 398.548 18.6133C398.556 16.1406 397.16 13.8776 394.947 12.7748C383.754 7.19748 371.627 6.37209 360.287 6.51418C356.214 6.56521 352.337 6.72877 348.583 6.88708C341.368 7.19145 334.612 7.47642 327.815 6.90495C324.319 6.61101 321.221 9.14436 320.814 12.629C315.299 59.9168 313.591 107.859 318.608 155.546C316.232 181.852 327.227 201.951 340.17 219.788C343.431 224.282 346.855 228.684 350.24 233.006C350.643 233.521 351.046 234.035 351.448 234.548C354.439 238.363 357.382 242.117 360.229 245.926C366.649 254.51 372.354 263.072 376.442 272.265C389.776 308.115 390.269 345.576 385.804 383.791C383.568 402.93 380.105 422.142 376.439 441.38C375.749 445.006 375.05 448.635 374.351 452.265C371.391 467.644 368.429 483.036 366.043 498.214C359.77 517.035 358.566 538.111 357.438 557.861C357.324 559.86 357.21 561.846 357.092 563.814C355.875 584.157 354.192 602.65 347.552 617.813C332.957 616.473 322.091 618.61 315.27 625.23C307.603 632.672 307.276 643.567 308.753 653.353C310.186 662.846 313.675 673.497 316.915 683.387C317.098 683.945 317.279 684.5 317.46 685.052C320.97 695.783 324.01 705.436 324.771 713.242Z" fill="white" stroke="black" stroke-width="13" stroke-linecap="round" stroke-linejoin="round"/>
</svg>
