<svg width="1080" height="1080" viewBox="0 0 1080 1080" fill="none" xmlns="http://www.w3.org/2000/svg">
<g clip-path="url(#clip0_103_61)">
<path d="M543.957 0C495.829 0 457.326 38.5029 457.326 86.6311C457.326 109.733 466.952 130.909 480.428 146.31C468.877 169.412 457.326 192.514 447.701 202.14C436.15 217.541 424.599 231.016 418.824 240.642C522.781 352.3 601.711 548.663 595.936 617.968C551.657 548.663 362.995 365.776 318.717 354.225C249.412 444.707 210.909 569.839 228.235 641.069C253.262 712.299 299.465 783.53 351.444 837.434C314.866 895.188 272.513 925.99 207.058 951.017C137.753 976.044 108.877 991.444 99.2512 1006.84C91.5506 1018.4 80 1068.45 80 1080C80 1080 1002.14 1080 1000.21 1080C1000.21 1068.45 988.664 1018.4 980.963 1006.84C971.338 991.444 942.46 976.044 873.155 951.017C805.776 925.99 763.423 891.338 724.92 831.659C763.423 789.305 803.851 743.102 830.803 698.824C888.557 579.466 848.129 446.632 694.118 267.594C645.989 211.765 607.486 161.711 605.561 157.861C605.561 157.861 603.637 152.085 601.712 150.16C619.038 134.759 630.588 111.658 630.588 86.6311C630.588 38.5029 592.086 0 543.957 0V0Z" fill="black"/>
<path d="M592.286 162.307C592.494 162.929 592.746 163.535 593.039 164.122C593.904 165.851 595.53 168.11 596.589 169.579C598.013 171.554 599.938 174.142 602.289 177.241C607.001 183.453 613.566 191.902 621.555 201.949C637.535 222.044 659.307 248.655 683.504 276.724C836.464 454.54 871.936 580.951 818.492 692.122C792.326 734.934 752.952 780.011 714.561 822.241C710.292 826.937 709.716 833.916 713.156 839.248C753.266 901.419 798.014 938.042 868.281 964.141C868.321 964.156 868.36 964.17 868.4 964.185C902.914 976.648 926.742 986.5 942.969 994.956C959.531 1003.59 966.338 1009.86 969.091 1014.26C969.164 1014.38 969.238 1014.5 969.315 1014.61C970.088 1015.77 971.765 1019.43 973.938 1025.95C975.958 1032.01 978.026 1039.34 979.895 1046.82C981.575 1053.54 983.056 1060.22 984.17 1066H983.848H983.053H982.24H981.409H980.561H979.695H978.812H977.912H976.995H976.06H975.109H974.14H973.155H972.153H971.134H970.098H969.046H967.978H966.893H965.792H964.675H963.542H962.392H961.227H960.046H958.849H957.636H956.407H955.164H953.904H952.63H951.34H950.034H948.714H947.379H946.028H944.663H943.283H941.888H940.479H939.055H937.617H936.164H934.697H933.216H931.72H930.211H928.688H927.15H925.599H924.034H922.456H920.864H919.258H917.639H916.007H914.362H912.703H911.032H909.347H907.649H905.939H904.216H902.48H900.732H898.971H897.198H895.413H893.615H891.805H889.983H888.149H886.303H884.446H882.576H880.695H878.803H876.898H874.983H873.056H871.118H869.169H867.208H865.237H863.255H861.262H859.258H857.243H855.218H853.182H851.136H849.08H847.013H844.937H842.85H840.753H838.646H836.529H834.403H832.267H830.121H827.966H825.801H823.627H821.444H819.251H817.05H814.839H812.62H810.391H808.154H805.908H803.654H801.391H799.12H796.84H794.552H792.256H789.951H787.639H785.319H782.99H780.654H778.311H775.96H773.601H771.235H768.861H766.48H764.092H761.697H759.295H756.885H754.469H752.046H749.617H747.181H744.738H742.289H739.833H737.371H734.903H732.429H729.949H727.463H724.97H722.472H719.969H717.46H714.945H712.425H709.899H707.368H704.832H702.29H699.744H697.193H694.636H692.075H689.51H686.939H684.364H681.785H679.201H676.613H674.02H671.424H668.823H666.219H663.61H660.998H658.382H655.762H653.139H650.512H647.882H645.248H642.611H639.971H637.329H634.683H632.034H629.382H626.728H624.07H621.411H618.748H616.084H613.417H610.748H608.076H605.403H602.727H600.05H597.371H594.69H592.007H589.323H586.637H583.95H581.262H578.572H575.881H573.189H570.496H567.802H565.107H562.412H559.715H557.018H554.321H551.623H548.925H546.227H543.528H540.829H538.13H535.432H532.733H530.035H527.337H524.639H521.942H519.245H516.549H513.854H511.16H508.466H505.774H503.082H500.392H497.703H495.015H492.328H489.643H486.96H484.278H481.598H478.919H476.243H473.568H470.896H468.225H465.557H462.891H460.228H457.567H454.908H452.252H449.599H446.949H444.301H441.657H439.015H436.377H433.741H431.109H428.481H425.856H423.234H420.616H418.002H415.391H412.784H410.182H407.583H404.988H402.398H399.812H397.23H394.653H392.08H389.511H386.948H384.389H381.835H379.286H376.742H374.203H371.669H369.141H366.618H364.1H361.588H359.081H356.58H354.085H351.595H349.112H346.635H344.163H341.698H339.239H336.786H334.34H331.901H329.467H327.041H324.621H322.208H319.802H317.403H315.012H312.627H310.249H307.879H305.516H303.161H300.813H298.473H296.141H293.816H291.5H289.191H286.891H284.598H282.314H280.038H277.771H275.512H273.261H271.02H268.786H266.562H264.347H262.14H259.943H257.755H255.576H253.406H251.246H249.095H246.954H244.822H242.7H240.588H238.486H236.394H234.312H232.24H230.178H228.126H226.085H224.054H222.034H220.024H218.026H216.038H214.06H212.094H210.139H208.195H206.262H204.34H202.43H200.531H198.644H196.768H194.904H193.052H191.212H189.384H187.567H185.763H183.971H182.191H180.424H178.669H176.927H175.197H173.48H171.775H170.084H168.405H166.74H165.087H163.448H161.822H160.209H158.61H157.024H155.452H153.894H152.349H150.818H149.301H147.798H146.31H144.835H143.374H141.928H140.497H139.08H137.677H136.289H134.916H133.558H132.215H130.886H129.573H128.275H126.992H125.724H124.472H123.236H122.014H120.809H119.619H118.446H117.288H116.146H115.02H113.91H112.817H111.739H110.679H109.634H108.607H107.596H106.601H105.624H104.663H103.72H102.793H101.884H100.991H100.116H99.259H98.4189H97.5965H96.7916H96.0446C97.1582 1060.22 98.6399 1053.54 100.32 1046.82C102.188 1039.34 104.257 1032.01 106.276 1025.95C108.45 1019.43 110.126 1015.77 110.9 1014.61C110.976 1014.5 111.05 1014.38 111.123 1014.26C113.876 1009.86 120.684 1003.59 137.245 994.956C153.472 986.5 177.3 976.648 211.813 964.185C211.895 964.155 211.977 964.125 212.058 964.094C279.804 938.191 324.802 905.666 363.271 844.924C366.725 839.471 366.003 832.363 361.522 827.716C310.942 775.263 266.022 706.003 241.68 637.099C234.101 605.06 238.677 559.107 254.35 509.05C268.998 462.264 292.876 413.395 323.38 371.388C326.261 372.95 329.738 375.034 333.828 377.726C342.794 383.627 353.583 391.686 365.694 401.458C389.892 420.981 418.7 446.803 447.638 474.545C505.894 530.394 562.999 592.418 584.138 625.506C587.371 630.566 593.471 633.001 599.3 631.558C605.129 630.115 609.389 625.115 609.887 619.131C611.54 599.297 607.149 572.103 598.818 541.767C590.385 511.063 577.549 475.858 561.314 439.482C530.447 370.322 486.806 295.844 436.619 239.401C438.249 237.201 440.096 234.79 442.147 232.152C443.549 230.35 445.04 228.45 446.592 226.472C450.292 221.757 454.34 216.599 458.35 211.272C464.388 204.963 470.219 195.636 475.552 186.128C481.25 175.972 487.146 164.178 492.852 152.767L492.95 152.571C495.492 147.487 494.707 141.37 490.964 137.091C479.379 123.851 471.326 105.856 471.326 86.6311C471.326 46.2349 503.561 14 543.957 14C584.354 14 616.588 46.2348 616.588 86.6311C616.588 107.366 606.974 126.751 592.41 139.696C589.529 142.258 587.831 145.895 587.718 149.749C587.616 153.192 588.788 156.536 590.983 159.154C591.116 159.411 591.29 159.78 591.49 160.246C591.73 160.807 591.941 161.354 592.093 161.767C592.108 161.806 592.122 161.844 592.135 161.88C592.188 162.027 592.229 162.143 592.256 162.219C592.272 162.266 592.282 162.296 592.287 162.309L592.286 162.307ZM592.286 162.307C592.284 162.302 592.283 162.297 592.281 162.292L592.282 162.296L592.285 162.304L592.286 162.307ZM590.8 158.828C590.799 158.824 590.818 158.853 590.857 158.922C590.82 158.865 590.801 158.832 590.8 158.828Z" stroke="white" stroke-width="28" stroke-linecap="round" stroke-linejoin="round"/>
<path d="M487.136 149.664C488.498 146.94 488.077 143.663 486.072 141.372C473.609 127.128 464.826 107.656 464.826 86.6311C464.826 42.645 499.971 7.5 543.957 7.5C587.944 7.5 623.088 42.645 623.088 86.6311C623.088 109.359 612.575 130.469 596.729 144.554C595.185 145.927 594.276 147.875 594.215 149.94C594.156 151.937 594.897 153.872 596.267 155.318C596.301 155.369 596.405 155.522 596.569 155.817C596.852 156.328 597.161 156.979 597.464 157.686C597.761 158.378 598.013 159.034 598.193 159.52C598.281 159.761 598.349 159.953 598.393 160.078L598.42 160.156L598.44 160.213L598.446 160.232C598.446 160.232 598.446 160.233 598.446 160.233C598.446 160.233 598.447 160.234 598.447 160.234C598.447 160.234 598.447 160.234 598.447 160.234C598.447 160.235 598.447 160.235 598.447 160.235C598.559 160.571 598.695 160.898 598.853 161.215C599.428 162.365 600.676 164.133 601.861 165.778C603.242 167.693 605.132 170.235 607.467 173.313C612.142 179.476 618.676 187.884 626.643 197.903C642.577 217.942 664.297 244.488 688.432 272.485C841.884 450.873 879.65 580.263 824.208 695.233C797.678 738.725 757.815 784.325 719.371 826.613C717.084 829.129 716.775 832.868 718.618 835.724C757.982 896.738 801.617 932.446 870.544 958.048C870.565 958.055 870.587 958.063 870.608 958.071C905.186 970.557 929.347 980.528 945.973 989.192C962.778 997.949 970.894 1004.88 974.603 1010.82C974.642 1010.88 974.682 1010.94 974.723 1011.01C976.031 1012.97 977.935 1017.39 980.105 1023.9C982.192 1030.16 984.306 1037.66 986.201 1045.24C988.093 1052.81 989.743 1060.36 990.915 1066.69C991.312 1068.83 991.643 1070.78 991.908 1072.5H991.407H990.811H990.197H989.565H988.914H988.245H987.557H986.851H986.128H985.386H984.626H983.848H983.053H982.24H981.409H980.561H979.695H978.812H977.912H976.995H976.06H975.109H974.14H973.155H972.153H971.134H970.098H969.046H967.978H966.893H965.792H964.675H963.542H962.392H961.227H960.046H958.849H957.636H956.407H955.164H953.904H952.63H951.34H950.034H948.714H947.379H946.028H944.663H943.283H941.888H940.479H939.055H937.617H936.164H934.697H933.216H931.72H930.211H928.688H927.15H925.599H924.034H922.456H920.864H919.258H917.639H916.007H914.362H912.703H911.032H909.347H907.649H905.939H904.216H902.48H900.732H898.971H897.198H895.413H893.615H891.805H889.983H888.149H886.303H884.446H882.576H880.695H878.803H876.898H874.983H873.056H871.118H869.169H867.208H865.237H863.255H861.262H859.258H857.243H855.218H853.182H851.136H849.08H847.013H844.937H842.85H840.753H838.646H836.529H834.403H832.267H830.121H827.966H825.801H823.627H821.444H819.251H817.05H814.839H812.62H810.391H808.154H805.908H803.654H801.391H799.12H796.84H794.552H792.256H789.951H787.639H785.319H782.99H780.654H778.311H775.96H773.601H771.235H768.861H766.48H764.092H761.697H759.295H756.885H754.469H752.046H749.617H747.181H744.738H742.289H739.833H737.371H734.903H732.429H729.949H727.463H724.97H722.472H719.969H717.46H714.945H712.425H709.899H707.368H704.832H702.29H699.744H697.193H694.636H692.075H689.51H686.939H684.364H681.785H679.201H676.613H674.02H671.424H668.823H666.219H663.61H660.998H658.382H655.762H653.139H650.512H647.882H645.248H642.611H639.971H637.329H634.683H632.034H629.382H626.728H624.07H621.411H618.748H616.084H613.417H610.748H608.076H605.403H602.727H600.05H597.371H594.69H592.007H589.323H586.637H583.95H581.262H578.572H575.881H573.189H570.496H567.802H565.107H562.412H559.715H557.018H554.321H551.623H548.925H546.227H543.528H540.829H538.13H535.432H532.733H530.035H527.337H524.639H521.942H519.245H516.549H513.854H511.16H508.466H505.774H503.082H500.392H497.703H495.015H492.328H489.643H486.96H484.278H481.598H478.919H476.243H473.568H470.896H468.225H465.557H462.891H460.228H457.567H454.908H452.252H449.599H446.949H444.301H441.657H439.015H436.377H433.741H431.109H428.481H425.856H423.234H420.616H418.002H415.391H412.784H410.182H407.583H404.988H402.398H399.812H397.23H394.653H392.08H389.511H386.948H384.389H381.835H379.286H376.742H374.203H371.669H369.141H366.618H364.1H361.588H359.081H356.58H354.085H351.595H349.112H346.635H344.163H341.698H339.239H336.786H334.34H331.901H329.467H327.041H324.621H322.208H319.802H317.403H315.012H312.627H310.249H307.879H305.516H303.161H300.813H298.473H296.141H293.816H291.5H289.191H286.891H284.598H282.314H280.038H277.771H275.512H273.261H271.02H268.786H266.562H264.347H262.14H259.943H257.755H255.576H253.406H251.246H249.095H246.954H244.822H242.7H240.588H238.486H236.394H234.312H232.24H230.178H228.126H226.085H224.054H222.034H220.024H218.026H216.038H214.06H212.094H210.139H208.195H206.262H204.34H202.43H200.531H198.644H196.768H194.904H193.052H191.212H189.384H187.567H185.763H183.971H182.191H180.424H178.669H176.927H175.197H173.48H171.775H170.084H168.405H166.74H165.087H163.448H161.822H160.209H158.61H157.024H155.452H153.894H152.349H150.818H149.301H147.798H146.31H144.835H143.374H141.928H140.497H139.08H137.677H136.289H134.916H133.558H132.215H130.886H129.573H128.275H126.992H125.724H124.472H123.236H122.014H120.809H119.619H118.446H117.288H116.146H115.02H113.91H112.817H111.739H110.679H109.634H108.607H107.596H106.601H105.624H104.663H103.72H102.793H101.884H100.991H100.116H99.259H98.4189H97.5965H96.7916H96.0045H95.2352H94.4838H93.7504H93.035H92.3377H91.6587H90.9979H90.3556H89.7317H89.1264H88.5396H88.3065C88.5713 1070.78 88.9021 1068.83 89.2997 1066.69C90.4712 1060.36 92.1212 1052.81 94.0139 1045.24C95.9086 1037.66 98.0224 1030.16 100.11 1023.9C102.28 1017.39 104.183 1012.97 105.492 1011.01C105.532 1010.94 105.572 1010.88 105.611 1010.82C109.321 1004.88 117.436 997.949 134.241 989.192C150.867 980.528 175.028 970.557 209.606 958.071C209.65 958.055 209.693 958.039 209.737 958.022C276.419 932.526 320.189 900.801 357.78 841.447C359.63 838.525 359.243 834.717 356.843 832.228C305.612 779.1 260.096 708.923 235.436 638.938C227.357 605.246 232.264 557.838 248.147 507.108C263.509 458.039 288.874 406.728 321.378 363.142C325.46 364.946 330.819 367.964 337.401 372.297C346.607 378.356 357.576 386.556 369.776 396.399C394.163 416.076 423.115 442.031 452.136 469.853C510.383 525.693 568.012 588.192 589.615 622.006C591.347 624.717 594.615 626.022 597.738 625.249C600.861 624.475 603.143 621.797 603.41 618.591C604.966 599.921 600.826 573.622 592.55 543.489C584.219 513.158 571.505 478.265 555.378 442.131C523.971 371.76 479.346 296.07 428.286 239.853C430.653 236.442 433.606 232.546 437.017 228.161C438.451 226.317 439.962 224.392 441.526 222.399C445.285 217.608 449.351 212.427 453.395 207.046C458.882 201.412 464.467 192.603 469.883 182.948C475.505 172.927 481.345 161.247 487.081 149.774L487.136 149.664Z" stroke="black" stroke-width="15" stroke-linecap="round" stroke-linejoin="round"/>
</g>
<defs>
<clipPath id="clip0_103_61">
<rect width="1080" height="1080" fill="white"/>
</clipPath>
</defs>
</svg>
