<svg width="1080" height="1080" viewBox="0 0 1080 1080" fill="none" xmlns="http://www.w3.org/2000/svg">
<g clip-path="url(#clip0_103_75)">
<path d="M191.485 1022.61C255.602 1054.73 335.554 1074.39 424.832 1080L424.855 1080H655.145L655.168 1080C744.446 1074.39 824.398 1054.73 888.515 1022.61C916.192 1008.75 918.202 1007.19 915.167 979.337C914.782 975.806 913.198 972.511 911.142 969.614C897.164 949.915 851.875 860.533 1003.17 672.112L1003.66 671.431C1019.95 648.741 1057.22 596.836 1068.15 563.526C1073.86 546.11 1074.83 539.191 1074.98 514.603C1075.14 490.902 1074.2 482.879 1069.58 468.066C1059.97 437.299 1046.33 414.022 1026.26 394.085C999.148 367.172 973.407 353.793 932.452 345.333C858.754 330.11 759.346 337.091 668.641 413.114C655.054 424.503 643.357 433.24 642.646 432.53C641.937 431.821 643.719 420.207 646.607 406.72C660.216 343.177 653.489 293.602 625.705 252.686C612.558 233.324 599.296 222.284 575.759 211.111L565.252 206.122C559.626 203.452 556.08 197.74 556.182 191.513L557.073 137.213C557.212 128.736 563.984 121.863 572.458 121.598L618.299 120.165C626.873 119.897 633.685 112.869 633.685 104.289V101.668C633.685 93.0893 626.873 86.0605 618.299 85.7926L571.992 84.3454C563.709 84.0865 557.018 77.5033 556.623 69.2258L552.115 12.251C550.951 -2.44777 529.435 -2.50478 528.195 12.1876L523.377 69.2258C522.982 77.5033 516.291 84.0865 508.008 84.3454L461.701 85.7926C453.127 86.0605 446.315 93.0893 446.315 101.668V104.289C446.315 112.869 453.127 119.897 461.701 120.165L507.542 121.598C516.016 121.863 522.788 128.736 522.927 137.213L523.818 191.513C523.92 197.74 520.374 203.452 514.748 206.122L504.241 211.111C480.704 222.284 467.442 233.324 454.295 252.686C426.511 293.602 419.784 343.177 433.393 406.72C436.281 420.207 438.063 431.821 437.354 432.53C436.643 433.24 424.946 424.503 411.359 413.114C320.654 337.091 221.246 330.11 147.548 345.333C106.593 353.793 80.8516 367.172 53.745 394.085C33.6652 414.022 20.0344 437.299 10.4231 468.066C5.79565 482.879 4.86335 490.902 5.01514 514.603C5.17264 539.191 6.13983 546.11 11.853 563.526C22.7791 596.836 60.0481 648.741 76.3396 671.431L76.8287 672.112C228.125 860.533 182.836 949.915 168.858 969.614C166.802 972.511 165.218 975.806 164.834 979.337C161.798 1007.19 163.808 1008.75 191.485 1022.61Z" fill="black"/>
<path d="M654.65 1064.5H425.35C337.837 1058.95 260.175 1039.68 198.426 1008.76C191.317 1005.2 186.73 1002.85 183.456 1000.79C180.261 998.788 179.711 997.89 179.702 997.876C179.699 997.872 179.697 997.869 179.695 997.865C179.693 997.86 179.69 997.854 179.685 997.844C179.677 997.825 179.645 997.749 179.603 997.591C179.512 997.256 179.37 996.541 179.309 995.2C179.177 992.27 179.475 988.063 180.242 981.016C180.242 981.015 180.248 980.964 180.277 980.858C180.307 980.75 180.36 980.589 180.454 980.371C180.647 979.923 180.976 979.321 181.499 978.584L168.858 969.614L181.499 978.584C190.481 965.926 206.561 934.849 200.209 882.275C193.915 830.175 165.748 758.179 89.1766 662.734L88.9301 662.391C80.7753 651.033 67.6187 632.705 55.1589 613.136C42.4921 593.243 31.3881 573.351 26.5809 558.695L11.8632 563.523L26.5808 558.695C23.8345 550.323 22.4898 545.249 21.7015 539.609C20.8814 533.742 20.5934 526.772 20.5148 514.504C20.3685 491.653 21.2494 485.392 25.218 472.688C34.1823 443.992 46.6134 423.008 64.6659 405.084C89.4366 380.491 112.384 368.424 150.684 360.513C220.774 346.034 315.066 352.632 401.403 424.994C408.348 430.815 414.903 436.037 419.909 439.777C422.369 441.614 424.682 443.265 426.576 444.471C427.444 445.024 428.692 445.786 430.039 446.414C430.615 446.683 432.004 447.31 433.805 447.701C434.695 447.894 436.451 448.205 438.652 448.006C440.861 447.806 444.849 446.947 448.301 443.503L448.315 443.49C451.763 440.041 452.525 436.01 452.651 435.341C452.656 435.317 452.66 435.297 452.663 435.282C452.92 433.984 452.978 432.878 452.997 432.279C453.039 431.005 452.964 429.768 452.891 428.853C452.734 426.909 452.424 424.547 452.043 422.065C451.268 417.014 450.039 410.432 448.549 403.474L433.393 406.72L448.549 403.474C435.535 342.709 442.391 297.808 467.118 261.393C478.544 244.566 489.556 235.24 510.888 225.113L521.396 220.125C532.512 214.847 539.517 203.561 539.316 191.259L538.425 136.959C538.15 120.21 524.77 106.629 508.026 106.105L462.186 104.673C462.108 104.67 462.07 104.657 462.045 104.645C462.011 104.63 461.966 104.602 461.923 104.557C461.88 104.512 461.853 104.467 461.838 104.432C461.828 104.406 461.815 104.367 461.815 104.289V101.668C461.815 101.591 461.828 101.552 461.838 101.526C461.853 101.491 461.88 101.446 461.923 101.401C461.967 101.356 462.011 101.328 462.045 101.313C462.07 101.301 462.108 101.287 462.186 101.285L508.493 99.8378C524.748 99.3298 537.902 86.493 538.842 70.2941L540.038 56.1303L541.155 70.2472C542.073 86.4682 555.236 99.3293 571.507 99.8378L617.815 101.285C617.892 101.287 617.93 101.301 617.955 101.313C617.989 101.328 618.033 101.356 618.077 101.401C618.12 101.446 618.147 101.491 618.162 101.526C618.172 101.552 618.185 101.591 618.185 101.668V104.289C618.185 104.367 618.172 104.406 618.162 104.432C618.155 104.447 618.146 104.465 618.135 104.484C618.12 104.507 618.101 104.532 618.077 104.557C618.034 104.602 617.989 104.63 617.955 104.645C617.93 104.657 617.892 104.67 617.815 104.673L571.974 106.105C555.23 106.629 541.85 120.21 541.575 136.959L540.684 191.258C540.483 203.561 547.488 214.847 558.604 220.125L569.112 225.113C590.444 235.24 601.456 244.566 612.882 261.393C637.609 297.808 644.465 342.709 631.451 403.474C629.961 410.431 628.732 417.014 627.957 422.065C627.576 424.547 627.266 426.909 627.109 428.853C627.036 429.768 626.961 431.005 627.003 432.279C627.022 432.878 627.08 433.984 627.337 435.282L627.349 435.342C627.475 436.01 628.237 440.042 631.685 443.49L631.699 443.504C635.151 446.947 639.139 447.806 641.348 448.006C643.549 448.205 645.305 447.894 646.195 447.701C647.996 447.31 649.385 446.683 649.961 446.414C651.308 445.786 652.556 445.024 653.424 444.471C655.318 443.265 657.631 441.614 660.091 439.777C665.097 436.037 671.652 430.815 678.597 424.994C764.934 352.632 859.226 346.034 929.317 360.513C967.616 368.424 990.563 380.491 1015.33 405.084C1033.39 423.008 1045.82 443.992 1054.78 472.688C1058.75 485.392 1059.63 491.653 1059.49 514.504C1059.41 526.772 1059.12 533.742 1058.3 539.609C1057.51 545.249 1056.17 550.323 1053.42 558.695L1068.15 563.526L1053.42 558.695C1048.61 573.351 1037.51 593.243 1024.84 613.136C1012.38 632.704 999.225 651.033 991.07 662.39C991.07 662.39 991.07 662.391 991.07 662.391L990.823 662.734C914.252 758.179 886.085 830.175 879.791 882.275C873.439 934.849 889.519 965.926 898.501 978.584L911.142 969.614L898.501 978.584C899.024 979.322 899.353 979.923 899.546 980.371C899.64 980.589 899.693 980.75 899.723 980.858C899.733 980.896 899.741 980.927 899.746 980.952C899.755 980.994 899.758 981.015 899.758 981.016C900.526 988.063 900.823 992.27 900.691 995.2C900.63 996.541 900.488 997.256 900.398 997.591C900.355 997.749 900.323 997.825 900.315 997.844C900.307 997.862 900.304 997.867 900.298 997.876C900.29 997.89 899.74 998.788 896.544 1000.79C893.27 1002.85 888.683 1005.2 881.574 1008.76C819.825 1039.68 742.163 1058.95 654.65 1064.5Z" stroke="white" stroke-width="31" stroke-linejoin="round"/>
<path d="M654.871 1071.5H425.129C336.813 1065.92 258.112 1046.48 195.291 1015.01C188.268 1011.5 183.352 1008.99 179.735 1006.72C176.162 1004.48 174.618 1002.92 173.804 1001.65C173.072 1000.5 172.468 998.868 172.317 995.517C172.156 991.977 172.52 987.267 173.284 980.258C173.46 978.635 174.25 976.705 175.79 974.533C183.872 963.143 199.382 933.786 193.26 883.114C187.17 832.703 159.754 761.856 83.6002 666.969L83.2441 666.473C75.0934 655.122 61.8313 636.648 49.2542 616.896C36.5637 596.965 25.033 576.435 19.9296 560.877L11.853 563.526L19.9295 560.877C17.1334 552.353 15.6418 546.823 14.7689 540.578C13.8786 534.208 13.5936 526.829 13.515 514.549C13.3662 491.314 14.2703 484.257 18.5364 470.601C27.7929 440.97 40.7658 418.95 59.7339 400.117C85.5595 374.476 109.769 361.817 149.267 353.658C220.987 338.842 317.589 345.614 405.899 419.629C412.776 425.392 419.225 430.529 424.098 434.169C426.511 435.971 428.662 437.5 430.337 438.567C431.131 439.072 432.072 439.639 432.998 440.07C433.407 440.261 434.245 440.634 435.291 440.861C435.807 440.973 436.795 441.146 438.021 441.035C439.252 440.923 441.454 440.446 443.357 438.548L443.365 438.54C445.278 436.626 445.71 434.373 445.789 433.959L445.796 433.922C445.949 433.153 445.987 432.471 446.001 432.049C446.03 431.165 445.979 430.231 445.913 429.414C445.777 427.716 445.495 425.544 445.124 423.127C444.375 418.245 443.173 411.801 441.704 404.94C428.421 342.921 435.219 295.909 461.327 257.461C473.53 239.489 485.558 229.389 507.886 218.789L518.394 213.801C527.03 209.701 532.473 200.932 532.317 191.373L531.425 137.074C531.212 124.061 520.817 113.509 507.808 113.102L461.967 111.669C457.982 111.545 454.815 108.278 454.815 104.289V101.668C454.815 97.6799 457.982 94.4129 461.967 94.2884L508.274 92.8412C520.932 92.4456 531.169 82.4284 531.859 69.8026L536.664 12.903C536.788 11.4352 537.314 10.8096 537.715 10.4771C538.238 10.044 539.097 9.69475 540.161 9.69756C541.226 9.70038 542.083 10.0542 542.603 10.4901C543.003 10.8247 543.525 11.4531 543.641 12.9215L548.14 69.7775C548.818 82.4151 559.06 92.4454 571.726 92.8412L618.033 94.2884C622.018 94.4129 625.185 97.6799 625.185 101.668V104.289C625.185 108.278 622.018 111.545 618.033 111.669L572.192 113.102C559.183 113.509 548.788 124.061 548.575 137.074L547.683 191.373C547.527 200.932 552.97 209.701 561.606 213.801L572.114 218.789C594.442 229.389 606.47 239.489 618.673 257.461C644.78 295.909 651.579 342.921 638.296 404.94C636.827 411.801 635.625 418.245 634.876 423.127C634.505 425.544 634.223 427.716 634.087 429.414C634.021 430.231 633.97 431.165 633.999 432.049C634.013 432.471 634.051 433.153 634.204 433.922L634.211 433.959C634.29 434.374 634.722 436.627 636.635 438.54L636.643 438.548C638.546 440.446 640.748 440.923 641.979 441.035C643.205 441.146 644.193 440.973 644.709 440.861C645.755 440.634 646.593 440.261 647.002 440.07C647.928 439.639 648.869 439.072 649.663 438.567C651.338 437.5 653.489 435.971 655.902 434.169C660.775 430.529 667.224 425.392 674.101 419.629C762.411 345.614 859.013 338.842 930.733 353.658C970.231 361.817 994.44 374.476 1020.27 400.117C1039.23 418.95 1052.21 440.97 1061.46 470.601C1065.73 484.257 1066.63 491.314 1066.48 514.549C1066.41 526.829 1066.12 534.208 1065.23 540.578C1064.36 546.823 1062.87 552.353 1060.07 560.877C1054.97 576.435 1043.44 596.965 1030.75 616.896C1018.17 636.648 1004.91 655.122 996.756 666.473L996.4 666.969C920.246 761.856 892.83 832.703 886.74 883.114C880.618 933.786 896.128 963.143 904.21 974.533C905.75 976.705 906.54 978.635 906.716 980.258C907.48 987.267 907.844 991.977 907.683 995.517C907.532 998.868 906.928 1000.5 906.196 1001.65C905.382 1002.92 903.838 1004.48 900.265 1006.72C896.648 1008.99 891.732 1011.5 884.709 1015.01C821.888 1046.48 743.187 1065.92 654.871 1071.5Z" stroke="black" stroke-width="17" stroke-linejoin="round"/>
</g>
<defs>
<clipPath id="clip0_103_75">
<rect width="1080" height="1080" fill="white"/>
</clipPath>
</defs>
</svg>
