<svg width="1082" height="1080" viewBox="0 0 1082 1080" fill="none" xmlns="http://www.w3.org/2000/svg">
<path d="M308.281 1077.39C288.77 1067.58 285.873 1009.69 302.413 960.635C316.563 918.715 332.887 896.562 395.283 834.607C451.498 778.787 466.469 760.408 483.951 725.791C504.839 684.48 513.049 651.786 515.246 601.516C516.019 583.77 516.067 569.261 515.367 569.261C514.666 569.261 502.81 576.199 489.046 584.695C475.283 593.166 444.302 610.207 420.179 622.549C328.661 669.387 314.294 683.141 273.461 762.988C265.879 777.813 254.819 796.193 248.855 803.837C229.827 828.302 199.209 846.779 177.742 846.779C168.58 846.779 151.793 840.425 142.9 833.585C138.754 830.396 133.4 823.409 131.003 818.054C127.059 809.217 125.586 808.146 115.437 806.636C46.1207 796.339 -3.0356 735.553 2.41199 666.855C5.91574 622.695 25.627 578.536 75.1962 503.825C109.12 452.703 122.908 427.897 132.367 400.997C137.269 387.048 137.839 380.841 137.93 340.43L138.034 295.394L145.855 278.743C152.373 264.867 159.231 256.541 186.966 228.838C205.269 210.556 223.38 190.886 227.243 185.117L234.246 174.649L228.934 107.217C221.641 14.268 221.617 14.509 236.612 8.15525C246.827 3.82693 246.32 3.58592 323.518 50.4111C359.135 72.0137 389.101 89.6896 390.116 89.6896C391.13 89.6896 410.206 69.9956 432.518 45.9245C466.131 9.65481 474.51 1.88674 481.44 0.577044C496.194 -2.21275 499.671 2.76554 529.686 69.2726L557.214 130.239L572.185 128.026C593.7 124.849 646.075 127.651 673.265 133.43C722.67 143.925 771.712 165.335 811.41 193.735C837.924 212.698 880.616 256.225 900.368 284.439C943.084 345.42 974.041 413.656 1002.41 509.424C1051.12 673.841 1081.13 866.108 1081.93 1018.91C1082.17 1067.04 1082.08 1068.26 1076.69 1073.69L1071.18 1079.26L692.751 1079.85C394.172 1080.31 313.038 1079.8 308.281 1077.39V1077.39Z" fill="black"/>
<path d="M1045.74 1039.54C1052.84 1032.41 1052.84 1042.09 1045.2 944.392C1030.94 761.883 986.782 547.098 937.999 422.973C923.721 386.634 896.491 334.666 877.641 307.79C837.19 250.1 777.053 202.887 715.884 180.742C679.217 167.455 650.808 160.813 606.744 161.041C580.398 161.177 566.879 161.599 554.96 164.093C544.884 166.196 533.306 170.452 531.758 169.858C530.185 169.239 521.281 149.618 510.738 126.2C500.195 102.78 487.657 53.2636 484.29 45.8622L479.358 36L430.864 98.5446L400.13 128.165L334.211 174.071L260.44 201.156L243.934 221.062C235.062 233.001 215.728 251.115 202.138 263.748C165.692 297.634 170.55 292.853 170.328 344.946C170.181 382.25 169.395 390.87 164.676 406.872C155.372 438.405 132.591 476.748 97.4259 529.707C58.8494 587.794 40.7809 626.411 35.0498 653.584C30.1789 676.67 31.6649 706.545 38.4405 721.754C50.4039 748.63 79.8038 769.934 108.648 772.659L124.428 774.145L140.889 752.124C149.943 740.036 159.758 728.764 162.703 727.13C174.605 720.417 187.433 724.677 192.569 737.038C196.919 747.417 194.757 752.421 173.892 780.437C164.43 793.119 157.048 805.38 157.48 807.684C158.906 815.264 174.187 814.372 185.59 806.049C201.367 794.531 211.91 779.643 233.34 738.648C244.326 717.618 258.113 693.615 263.986 685.317C286.522 653.437 320.535 628.617 391.313 592.353C460.961 556.684 522.547 517.101 540.733 496.318C562.163 471.82 571.256 443.26 569.118 407.045C567.521 379.897 570.249 371.797 582.389 367.536C588.533 365.381 591.802 365.604 598.265 368.701C608.538 373.63 611.708 382.151 613.404 409.423C616.009 451.038 597.503 500.207 567.767 530.7L551.448 547.444L553.414 563.223C556.363 586.755 553.414 640.235 547.762 665.724C536.605 715.958 510.553 763.791 483.102 801.566C474.967 812.787 445.609 843.474 415.946 873C363.035 925.687 349.76 945.356 337.742 971.861C330.075 988.705 326.679 1015.63 326.605 1035.42L326.581 1050.91H674.179C903.249 1050.91 1022.29 1051.75 1023.3 1053.38C1026.28 1058.24 1039.35 1045.98 1045.74 1039.54Z" stroke="black" stroke-width="18" stroke-linejoin="round"/>
<path d="M488.762 43.6258C488.79 43.6807 488.816 43.736 488.842 43.7919C489.86 46.0303 491.385 50.9221 493.15 56.808C494.03 59.7434 494.925 62.7766 495.878 66.0094C497.014 69.8613 498.234 73.9964 499.612 78.5863C504.5 94.8684 510.183 112.786 515.297 124.148C520.573 135.867 525.415 146.582 529.132 154.441C530.994 158.38 532.543 161.534 533.706 163.718C533.852 163.992 533.989 164.245 534.116 164.478C535.357 164.162 536.922 163.717 538.777 163.183C539.065 163.099 539.36 163.014 539.66 162.928C543.818 161.728 549.032 160.223 553.938 159.199C566.44 156.583 580.483 156.177 606.718 156.041C651.487 155.809 680.487 162.597 717.588 176.042C779.802 198.565 840.744 246.46 881.735 304.919C900.85 332.174 928.256 384.505 942.653 421.144C991.67 545.865 1035.9 761.17 1050.18 944.003M488.762 43.6258L1045.2 944.392M488.762 43.6258L483.83 33.7635C483.061 32.2265 481.557 31.1919 479.847 31.0239C478.136 30.856 476.46 31.5781 475.407 32.9363L427.134 95.1953M488.762 43.6258L427.134 95.1953M1050.18 944.003L1045.2 944.392M1050.18 944.003C1050.18 944.003 1050.18 944.003 1050.18 944.003L1045.2 944.392M1050.18 944.003C1050.87 952.816 1051.5 960.766 1052.07 967.939C1054.63 1000.37 1055.94 1016.95 1056 1025.9C1056.03 1031.22 1055.67 1034.92 1054.12 1037.79C1053.3 1039.3 1052.29 1040.33 1051.45 1041.1C1051.08 1041.43 1050.8 1041.68 1050.54 1041.91C1050.12 1042.27 1049.78 1042.57 1049.28 1043.07M1045.2 944.392C1051.43 1023.98 1052.58 1032.31 1048.95 1036.52C1048.13 1037.48 1047.06 1038.22 1045.74 1039.54M1049.28 1043.07C1049.28 1043.07 1049.29 1043.07 1049.29 1043.06L1045.74 1039.54M1049.28 1043.07C1046.06 1046.32 1040.97 1051.22 1036.2 1054.73C1033.88 1056.43 1031.24 1058.11 1028.71 1058.93C1027.44 1059.34 1025.76 1059.69 1023.98 1059.37C1022.85 1059.17 1021.79 1058.72 1020.88 1058.03M1049.28 1043.07L1045.74 1039.54M1045.74 1039.54L1020.88 1058.03M1020.88 1058.03C1020.02 1057.95 1018.8 1057.88 1017.17 1057.8C1013.44 1057.62 1007.87 1057.46 1000.44 1057.3C985.589 1057 963.483 1056.74 934.228 1056.53C875.726 1056.12 788.711 1055.91 674.179 1055.91H326.581C325.253 1055.91 323.98 1055.38 323.042 1054.44C322.104 1053.5 321.579 1052.23 321.581 1050.9L321.605 1035.42L321.605 1035.41C321.68 1015.34 325.092 987.587 333.189 969.795M1020.88 1058.03L337.742 971.861M333.189 969.795C333.19 969.793 333.191 969.791 333.192 969.789L337.742 971.861M333.189 969.795C333.189 969.796 333.189 969.796 333.189 969.796L337.742 971.861M333.189 969.795C345.578 942.471 359.356 922.294 412.418 869.457L412.419 869.456C442.201 839.812 471.211 809.45 479.054 798.631L479.057 798.626C506.258 761.196 531.919 713.991 542.88 664.641M337.742 971.861C349.76 945.356 363.035 925.687 415.946 873C445.609 843.474 474.967 812.787 483.102 801.566C510.553 763.791 536.605 715.958 547.762 665.724M542.88 664.641L547.762 665.724M542.88 664.641C542.881 664.64 542.881 664.64 542.881 664.639L547.762 665.724M542.88 664.641C545.619 652.29 547.751 632.864 548.821 613.464C549.892 594.041 549.87 575.152 548.453 563.845L548.453 563.842L546.487 548.063C546.299 546.555 546.807 545.043 547.867 543.955L564.186 527.21L564.187 527.209C592.961 497.703 610.928 449.906 608.413 409.736L608.413 409.734C607.564 396.08 606.366 387.811 604.364 382.426C602.539 377.518 600.104 375.129 596.102 373.209C596.103 373.209 596.104 373.21 596.105 373.21L613.404 409.423C616.009 451.038 597.503 500.207 567.767 530.7L551.448 547.444L553.414 563.223C556.363 586.755 553.414 640.235 547.762 665.724M427.134 95.1953L396.947 124.289L331.883 169.6L258.717 196.462C257.888 196.767 257.154 197.285 256.591 197.965L240.085 217.87C240.028 217.939 239.973 218.008 239.92 218.08C231.388 229.562 212.472 247.315 198.734 260.086L198.733 260.086L198.029 260.741C189.343 268.816 182.848 274.855 178.127 280.038C173.208 285.439 169.923 290.216 167.934 295.856C165.974 301.412 165.415 307.414 165.268 314.949C165.191 318.887 165.228 323.522 165.272 328.92C165.31 333.653 165.354 338.973 165.328 344.924V344.926C165.181 382.193 164.382 390.192 159.88 405.457L427.134 95.1953ZM144.894 755.117C149.355 749.161 153.994 743.421 157.855 738.993C159.79 736.775 161.494 734.927 162.861 733.561C163.545 732.876 164.11 732.348 164.551 731.968C164.965 731.613 165.15 731.492 165.149 731.49L165.159 731.485C170.023 728.741 174.747 728.399 178.598 729.677C182.438 730.951 185.889 733.992 187.952 738.956L187.958 738.971C188.944 741.323 189.371 742.938 189.423 744.433C189.474 745.879 189.186 747.61 188.094 750.146C185.771 755.541 180.432 763.284 169.882 777.45C165.074 783.894 160.768 790.267 157.693 795.373C156.162 797.914 154.884 800.228 154 802.126C153.561 803.066 153.168 804.013 152.895 804.899C152.694 805.55 152.268 807.021 152.566 808.607L152.566 808.608C153.274 812.372 155.769 814.922 158.741 816.321C161.561 817.648 164.873 818.009 168.084 817.822C174.543 817.446 182.124 814.769 188.538 810.088L188.538 810.088C205.352 797.813 216.346 781.95 237.772 740.964L237.772 740.963C248.755 719.938 262.407 696.202 268.067 688.206L268.069 688.203C289.864 657.372 322.934 633.006 393.592 596.804C428.54 578.905 461.493 560.012 488.025 542.959C514.386 526.016 534.886 510.593 544.496 499.611L544.497 499.61C566.892 474.009 576.315 444.114 574.11 406.752C573.307 393.113 573.689 385.218 575.341 380.301C576.112 378.007 577.121 376.504 578.354 375.369C579.63 374.195 581.404 373.181 584.044 372.255C586.824 371.28 588.431 371.034 589.846 371.136C591.31 371.242 593.073 371.758 596.102 373.209L144.894 755.117ZM233.34 738.648C244.326 717.618 258.113 693.615 263.986 685.317L233.34 738.648ZM1019.05 1056.01C1019.05 1056.01 1019.05 1056.02 1019.06 1056.02C1019.05 1056.02 1019.05 1056.01 1019.05 1056.01Z" stroke="white" stroke-width="10" stroke-linejoin="round"/>
<path d="M253.176 315.127L253.175 315.128L207.367 396.92L203.829 395.054C203.829 395.054 203.829 395.055 203.828 395.055C203.14 396.359 202.515 397.575 202.124 398.571C201.93 399.064 201.704 399.72 201.607 400.436C201.515 401.109 201.456 402.424 202.282 403.713C203.186 405.122 204.554 405.606 205.435 405.757C206.256 405.897 207.019 405.823 207.525 405.753C208.553 405.609 209.815 405.266 211.075 404.911C212.988 404.381 217 402.694 221.634 400.606C226.417 398.45 232.216 395.702 237.884 392.882L237.887 392.88C253.849 384.922 263.518 377.785 277.575 363.638C286.138 355.03 295.362 343.481 302.45 333.133C305.997 327.955 309.06 323.004 311.254 318.809C312.35 316.715 313.262 314.746 313.909 312.992C314.526 311.321 315.031 309.511 315.031 307.846C315.031 306.378 314.465 305.147 313.921 304.287C313.353 303.39 312.622 302.596 311.862 301.921C310.345 300.571 308.368 299.386 306.25 298.583C288.887 291.93 267.011 299.239 253.176 315.127ZM206.329 397.839C206.329 397.839 206.338 397.838 206.355 397.838C206.337 397.839 206.329 397.84 206.329 397.839Z" fill="white" stroke="black" stroke-width="8"/>
<path d="M52.4085 695.942L52.4574 694.918C53.3929 675.313 54.9801 666.688 60.366 654.833L52.4085 695.942ZM52.4085 695.942L52.7322 696.916M52.4085 695.942L52.7322 696.916M52.7322 696.916L60.1554 719.236L62.8335 727.288L69.0901 721.555L86.5309 705.573M52.7322 696.916L63.4728 711.783M63.4728 711.783L57.9512 695.18L63.4728 711.783ZM63.4728 711.783L61.6586 713.445L65.3743 717.5L70.5933 715.764L69.8167 713.429L83.0907 701.266L86.2219 705.788C86.3251 705.716 86.4281 705.645 86.5309 705.573M86.5309 705.573C99.8231 696.353 109.426 688.685 115.75 681.825C122.124 674.912 125.758 668.184 125.758 660.953C125.758 652.297 121.595 644.093 115.754 638.149C109.918 632.211 101.814 627.929 93.2033 627.944L93.2005 627.944C79.5167 627.976 67.3254 639.505 60.3665 654.832L86.5309 705.573Z" fill="white" stroke="black" stroke-width="11"/>
<path d="M481.543 575.753C468.115 584.018 437.409 600.916 413.396 613.202L413.395 613.202C367.775 636.55 339.954 652.319 318.552 672.805C297.009 693.427 282.53 718.281 262.112 758.207C254.647 772.805 243.94 790.504 238.577 797.378L238.572 797.384L238.567 797.391C229.887 808.551 218.464 818.443 206.786 825.494C194.914 832.661 183.81 836.279 175.742 836.279C173.035 836.279 167.943 835.201 161.938 832.928C156.082 830.71 150.671 827.854 147.302 825.262L140.9 833.585L147.302 825.262C146.226 824.435 144.486 822.668 142.631 820.246C140.808 817.867 139.358 815.487 138.586 813.763C136.755 809.66 134.446 804.567 129.754 801.128C125.196 797.787 119.625 796.941 114.982 796.251L114.98 796.25C50.9745 786.742 5.87983 730.73 10.8791 667.685C14.1589 626.349 32.5461 584.085 81.9451 509.631C115.931 458.416 130.352 432.693 140.272 404.48L140.273 404.478C145.849 388.611 146.339 380.67 146.43 340.454L146.529 297.749L153.359 283.207L153.359 283.207C158.998 271.201 164.575 264.046 192.386 236.267C201.634 227.03 210.839 217.437 218.243 209.399C225.39 201.64 231.494 194.653 233.968 190.959L233.971 190.955L240.973 180.488L243 177.458L242.714 173.825L237.401 106.396C233.707 59.3073 232.009 37.3175 232.884 26.0238C233.223 21.6401 233.888 20.31 234.032 20.0787C234.09 20.0273 234.282 19.8754 234.748 19.6187C235.594 19.152 236.681 18.6825 238.709 17.8232L238.709 17.8231C240.167 17.2055 240.669 17.0012 241.089 16.8771C241.165 16.8547 241.211 16.8438 241.234 16.8389C241.235 16.8389 241.237 16.839 241.239 16.8391C241.541 16.8508 243.201 17.0373 248.354 19.5433C258.578 24.5151 277.13 35.7677 315.983 59.3344L316.072 59.3887L316.073 59.3888C333.907 70.2057 350.341 80.0484 362.458 87.1954C368.511 90.7651 373.52 93.6825 377.101 95.7182C378.88 96.7298 380.371 97.5605 381.485 98.154C382.026 98.4426 382.586 98.7325 383.09 98.9717C383.327 99.0841 383.699 99.256 384.124 99.4219C384.332 99.5027 384.696 99.639 385.151 99.7694L385.169 99.7745C385.448 99.8549 386.61 100.19 388.116 100.19C390.02 100.19 391.448 99.6687 391.978 99.463C392.652 99.2011 393.172 98.9209 393.471 98.7497C394.073 98.4059 394.546 98.0626 394.799 97.8734C395.344 97.4665 395.863 97.0214 396.269 96.6627C397.124 95.9064 398.184 94.9022 399.361 93.7547C401.747 91.4286 405.004 88.1313 408.871 84.1397C416.624 76.1373 427.026 65.1374 438.219 53.0624L438.219 53.0617C455.084 34.8642 465.306 24.1605 472.123 17.8413C479.164 11.3142 481.097 10.9497 481.386 10.8951L481.39 10.8944L481.391 10.8942C482.984 10.5929 483.915 10.5004 484.524 10.5C485.035 10.4997 485.172 10.5656 485.183 10.5701L485.184 10.5705C485.24 10.5917 486.516 11.082 489.246 14.9717C494.993 23.1572 502.889 39.8528 518.115 73.5918L518.116 73.5935L545.644 134.56L548.906 141.785L556.749 140.626L571.719 138.414C581.377 136.987 598.969 136.835 618.036 137.855C636.968 138.867 656.248 140.973 669.081 143.701L669.083 143.701C717.123 153.906 764.82 174.746 803.301 202.274L803.302 202.275C828.794 220.509 870.658 263.167 889.767 290.461L889.768 290.464C931.656 350.261 962.193 417.379 990.346 512.407C1038.8 675.988 1068.64 867.267 1069.43 1018.97C1069.55 1043.38 1069.57 1054.99 1068.97 1061.32C1068.7 1064.13 1068.37 1065 1068.31 1065.14C1068.3 1065.15 1068.29 1065.17 1068.27 1065.19C1068.14 1065.36 1067.89 1065.63 1067.24 1066.29L1067.23 1066.3L1067.22 1066.31L1064.79 1068.77L690.735 1069.35C541.438 1069.58 446.552 1069.56 388.4 1069.19C359.31 1069.01 339.494 1068.73 326.682 1068.36C320.258 1068.17 315.721 1067.96 312.704 1067.73C311.618 1067.65 310.806 1067.57 310.222 1067.51C308.785 1066.39 306.666 1063.78 304.674 1058.31C302.389 1052.04 300.83 1043.46 300.315 1033.2C299.286 1012.71 302.505 987.294 310.362 963.993C323.692 924.501 338.517 903.783 400.681 842.058L393.283 834.607L400.682 842.058C457.041 786.094 473.039 766.73 491.322 730.529C512.941 687.77 521.479 653.598 523.736 601.975L523.736 601.973C524.126 593.005 524.337 584.795 524.359 578.772C524.369 575.788 524.335 573.2 524.239 571.281C524.193 570.375 524.122 569.326 523.98 568.374C523.922 567.983 523.777 567.058 523.421 566.022C523.266 565.569 522.839 564.384 521.913 563.115C521.122 562.031 518.366 558.761 513.367 558.761C511.733 558.761 510.461 559.158 510.198 559.24L510.173 559.248C509.709 559.391 509.333 559.54 509.115 559.629C508.664 559.815 508.249 560.013 507.953 560.159C507.328 560.468 506.596 560.858 505.837 561.276C504.288 562.127 502.215 563.315 499.797 564.733C494.942 567.577 488.471 571.476 481.543 575.753ZM309.175 1067.35C309.173 1067.35 309.237 1067.36 309.354 1067.39C309.233 1067.36 309.177 1067.35 309.175 1067.35ZM234.06 20.0396C234.061 20.0406 234.053 20.0528 234.036 20.0732C234.051 20.0489 234.06 20.0387 234.06 20.0396ZM234.027 20.0839C234.018 20.0937 234.013 20.0986 234.012 20.0986C234.012 20.0986 234.016 20.0937 234.027 20.0839ZM271.461 762.988C263.879 777.813 252.819 796.193 246.855 803.837L271.461 762.988ZM479.44 0.577781V0.577886V0.577781Z" stroke="black" stroke-width="21"/>
</svg>
