<svg width="1082" height="1080" viewBox="0 0 1082 1080" fill="none" xmlns="http://www.w3.org/2000/svg">
<path d="M308.281 1077.39C288.77 1067.58 285.873 1009.69 302.413 960.635C316.563 918.715 332.887 896.562 395.283 834.607C451.498 778.787 466.469 760.408 483.951 725.791C504.839 684.48 513.049 651.786 515.246 601.516C516.019 583.77 516.067 569.261 515.367 569.261C514.666 569.261 502.81 576.199 489.046 584.695C475.283 593.166 444.302 610.207 420.179 622.549C328.661 669.387 314.294 683.141 273.461 762.988C265.879 777.813 254.819 796.193 248.855 803.837C229.827 828.302 199.209 846.779 177.742 846.779C168.58 846.779 151.793 840.425 142.9 833.585C138.754 830.396 133.4 823.409 131.003 818.054C127.059 809.217 125.586 808.146 115.437 806.636C46.1207 796.339 -3.0356 735.553 2.41199 666.855C5.91574 622.695 25.627 578.536 75.1962 503.825C109.12 452.703 122.908 427.897 132.367 400.997C137.269 387.048 137.839 380.841 137.93 340.43L138.034 295.394L145.855 278.743C152.373 264.867 159.231 256.541 186.966 228.838C205.269 210.556 223.38 190.886 227.243 185.117L234.246 174.649L228.934 107.217C221.641 14.268 221.617 14.509 236.612 8.15525C246.827 3.82693 246.32 3.58592 323.518 50.4111C359.135 72.0137 389.101 89.6896 390.116 89.6896C391.13 89.6896 410.206 69.9956 432.518 45.9245C466.131 9.65481 474.51 1.88674 481.44 0.577044C496.194 -2.21275 499.671 2.76554 529.686 69.2726L557.214 130.239L572.185 128.026C593.7 124.849 646.075 127.651 673.265 133.43C722.67 143.925 771.712 165.335 811.41 193.735C837.924 212.698 880.616 256.225 900.368 284.439C943.084 345.42 974.041 413.656 1002.41 509.424C1051.12 673.841 1081.13 866.108 1081.93 1018.91C1082.17 1067.04 1082.08 1068.26 1076.69 1073.69L1071.18 1079.26L692.751 1079.85C394.172 1080.31 313.038 1079.8 308.281 1077.39V1077.39Z" fill="white"/>
<path d="M425.687 94.3415L468.364 36.131C471.455 31.915 476.518 29.6123 481.727 30.0535C486.936 30.4947 491.54 33.616 493.878 38.2918L498.724 47.9841C498.806 48.1487 498.885 48.3149 498.962 48.4824C500.021 50.8121 500.759 53.6226 501.257 55.6461C501.838 58.0089 502.444 60.8268 503.063 63.8464C503.622 66.5695 504.221 69.6019 504.849 72.7814L505.069 73.8923C505.782 77.5007 506.539 81.3139 507.348 85.2373C510.684 101.424 514.579 117.727 518.972 127.489L425.687 94.3415ZM425.687 94.3415L394.284 121.878L330.965 167.172L264.634 189.195C262.233 189.993 260.072 191.384 258.354 193.241L241.153 211.821C240.786 212.217 240.441 212.633 240.119 213.066C232.052 223.924 214.687 243.017 201.862 254.942L201.861 254.943C201.078 255.67 200.309 256.386 199.552 257.089C191.856 264.239 185.468 270.174 180.531 275.456C174.938 281.441 170.406 287.402 167.302 294.684C164.217 301.92 162.993 309.409 162.42 317.761C161.911 325.19 161.876 334.239 161.834 345.249C161.83 346.333 161.826 347.437 161.821 348.559L161.821 348.564C161.676 385.113 160.864 391.723 156.88 405.238L425.687 94.3415ZM94.7102 522.905C129.055 471.17 148.392 434.009 156.879 405.24L94.7102 522.905ZM94.7102 522.905C56.8809 579.878 35.5698 620.003 29.2764 649.849C26.5875 662.596 25.6783 676.66 26.3205 689.589C26.9505 702.271 29.1365 715.177 33.5305 725.042C47.4488 756.312 80.9762 780.704 114.805 783.9L114.81 783.901L130.314 785.361C135.52 785.852 140.606 783.595 143.737 779.407L159.902 757.776C164.155 752.096 168.557 746.651 172.168 742.51C173.983 740.428 175.494 738.796 176.616 737.674C176.955 737.335 177.211 737.091 177.391 736.924C179.589 735.867 181.054 736.061 181.768 736.298C182.519 736.547 183.813 737.287 184.822 739.715L184.839 739.757C185.265 740.773 185.425 741.313 185.482 741.542C185.433 741.748 185.308 742.164 185.011 742.854C183.297 746.835 178.896 753.409 168.294 767.648C163.414 774.191 158.989 780.731 155.763 786.087C154.172 788.73 152.715 791.345 151.633 793.666C151.104 794.802 150.509 796.196 150.052 797.681L150.033 797.741C149.758 798.631 148.689 802.08 149.454 806.156L149.455 806.16C150.859 813.63 155.877 818.525 161.14 821.002C165.945 823.264 171.039 823.663 175.202 823.421C183.637 822.929 192.923 819.546 200.661 813.897L200.662 813.896C219.273 800.307 230.986 782.751 252.028 742.49L252.03 742.486C262.815 721.835 275.958 699.046 281.09 691.795L281.095 691.787C301.014 663.603 331.606 640.573 400.79 605.118C400.791 605.118 400.792 605.117 400.793 605.117L393.952 591.768M94.7102 522.905L586.661 384.979L581.695 370.824M393.952 591.768C462.385 556.713 522.897 517.812 540.766 497.387C561.822 473.311 570.757 445.243 568.656 409.653M393.952 591.768C324.408 627.407 290.988 651.799 268.845 683.13L393.952 591.768ZM568.656 409.653L583.63 408.772C583.63 408.771 583.63 408.77 583.63 408.769L568.656 409.653ZM568.656 409.653C567.086 382.972 569.767 375.012 581.695 370.824M581.695 370.824C587.732 368.706 590.944 368.926 597.294 371.969L586.663 384.978M581.695 370.824L586.663 384.978M586.663 384.978C587.549 384.667 588.081 384.526 588.359 384.464C588.694 384.569 589.443 384.839 590.813 385.496C592.039 386.085 592.445 386.481 592.613 386.662C592.782 386.846 593.248 387.4 593.832 388.971C595.222 392.71 596.362 399.467 597.198 412.92L597.198 412.927C599.487 449.491 582.92 493.698 556.588 520.705L556.584 520.709L540.551 537.165C537.37 540.43 535.846 544.964 536.409 549.487L538.341 564.994L538.342 565.005C539.619 575.19 539.685 593.02 538.641 611.96C537.601 630.824 535.543 649.278 533.029 660.622M586.663 384.978L533.029 660.622M533.029 660.622C533.028 660.624 533.028 660.626 533.028 660.627M533.029 660.622L533.028 660.627M533.028 660.627C522.464 708.197 502.647 753.265 477.004 788.559L476.994 788.573C469.83 798.458 440.872 829.778 411.572 858.949L411.57 858.951C359.706 910.606 342.736 930.684 329.653 959.544C321.177 978.18 315.452 1005.75 315.372 1027.15L315.372 1027.18L315.348 1042.4C315.342 1046.38 316.919 1050.2 319.733 1053.02C322.547 1055.84 326.366 1057.42 330.348 1057.42H671.885C784.414 1057.42 869.882 1057.63 927.327 1058.03C956.061 1058.24 977.726 1058.49 992.242 1058.79C999.521 1058.94 1004.89 1059.1 1008.42 1059.27C1008.59 1059.28 1008.76 1059.29 1008.92 1059.3C1011.28 1060.67 1013.67 1061.43 1015.59 1061.84C1019.68 1062.71 1023.76 1062.51 1027.22 1061.91C1033.95 1060.76 1041.82 1057.49 1047.61 1051.65C1047.61 1051.65 1047.61 1051.65 1047.61 1051.64L1047.8 1051.46C1049.67 1049.59 1053.07 1046.18 1055.07 1040.35C1056.81 1035.28 1057.17 1029.4 1057.13 1022.71C1057.06 1009.12 1055.13 984.457 1051.45 937.372L1051.39 936.574C1051.39 936.573 1051.39 936.573 1051.39 936.572C1037.31 756.237 993.7 543.594 945.065 419.82C930.681 383.205 903.397 331.044 884.08 303.496C842.718 244.494 781.214 196.047 717.974 173.146C680.081 159.412 650.383 154.672 605.548 154.904C579.541 155.038 557.971 156.422 544.679 159.203C541.203 159.929 537.838 160.532 534.967 160.971C534.314 159.722 533.594 158.319 532.813 156.769C529.014 149.229 524.087 138.852 518.972 127.49L533.028 660.627ZM116.216 768.967C87.8749 766.289 58.9877 745.352 47.2329 718.94C40.5755 703.992 39.1677 675.632 43.9537 652.944L116.216 768.967ZM116.216 768.967L131.721 770.427L147.895 748.785C156.791 736.906 166.435 725.829 169.328 724.222C181.022 717.625 193.627 721.812 198.674 733.96C202.948 744.16 200.823 749.078 180.322 776.611C171.025 789.075 163.772 801.125 164.197 803.389C165.597 810.838 180.612 809.961 191.816 801.782M116.216 768.967L191.816 801.782M191.816 801.782C207.319 790.462 217.678 775.831 238.734 735.542L191.816 801.782ZM588.606 384.418C588.606 384.419 588.592 384.421 588.565 384.423C588.593 384.419 588.606 384.418 588.606 384.418ZM538.341 167.01C538.338 167.007 538.336 167.004 538.334 167C538.355 167.03 538.358 167.035 538.341 167.01ZM185.51 741.677C185.51 741.676 185.508 741.669 185.507 741.655C185.51 741.671 185.511 741.678 185.51 741.677ZM185.503 741.442C185.506 741.402 185.51 741.38 185.511 741.38C185.512 741.38 185.511 741.4 185.503 741.442Z" stroke="black" stroke-width="30" stroke-linejoin="round"/>
<path d="M1045.74 1039.54C1052.84 1032.41 1052.84 1042.09 1045.2 944.392C1030.94 761.883 986.782 547.098 937.999 422.973C923.721 386.634 896.491 334.666 877.641 307.79C837.19 250.1 777.053 202.887 715.884 180.742C679.217 167.455 650.808 160.813 606.744 161.041C580.398 161.177 566.879 161.599 554.96 164.093C544.884 166.196 533.306 170.452 531.758 169.858C530.185 169.239 521.281 149.618 510.738 126.2C500.195 102.78 487.657 53.2636 484.29 45.8622L479.358 36L430.864 98.5446L400.13 128.165L334.211 174.071L260.44 201.156L243.934 221.062C235.062 233.001 215.728 251.115 202.138 263.748C165.692 297.634 170.55 292.853 170.328 344.946C170.181 382.25 169.395 390.87 164.676 406.872C155.372 438.405 132.591 476.748 97.4259 529.707C58.8494 587.794 40.7809 626.411 35.0498 653.584C30.1789 676.67 31.6649 706.545 38.4405 721.754C50.4039 748.63 79.8038 769.934 108.648 772.659L124.428 774.145L140.889 752.124C149.943 740.036 159.758 728.764 162.703 727.13C174.605 720.417 187.433 724.677 192.569 737.038C196.919 747.417 194.757 752.421 173.892 780.437C164.43 793.119 157.048 805.38 157.48 807.684C158.906 815.264 174.187 814.372 185.59 806.049C201.367 794.531 211.91 779.643 233.34 738.648C244.326 717.618 258.113 693.615 263.986 685.317C286.522 653.437 320.535 628.617 391.313 592.353C460.961 556.684 522.547 517.101 540.733 496.318C562.163 471.82 571.256 443.26 569.118 407.045C567.521 379.897 570.249 371.797 582.389 367.536C588.533 365.381 591.802 365.604 598.265 368.701C608.538 373.63 611.708 382.151 613.404 409.423C616.009 451.038 597.503 500.207 567.767 530.7L551.448 547.444L553.414 563.223C556.363 586.755 553.414 640.235 547.762 665.724C536.605 715.958 510.553 763.791 483.102 801.566C474.967 812.787 445.609 843.474 415.946 873C363.035 925.687 349.76 945.356 337.742 971.861C330.075 988.705 326.679 1015.63 326.605 1035.42L326.581 1050.91H674.179C903.249 1050.91 1022.29 1051.75 1023.3 1053.38C1026.28 1058.24 1039.35 1045.98 1045.74 1039.54Z" stroke="white" stroke-width="18" stroke-linejoin="round"/>
<path d="M253.176 315.127L253.175 315.128L207.367 396.92L203.829 395.054C203.829 395.054 203.829 395.055 203.828 395.055C203.14 396.359 202.515 397.575 202.124 398.571C201.93 399.064 201.704 399.72 201.607 400.436C201.515 401.109 201.456 402.424 202.282 403.713C203.186 405.122 204.554 405.606 205.435 405.757C206.256 405.897 207.019 405.823 207.525 405.753C208.553 405.609 209.815 405.266 211.075 404.911C212.988 404.381 217 402.694 221.634 400.606C226.417 398.45 232.216 395.702 237.884 392.882L237.887 392.88C253.849 384.922 263.518 377.785 277.575 363.638C286.138 355.03 295.362 343.481 302.45 333.133C305.997 327.955 309.06 323.004 311.254 318.809C312.35 316.715 313.262 314.746 313.909 312.992C314.526 311.321 315.031 309.511 315.031 307.846C315.031 306.378 314.465 305.147 313.921 304.287C313.353 303.39 312.622 302.596 311.862 301.921C310.345 300.571 308.368 299.386 306.25 298.583C288.887 291.93 267.011 299.239 253.176 315.127ZM206.329 397.839C206.329 397.839 206.338 397.838 206.355 397.838C206.337 397.839 206.329 397.84 206.329 397.839Z" fill="black" stroke="white" stroke-width="8"/>
<path d="M93.2008 627.944L93.2037 627.944C101.814 627.929 109.918 632.211 115.754 638.149C121.595 644.093 125.758 652.297 125.758 660.953C125.758 668.184 122.124 674.912 115.751 681.825C109.377 688.738 99.6747 696.472 86.2222 705.788L86.2218 705.788L59.9208 723.997L50.7645 730.336L51.2963 719.212L52.4578 694.918C52.4578 694.918 52.4578 694.918 52.4578 694.917C53.3933 675.313 54.9805 666.688 60.3663 654.833L93.2008 627.944ZM93.2008 627.944C79.517 627.976 67.3257 639.505 60.3669 654.832L93.2008 627.944Z" fill="black" stroke="white" stroke-width="11"/>
<path d="M481.543 575.753C468.115 584.018 437.409 600.916 413.396 613.202L413.395 613.202C367.775 636.55 339.954 652.319 318.552 672.805C297.009 693.427 282.53 718.281 262.112 758.207C254.647 772.805 243.94 790.504 238.577 797.378L238.572 797.384L238.567 797.391C229.887 808.551 218.464 818.443 206.786 825.494C194.914 832.661 183.81 836.279 175.742 836.279C173.035 836.279 167.943 835.201 161.938 832.928C156.082 830.71 150.671 827.854 147.302 825.262L140.9 833.585L147.302 825.262C146.226 824.435 144.486 822.668 142.631 820.246C140.808 817.867 139.358 815.487 138.586 813.763C136.755 809.66 134.446 804.567 129.754 801.128C125.196 797.787 119.625 796.941 114.982 796.251L114.98 796.25C50.9745 786.742 5.87983 730.73 10.8791 667.685C14.1589 626.349 32.5461 584.085 81.9451 509.631C115.931 458.416 130.352 432.693 140.272 404.48L140.273 404.478C145.849 388.611 146.339 380.67 146.43 340.454L146.529 297.749L153.359 283.207L153.359 283.207C158.998 271.201 164.575 264.046 192.386 236.267C201.634 227.03 210.839 217.437 218.243 209.399C225.39 201.64 231.494 194.653 233.968 190.959L233.971 190.955L240.973 180.488L243 177.458L242.714 173.825L237.401 106.396C233.707 59.3073 232.009 37.3175 232.884 26.0238C233.223 21.6401 233.888 20.31 234.032 20.0787C234.09 20.0273 234.282 19.8754 234.748 19.6187C235.594 19.152 236.681 18.6825 238.709 17.8232L238.709 17.8231C240.167 17.2055 240.669 17.0012 241.089 16.8771C241.165 16.8547 241.211 16.8438 241.234 16.8389C241.235 16.8389 241.237 16.839 241.239 16.8391C241.541 16.8508 243.201 17.0373 248.354 19.5433C258.578 24.5151 277.13 35.7677 315.983 59.3344L316.072 59.3887L316.073 59.3888C333.907 70.2057 350.341 80.0484 362.458 87.1954C368.511 90.7651 373.52 93.6825 377.101 95.7182C378.88 96.7298 380.371 97.5605 381.485 98.154C382.026 98.4426 382.586 98.7325 383.09 98.9717C383.327 99.0841 383.699 99.256 384.124 99.4219C384.332 99.5027 384.696 99.639 385.151 99.7694L385.169 99.7745C385.448 99.8549 386.61 100.19 388.116 100.19C390.02 100.19 391.448 99.6687 391.978 99.463C392.652 99.2011 393.172 98.9209 393.471 98.7497C394.073 98.4059 394.546 98.0626 394.799 97.8734C395.344 97.4665 395.863 97.0214 396.269 96.6627C397.124 95.9064 398.184 94.9022 399.361 93.7547C401.747 91.4286 405.004 88.1313 408.871 84.1397C416.624 76.1373 427.026 65.1374 438.219 53.0624L438.219 53.0617C455.084 34.8642 465.306 24.1605 472.123 17.8413C479.164 11.3142 481.097 10.9497 481.386 10.8951L481.39 10.8944L481.391 10.8942C482.984 10.5929 483.915 10.5004 484.524 10.5C485.035 10.4997 485.172 10.5656 485.183 10.5701L485.184 10.5705C485.24 10.5917 486.516 11.082 489.246 14.9717C494.993 23.1572 502.889 39.8528 518.115 73.5918L518.116 73.5935L545.644 134.56L548.906 141.785L556.749 140.626L571.719 138.414C581.377 136.987 598.969 136.835 618.036 137.855C636.968 138.867 656.248 140.973 669.081 143.701L669.083 143.701C717.123 153.906 764.82 174.746 803.301 202.274L803.302 202.275C828.794 220.509 870.658 263.167 889.767 290.461L889.768 290.464C931.656 350.261 962.193 417.379 990.346 512.407C1038.8 675.988 1068.64 867.267 1069.43 1018.97C1069.55 1043.38 1069.57 1054.99 1068.97 1061.32C1068.7 1064.13 1068.37 1065 1068.31 1065.14C1068.3 1065.15 1068.29 1065.17 1068.27 1065.19C1068.14 1065.36 1067.89 1065.63 1067.24 1066.29L1067.23 1066.3L1067.22 1066.31L1064.79 1068.77L690.735 1069.35C541.438 1069.58 446.552 1069.56 388.4 1069.19C359.31 1069.01 339.494 1068.73 326.682 1068.36C320.258 1068.17 315.721 1067.96 312.704 1067.73C311.618 1067.65 310.806 1067.57 310.222 1067.51C308.785 1066.39 306.666 1063.78 304.674 1058.31C302.389 1052.04 300.83 1043.46 300.315 1033.2C299.286 1012.71 302.505 987.294 310.362 963.993C323.692 924.501 338.517 903.783 400.681 842.058L393.283 834.607L400.682 842.058C457.041 786.094 473.039 766.73 491.322 730.529C512.941 687.77 521.479 653.598 523.736 601.975L523.736 601.973C524.126 593.005 524.337 584.795 524.359 578.772C524.369 575.788 524.335 573.2 524.239 571.281C524.193 570.375 524.122 569.326 523.98 568.374C523.922 567.983 523.777 567.058 523.421 566.022C523.266 565.569 522.839 564.384 521.913 563.115C521.122 562.031 518.366 558.761 513.367 558.761C511.733 558.761 510.461 559.158 510.198 559.24L510.173 559.248C509.709 559.391 509.333 559.54 509.115 559.629C508.664 559.815 508.249 560.013 507.953 560.159C507.328 560.468 506.596 560.858 505.837 561.276C504.288 562.127 502.215 563.315 499.797 564.733C494.942 567.577 488.471 571.476 481.543 575.753ZM309.175 1067.35C309.173 1067.35 309.237 1067.36 309.354 1067.39C309.233 1067.36 309.177 1067.35 309.175 1067.35ZM234.06 20.0396C234.061 20.0406 234.053 20.0528 234.036 20.0732C234.051 20.0489 234.06 20.0387 234.06 20.0396ZM234.027 20.0839C234.018 20.0937 234.013 20.0986 234.012 20.0986C234.012 20.0986 234.016 20.0937 234.027 20.0839ZM271.461 762.988C263.879 777.813 252.819 796.193 246.855 803.837L271.461 762.988ZM479.44 0.577781V0.577886V0.577781Z" stroke="black" stroke-width="21"/>
</svg>
