<svg width="1080" height="1080" viewBox="0 0 1080 1080" fill="none" xmlns="http://www.w3.org/2000/svg">
<g clip-path="url(#clip0_103_29)">
<path d="M159.261 843.887L159.261 843.887C142.092 895.467 138.445 918.032 138.501 972.369C138.535 1006.11 140.221 1029.27 143.458 1044.37C145.655 1054.63 148.064 1058.83 149.322 1060.44C150.612 1060.49 152.215 1060.55 154.141 1060.61C160.128 1060.78 168.77 1060.94 179.741 1061.09C201.66 1061.39 232.595 1061.65 269.575 1061.85C343.52 1062.26 441.482 1062.48 539.474 1062.5C637.467 1062.52 735.458 1062.34 809.462 1061.95C846.471 1061.76 877.444 1061.52 899.407 1061.23C910.4 1061.08 919.067 1060.92 925.081 1060.75C927.293 1060.69 929.085 1060.63 930.469 1060.57C930.761 1060.24 931.138 1059.76 931.576 1059.05C933.099 1056.6 934.931 1052.24 936.571 1044.83C939.873 1029.92 941.559 1006.8 941.585 972.373V972.362C941.66 918.028 938.016 895.466 920.848 843.888C888.521 746.781 817.68 662.738 730.496 617.472C730.495 617.472 730.494 617.471 730.492 617.471L704.371 603.917C699.139 601.202 695.625 596.035 695.023 590.171C694.42 584.308 696.811 578.535 701.382 574.813L714.519 564.116C714.52 564.115 714.521 564.114 714.522 564.113C739.419 543.83 762.555 507.69 773.026 471.414C777.228 456.797 778.261 448.719 778.136 423.229C778.058 409.107 777.768 401.302 776.894 394.84C776.062 388.683 774.635 383.269 771.626 374.044C753.438 318.394 722.212 281.964 672.555 257.529L672.548 257.526L647.878 245.372C643.349 243.141 640.005 239.064 638.703 234.187C637.401 229.311 638.268 224.109 641.082 219.918L652.056 203.574C652.057 203.573 652.058 203.572 652.058 203.571C671.339 174.786 677.149 140.592 668.607 108.977L668.604 108.966C658.899 72.9519 640.178 50.1718 606.871 33.7606L606.867 33.7587C562.898 12.0804 517.2 12.0804 473.231 33.7587L473.227 33.7606C439.92 50.1718 421.2 72.9519 411.494 108.966L411.491 108.977C402.949 140.593 408.76 174.788 428.042 203.574L439.016 219.919C441.83 224.109 442.697 229.311 441.395 234.187C440.093 239.064 436.749 243.141 432.221 245.372L407.55 257.526L407.543 257.529C357.889 281.963 326.664 318.389 308.475 374.033L159.261 843.887ZM159.261 843.887C191.578 746.78 262.418 662.738 349.602 617.472C349.603 617.472 349.605 617.471 349.606 617.471L375.727 603.917C380.959 601.202 384.473 596.035 385.075 590.171C385.678 584.308 383.287 578.535 378.716 574.813L365.58 564.116C365.578 564.115 365.577 564.114 365.576 564.113C340.677 543.828 317.54 507.685 307.07 471.406M159.261 843.887L307.07 471.406M307.07 471.406C302.87 456.794 301.837 448.715 301.962 423.229C302.04 409.107 302.33 401.302 303.204 394.84C304.036 388.681 305.464 383.266 308.474 374.036L307.07 471.406Z" stroke="white" stroke-width="35" stroke-linejoin="round"/>
<path d="M143.523 1077.54C127.677 1071.15 121.071 1040.32 121.001 972.387C120.943 916.164 124.893 891.727 142.656 838.361C176.353 737.108 250.157 649.384 341.542 601.939L367.667 588.383L354.527 577.684C326.506 554.857 301.576 515.488 290.253 476.249C285.423 459.447 284.333 449.553 284.462 423.143C284.618 394.94 285.579 387.799 291.838 368.608C311.418 308.697 345.723 268.445 399.817 241.827L424.487 229.674L413.502 213.313C391.532 180.514 384.677 141.13 394.597 104.412C405.608 63.5552 427.655 36.7059 465.492 18.0627C514.34 -6.02091 565.758 -6.02091 614.606 18.0627C652.443 36.7059 674.49 63.5552 685.501 104.412C695.421 141.13 688.566 180.514 666.596 213.313L655.611 229.674L680.282 241.827C734.375 268.445 768.68 308.697 788.261 368.608C794.519 387.799 795.48 394.94 795.636 423.143C795.766 449.553 794.675 459.447 789.845 476.249C778.522 515.488 753.592 554.857 725.571 577.684L712.431 588.383L738.556 601.939C829.941 649.384 903.745 737.108 937.452 838.361C955.215 891.727 959.162 916.164 959.084 972.387C959.033 1041.59 952.436 1071.35 935.764 1077.69C927.376 1080.86 151.449 1080.73 143.529 1077.54H143.523Z" fill="white"/>
<path d="M910.789 1026.66C911.879 1022.74 912.71 997.917 912.606 971.48C912.425 917.932 908.062 890.327 893 847.634C856.124 743.109 770.27 656.399 667.381 619.73C641.516 610.537 636.79 607.135 634.738 596.228C632.219 582.699 638.01 576.232 664.005 563.715C745.132 524.554 774.685 423.794 728.434 344.018C715.891 322.386 686.598 295.741 661.85 283.484C641.178 273.252 630.427 270.499 594.408 266.318C581.06 264.76 572.257 258.138 569.634 247.699C566.907 236.87 573.555 228.352 591.967 219.055C612.872 208.537 626.662 195.215 635.699 176.829C641.828 164.364 642.711 159.43 642.711 137.881C642.711 116.161 641.854 111.452 635.491 98.5095C626.532 80.2793 612.145 67.0273 589.786 56.4372C573.373 48.6542 571.14 48.2881 540.133 48.2881C509.126 48.2881 506.893 48.6542 490.481 56.4372C468.121 67.0273 453.734 80.2793 444.775 98.5095C438.413 111.452 437.556 116.161 437.556 137.881C437.556 159.43 438.439 164.364 444.567 176.829C453.605 195.215 467.394 208.537 488.299 219.055C506.711 228.352 513.359 236.87 510.632 247.699C508.01 258.138 499.206 264.76 485.858 266.318C449.839 270.499 439.088 273.252 418.417 283.484C393.668 295.741 364.375 322.386 351.832 344.018C332.927 376.609 325.915 416.315 332.303 454.308C339.964 499.676 373.127 542.914 416.261 563.715C442.256 576.232 448.047 582.699 445.528 596.228C443.477 607.135 438.75 610.537 412.885 619.73C309.996 656.399 224.143 743.109 187.267 847.634C172.205 890.327 167.842 917.932 167.66 971.48C167.556 997.917 168.387 1022.74 169.478 1026.66L171.478 1033.81H908.789L910.789 1026.66Z" fill="white"/>
<path d="M360.527 570.319L373.665 581.016C376.147 583.037 377.444 586.171 377.117 589.354C376.79 592.537 374.883 595.342 372.042 596.816L345.92 610.37C256.814 656.632 184.618 742.358 151.67 841.361L142.66 838.362L151.67 841.361C134.23 893.757 130.445 917.178 130.501 972.377C130.536 1006.22 132.214 1030.08 135.635 1046.05C138.877 1061.18 143.105 1066.51 146.193 1068.29C146.421 1068.31 146.689 1068.32 146.998 1068.34C148.572 1068.43 150.878 1068.51 153.911 1068.6C159.96 1068.78 168.649 1068.94 179.631 1069.09C201.583 1069.39 232.544 1069.65 269.53 1069.85C343.495 1070.26 441.473 1070.48 539.473 1070.5C637.473 1070.52 735.48 1070.34 809.504 1069.95C846.519 1069.76 877.517 1069.52 899.513 1069.23C910.518 1069.08 919.231 1068.92 925.306 1068.75C928.353 1068.66 930.673 1068.58 932.264 1068.49C932.65 1068.47 932.972 1068.45 933.238 1068.43C936.688 1066.67 941.059 1061.56 944.382 1046.56C947.884 1030.75 949.559 1006.88 949.585 972.379V972.373C949.661 917.176 945.878 893.757 928.439 841.361C895.48 742.358 823.284 656.632 734.179 610.37L708.056 596.816C705.215 595.342 703.308 592.537 702.981 589.354C702.654 586.171 703.951 583.037 706.433 581.016L719.571 570.319C719.572 570.318 719.573 570.318 719.573 570.317C745.898 548.871 769.854 511.255 780.714 473.624C785.204 458.008 786.263 449.1 786.136 423.189C786.058 409.077 785.773 400.801 784.822 393.768C783.894 386.902 782.294 380.953 779.231 371.559C760.406 313.961 727.772 275.784 676.087 250.351L676.083 250.349L651.413 238.196C648.955 236.985 647.139 234.771 646.432 232.124C645.726 229.477 646.196 226.653 647.724 224.378L658.703 208.026C679.214 177.406 685.502 140.838 676.33 106.89L676.329 106.884C666.026 68.6563 645.785 44.016 610.407 26.5844L610.405 26.5834C564.206 3.80554 515.892 3.80554 469.693 26.5834L469.691 26.5844C434.313 44.016 414.072 68.6563 403.77 106.884L403.768 106.89C394.596 140.838 400.885 177.406 421.395 208.026L432.374 224.378C433.902 226.653 434.372 229.477 433.666 232.124C432.959 234.771 431.143 236.985 428.685 238.196L404.015 250.349L404.011 250.351C352.328 275.783 319.695 313.958 300.869 371.553C297.805 380.951 296.204 386.9 295.276 393.768C294.325 400.801 294.04 409.077 293.962 423.189L360.527 570.319ZM360.527 570.319C360.526 570.318 360.526 570.318 360.525 570.317M360.527 570.319L360.525 570.317M360.525 570.317C334.198 548.869 310.24 511.249 299.381 473.615M360.525 570.317L299.381 473.615M299.381 473.615C294.894 458.006 293.835 449.097 293.962 423.195L299.381 473.615Z" stroke="black" stroke-width="19" stroke-linejoin="round"/>
</g>
<defs>
<clipPath id="clip0_103_29">
<rect width="1080" height="1080" fill="white"/>
</clipPath>
</defs>
</svg>
