<svg width="1080" height="1080" viewBox="0 0 1080 1080" fill="none" xmlns="http://www.w3.org/2000/svg">
<path d="M540.315 236.095C605.577 236.095 658.363 183.31 658.363 118.048C658.363 52.7855 605.577 0 540.315 0C475.053 0 422.268 52.7855 422.268 118.048C422.268 183.31 475.053 236.095 540.315 236.095ZM911.493 944.62H169.137C150.422 944.62 135.307 959.736 135.307 978.451V1045.87C135.307 1064.59 150.422 1079.7 169.137 1079.7H911.493C930.208 1079.7 945.324 1064.59 945.324 1045.87V978.451C945.084 959.736 930.208 944.62 911.493 944.62ZM1065.05 388.453L1004.83 354.862C989.232 344.305 969.077 349.584 957.8 364.7C934.767 395.651 896.137 410.527 858.228 403.089C809.521 393.972 776.41 347.904 776.41 298.238C776.41 282.642 763.694 269.926 748.098 269.926H666.28C653.564 269.926 641.807 278.323 639.168 290.8C627.651 345.505 573.906 380.535 519.201 369.018C479.852 360.861 449.38 330.149 440.982 290.8C438.343 278.323 426.586 269.926 413.87 269.926H332.052C316.457 269.926 303.74 282.642 303.74 298.238C303.74 352.463 263.671 400.93 209.446 404.769C175.375 407.168 142.265 392.052 121.87 364.46C110.833 349.584 90.9187 344.545 75.323 354.862L15.0996 388.693C0.94347 398.05 -4.09514 416.525 3.58275 431.881L219.763 877.439H859.907L1076.09 431.641C1084.25 416.285 1079.21 397.811 1065.05 388.453Z" fill="black"/>
<path d="M519.201 369.018C479.852 360.861 449.38 330.149 440.982 290.8C438.343 278.323 426.586 269.926 413.87 269.926H332.052C316.457 269.926 303.74 282.642 303.74 298.238C303.74 352.463 263.671 400.93 209.446 404.769C175.375 407.168 142.265 392.052 121.87 364.46M519.201 369.018L516.111 383.697C516.117 383.698 516.124 383.7 516.131 383.701M519.201 369.018C573.906 380.535 627.651 345.505 639.168 290.8M519.201 369.018L516.156 383.706C516.148 383.704 516.139 383.703 516.131 383.701M516.131 383.701C470.876 374.309 435.93 338.994 426.313 293.931L426.307 293.904C425.321 289.241 420.437 284.926 413.87 284.926H332.052C324.741 284.926 318.74 290.927 318.74 298.238C318.74 359.338 273.543 415.268 210.505 419.731L210.5 419.732C171.35 422.489 133.284 405.127 109.818 373.39M516.131 383.701C578.926 396.91 640.614 356.706 653.843 293.904M109.818 373.39C109.82 373.393 109.822 373.395 109.824 373.397L121.87 364.46M109.818 373.39C109.815 373.385 109.811 373.38 109.808 373.376L121.87 364.46M109.818 373.39C102.813 363.955 91.5856 362.089 83.5991 367.373C83.2962 367.573 82.9861 367.762 82.6695 367.94L22.9871 401.467M121.87 364.46C110.833 349.584 90.9187 344.545 75.323 354.862L15.0996 388.693M22.9871 401.467C23.1137 401.379 23.2417 401.292 23.3711 401.206L15.0996 388.693M22.9871 401.467L22.4461 401.771L15.0996 388.693M22.9871 401.467C15.4368 406.728 12.794 416.763 16.9992 425.173C17.0258 425.226 17.0521 425.28 17.0781 425.333L229.158 862.439M15.0996 388.693C0.94347 398.05 -4.09514 416.525 3.58275 431.881L218.396 874.621C219.232 876.344 220.979 877.439 222.895 877.439H856.775C858.691 877.439 860.438 876.344 861.274 874.62L1076.09 431.641C1084.25 416.285 1079.21 397.811 1065.05 388.453M229.158 862.439H222.895C226.725 862.439 230.22 864.627 231.892 868.073L229.158 862.439ZM229.158 862.439H850.511M850.511 862.439L847.777 868.075C849.449 864.628 852.943 862.439 856.775 862.439H850.511ZM850.511 862.439L1062.59 425.096C1062.67 424.931 1062.75 424.766 1062.84 424.604C1067.22 416.357 1064.71 406.495 1057.18 401.238M1057.18 401.238L1057.74 401.553L1065.05 388.453M1057.18 401.238C1057.05 401.146 1056.91 401.056 1056.78 400.966L1065.05 388.453M1057.18 401.238L997.521 367.962C997.344 367.864 997.169 367.761 996.996 367.656C996.801 367.536 996.608 367.412 996.419 367.284C988.663 362.034 977.228 363.75 969.828 373.663M1065.05 388.453L1004.83 354.862C989.232 344.305 969.077 349.584 957.8 364.7M969.828 373.663C969.83 373.66 969.832 373.658 969.834 373.655L957.8 364.7M969.828 373.663C969.826 373.665 969.825 373.667 969.823 373.669L957.8 364.7M969.828 373.663C943.346 409.241 898.939 426.338 855.402 417.821M957.8 364.7C934.767 395.651 896.137 410.527 858.228 403.089M858.228 403.089L855.468 417.833C855.446 417.829 855.424 417.825 855.402 417.821M858.228 403.089L855.34 417.808C855.36 417.813 855.381 417.817 855.402 417.821M858.228 403.089C809.521 393.972 776.41 347.904 776.41 298.238C776.41 282.642 763.694 269.926 748.098 269.926H666.28C653.564 269.926 641.807 278.323 639.168 290.8M855.402 417.821C798.589 407.15 761.41 353.983 761.41 298.238C761.41 290.927 755.409 284.926 748.098 284.926H666.28C659.713 284.926 654.83 289.241 653.843 293.904M639.168 290.8L653.846 293.89C653.845 293.895 653.844 293.9 653.843 293.904M639.168 290.8L653.843 293.904M643.363 118.048C643.363 175.025 597.293 221.095 540.315 221.095C483.337 221.095 437.268 175.025 437.268 118.048C437.268 61.0697 483.337 15 540.315 15C597.293 15 643.363 61.0698 643.363 118.048ZM169.137 959.62H911.493C921.724 959.62 930.144 967.844 930.324 978.561V1045.87C930.324 1056.3 921.924 1064.7 911.493 1064.7H169.137C158.707 1064.7 150.307 1056.3 150.307 1045.87V978.451C150.307 968.02 158.707 959.62 169.137 959.62Z" stroke="white" stroke-width="30" stroke-linejoin="round"/>
<path d="M999.782 362.315C999.997 362.46 1000.22 362.596 1000.44 362.722L1060.35 396.135C1070.51 403.039 1074.03 416.335 1068.14 427.419C1068.09 427.516 1068.04 427.615 1067.99 427.714L854.269 868.439H225.4L11.68 427.952C11.6644 427.92 11.6486 427.888 11.6326 427.856C6.04152 416.674 9.63477 403.273 19.8128 396.368L79.7309 362.709C79.9209 362.602 80.1069 362.489 80.2886 362.369C91.3172 355.073 106.017 358.205 114.636 369.813C136.872 399.895 172.958 416.361 210.078 413.746L210.082 413.746C269.594 409.533 312.74 356.588 312.74 298.238C312.74 287.613 321.427 278.926 332.052 278.926H413.87C422.897 278.926 430.53 284.874 432.177 292.663L432.181 292.678C441.311 335.459 474.472 368.935 517.369 377.83C576.925 390.355 635.43 352.222 647.973 292.663C649.621 284.874 657.253 278.926 666.28 278.926H748.098C758.723 278.926 767.41 287.613 767.41 298.238C767.41 351.552 802.963 401.88 856.534 411.928C897.818 420.013 939.912 403.806 965.014 370.081C973.965 358.084 988.89 354.942 999.782 362.315ZM649.363 118.048C649.363 178.339 600.607 227.095 540.315 227.095C480.024 227.095 431.268 178.339 431.268 118.048C431.268 57.756 480.024 9 540.315 9C600.607 9 649.363 57.756 649.363 118.048ZM169.137 953.62H911.493C925.116 953.62 936.118 964.598 936.324 978.513V1045.87C936.324 1059.62 925.237 1070.7 911.493 1070.7H169.137C155.393 1070.7 144.307 1059.62 144.307 1045.87V978.451C144.307 964.707 155.393 953.62 169.137 953.62Z" stroke="black" stroke-width="18" stroke-linejoin="round"/>
</svg>
