<svg width="1080" height="1080" viewBox="0 0 1080 1080" fill="none" xmlns="http://www.w3.org/2000/svg">
<path d="M993.616 371.425C994.092 371.747 994.583 372.049 995.085 372.329L1054.51 405.473C1059.86 409.345 1061.56 416.362 1058.43 422.258C1058.31 422.475 1058.2 422.694 1058.09 422.915L847.378 857.439H232.289L21.5766 423.151C21.5419 423.079 21.5068 423.008 21.4713 422.937C18.416 416.826 20.2796 409.581 25.6639 405.698L85.1183 372.299C85.5405 372.062 85.9539 371.81 86.3577 371.543C91.8078 367.937 100.139 368.746 105.8 376.365C130.288 409.484 170.008 427.596 210.851 424.719L210.859 424.719C276.833 420.048 323.74 361.629 323.74 298.238C323.74 293.688 327.502 289.926 332.052 289.926H413.87C415.872 289.926 417.77 290.604 419.174 291.66C420.52 292.675 421.182 293.836 421.415 294.939L421.423 294.974C431.447 341.945 467.89 378.797 515.117 388.597C580.606 402.363 644.935 360.436 658.735 294.939C658.968 293.836 659.63 292.675 660.977 291.66C662.38 290.604 664.279 289.926 666.28 289.926H748.098C752.648 289.926 756.41 293.688 756.41 298.238C756.41 356.009 794.946 411.544 854.461 422.731C899.878 431.609 946.215 413.767 973.845 376.64C979.951 368.471 988.476 367.945 993.616 371.425ZM638.363 118.048C638.363 172.264 594.531 216.095 540.315 216.095C486.099 216.095 442.268 172.264 442.268 118.048C442.268 63.8312 486.099 20 540.315 20C594.531 20 638.363 63.8312 638.363 118.048ZM169.137 964.62H911.493C918.9 964.62 925.168 970.553 925.324 978.605V1045.87C925.324 1053.54 919.162 1059.7 911.493 1059.7H169.137C161.468 1059.7 155.307 1053.54 155.307 1045.87V978.451C155.307 970.782 161.468 964.62 169.137 964.62Z" stroke="white" stroke-width="40" stroke-linejoin="round"/>
<path d="M540.315 236.095C605.577 236.095 658.363 183.31 658.363 118.048C658.363 52.7855 605.577 0 540.315 0C475.053 0 422.268 52.7855 422.268 118.048C422.268 183.31 475.053 236.095 540.315 236.095ZM911.493 944.62H169.137C150.422 944.62 135.307 959.736 135.307 978.451V1045.87C135.307 1064.59 150.422 1079.7 169.137 1079.7H911.493C930.208 1079.7 945.324 1064.59 945.324 1045.87V978.451C945.084 959.736 930.208 944.62 911.493 944.62ZM1065.05 388.453L1004.83 354.862C989.232 344.305 969.077 349.584 957.8 364.7C934.767 395.651 896.137 410.527 858.228 403.089C809.521 393.972 776.41 347.904 776.41 298.238C776.41 282.642 763.694 269.926 748.098 269.926H666.28C653.564 269.926 641.807 278.323 639.168 290.8C627.651 345.505 573.906 380.535 519.201 369.018C479.852 360.861 449.38 330.149 440.982 290.8C438.343 278.323 426.586 269.926 413.87 269.926H332.052C316.457 269.926 303.74 282.642 303.74 298.238C303.74 352.463 263.671 400.93 209.446 404.769C175.375 407.168 142.265 392.052 121.87 364.46C110.833 349.584 90.9187 344.545 75.323 354.862L15.0996 388.693C0.94347 398.05 -4.09514 416.525 3.58275 431.881L219.763 877.439H859.907L1076.09 431.641C1084.25 416.285 1079.21 397.811 1065.05 388.453Z" fill="white"/>
<path d="M999.782 362.315C999.997 362.46 1000.22 362.596 1000.44 362.722L1060.35 396.135C1070.51 403.039 1074.03 416.335 1068.14 427.419C1068.09 427.516 1068.04 427.615 1067.99 427.714L854.269 868.439H225.4L11.68 427.952C11.6644 427.92 11.6486 427.888 11.6326 427.856C6.04152 416.674 9.63477 403.273 19.8128 396.368L79.7309 362.709C79.9209 362.602 80.1069 362.489 80.2886 362.369C91.3172 355.073 106.017 358.205 114.636 369.813C136.872 399.895 172.958 416.361 210.078 413.746L210.082 413.746C269.594 409.533 312.74 356.588 312.74 298.238C312.74 287.613 321.427 278.926 332.052 278.926H413.87C422.897 278.926 430.53 284.874 432.177 292.663L432.181 292.678C441.311 335.459 474.472 368.935 517.369 377.83C576.925 390.355 635.43 352.222 647.973 292.663C649.621 284.874 657.253 278.926 666.28 278.926H748.098C758.723 278.926 767.41 287.613 767.41 298.238C767.41 351.552 802.963 401.88 856.534 411.928C897.818 420.013 939.912 403.806 965.014 370.081C973.965 358.084 988.89 354.942 999.782 362.315ZM649.363 118.048C649.363 178.339 600.607 227.095 540.315 227.095C480.024 227.095 431.268 178.339 431.268 118.048C431.268 57.756 480.024 9 540.315 9C600.607 9 649.363 57.756 649.363 118.048ZM169.137 953.62H911.493C925.116 953.62 936.118 964.598 936.324 978.513V1045.87C936.324 1059.62 925.237 1070.7 911.493 1070.7H169.137C155.393 1070.7 144.307 1059.62 144.307 1045.87V978.451C144.307 964.707 155.393 953.62 169.137 953.62Z" stroke="black" stroke-width="18" stroke-linejoin="round"/>
</svg>
