<svg width="1080" height="1080" viewBox="0 0 1080 1080" fill="none" xmlns="http://www.w3.org/2000/svg">
<g clip-path="url(#clip0_103_71)">
<path d="M250.695 1050.61C249.768 1050.6 248.842 1050.68 247.929 1050.85C237.743 1052.73 232.032 1050.23 228.837 1047.47C225.315 1044.42 222.859 1039.31 222.535 1032.94C221.869 1019.81 229.836 1007.95 244.631 1007.19C249.372 1006.95 253.694 1004.39 256.199 1000.36C258.705 996.328 259.077 991.323 257.195 986.964C245.139 959.029 253.852 922.33 274.239 892.753C274.428 892.478 274.609 892.196 274.779 891.908C280.75 881.815 287.276 871.786 294.059 861.363C295.972 858.423 297.906 855.451 299.853 852.437C308.583 838.93 317.448 824.791 325.046 810.065C340.232 780.629 350.93 747.763 345.551 710.511C344.468 700.058 340.61 688.253 337.329 678.243L337.065 677.438C333.578 666.805 330.588 657.686 329.425 650.001C328.846 646.171 328.874 643.554 329.17 641.879C329.308 641.098 329.481 640.66 329.584 640.45C329.675 640.265 329.74 640.193 329.794 640.141C329.994 639.947 333.721 636.905 349.423 639.004C355.474 639.813 361.384 636.745 364.204 631.33C374.818 610.95 376.694 586.571 377.987 565.025C378.099 563.159 378.207 561.309 378.314 559.477C379.511 538.933 380.581 520.573 386.045 504.508C386.313 503.719 386.513 502.908 386.642 502.084C388.98 487.16 391.892 472.064 394.883 456.558C395.59 452.896 396.3 449.212 397.009 445.502C400.689 426.235 404.278 406.431 406.608 386.527C411.269 346.727 411.045 305.496 395.986 265.243C395.886 264.976 395.778 264.711 395.662 264.45C390.622 253.074 383.79 243 376.971 233.902C373.968 229.895 370.866 225.948 367.889 222.16C367.487 221.648 367.087 221.14 366.691 220.634C363.307 216.324 360.094 212.199 357.08 208.056C345.044 191.508 337.617 176.539 339.483 157.665C339.58 156.678 339.577 155.685 339.471 154.699C335.037 113.158 335.928 71.1376 340.158 29.1758C343.939 29.1083 347.678 28.956 351.179 28.8134C354.56 28.6757 357.719 28.547 360.48 28.5125C367.356 28.4266 373.154 28.7882 378.186 29.9688C379.607 40.7592 383.092 51.513 387.509 60.7873C393.142 72.6157 401.556 84.6776 411.924 90.7857C417.394 94.0081 425.005 96.4394 433.254 93.8816C441.465 91.3355 446.772 84.9377 450.05 78.2227C455.324 67.4195 457.771 51.0047 457.616 28.6607C458.137 28.6926 458.703 28.7318 459.313 28.774C463.14 29.0385 468.674 29.421 475.294 28.8814H475.418H475.789H476.159H476.529H476.898H477.267H477.636H478.003H478.37H478.737H479.103H479.468H479.833H480.197H480.561H480.924H481.287H481.649H482.011H482.372H482.733H483.092H483.452H483.811H484.169H484.527H484.885H485.241H485.598H485.954H486.309H486.664H487.018H487.372H487.725H488.078H488.43H488.782H489.133H489.484H489.834H490.184H490.534H490.882H491.231H491.579H491.926H492.273H492.62H492.966H493.311H493.656H494.001H494.345H494.689H495.032H495.375H495.717H496.059H496.4H496.741H497.082H497.422H497.762H498.101H498.44H498.778H499.116H499.454H499.791H500.127H500.464H500.8H501.135H501.47H501.805H502.139H502.473H502.806H503.139H503.472H503.804H504.136H504.467H504.798H505.129H505.459H505.789H506.118H506.448H506.776H507.105H507.433H507.76H508.088H508.415H508.741H509.067H509.393H509.719H510.044H510.368H510.693H511.017H511.341H511.664H511.987H512.31H512.632H512.954H513.276H513.597H513.918H514.239H514.56H514.88H515.199H515.519H515.838H516.157H516.475H516.794H517.112H517.429H517.747H518.064H518.38H518.697H519.013H519.329H519.644H519.96H520.275H520.59H520.904H521.218H521.532H521.846H522.159H522.472H522.785H523.098H523.41H523.722H524.034H524.346H524.657H524.968H525.279H525.59H525.9H526.21H526.52H526.83H527.139H527.448H527.757H528.066H528.375H528.683H528.991H529.299H529.607H529.914H530.221H530.529H530.835H531.142H531.449H531.755H532.061H532.367H532.672H532.978H533.283H533.588H533.893H534.198H534.503H534.807H535.112H535.416H535.72H536.023H536.327H536.63H536.934H537.237H537.54H537.843H538.145H538.448H538.75H539.052H539.355H539.657H539.958H540.26H540.562H540.863H541.164H541.466H541.767H542.068H542.369H542.669H542.97H543.27H543.571H543.871H544.171H544.472H544.772H545.071H545.371H545.671H545.971H546.27H546.57H546.869H547.168H547.468H547.767H548.066H548.365H548.664H548.963H549.261H549.56H549.859H550.158H550.456H550.755H551.053H551.352H551.65H551.948H552.247H552.545H552.843H553.141H553.439H553.737H554.036H554.334H554.632H554.93H555.228H555.526H555.824H556.122H556.42H556.718H557.016H557.314H557.611H557.909H558.207H558.505H558.803H559.101H559.399H559.697H559.995H560.293H560.591H560.89H561.188H561.486H561.784H562.082H562.381H562.679H562.977H563.276H563.574H563.872H564.171H564.47H564.768H565.067H565.366H565.664H565.963H566.262H566.561H566.86H567.16H567.459H567.758H568.057H568.357H568.656H568.956H569.256H569.556H569.856H570.156H570.456H570.756H571.056H571.357H571.657H571.958H572.258H572.559H572.86H573.161H573.463H573.764H574.065H574.367H574.669H574.971H575.272H575.575H575.877H576.179H576.482H576.784H577.087H577.39H577.693H577.997H578.3H578.604H578.908H579.211H579.516H579.82H580.124H580.429H580.734H581.039H581.344H581.649H581.955H582.26H582.566H582.872H583.179H583.485H583.792H584.099H584.406H584.713H585.02H585.328H585.636H585.944H586.252H586.561H586.87H587.179H587.488H587.797H588.107H588.417H588.727H589.037H589.348H589.659H589.97H590.281H590.593H590.905H591.217H591.529H591.842H592.155H592.468H592.781H593.095H593.409H593.723H594.038H594.352H594.667H594.983H595.298H595.614H595.93H596.247H596.563H596.881H597.198H597.515H597.833H598.152H598.47H598.789H599.108H599.428H599.747H600.068H600.388H600.709H601.03H601.351H601.673H601.995H602.317H602.64H602.963H603.286H603.61H603.934H604.259H604.583H604.909H605.234H605.56H605.886H606.213H606.539H606.867H607.194H607.522H607.851H608.179H608.509H608.838H609.168H609.498H609.829H610.16H610.491H610.823H611.155H611.488H611.821H612.154H612.488H612.822H613.157H613.492H613.827H614.163H614.5H614.836H615.173H615.511H615.849H616.187H616.526H616.865H617.205H617.545H617.886H618.227H618.568H618.91H619.252H619.595H619.938H620.282H620.626H620.971H621.316H621.662H622.008H622.354H622.701H623.048H623.396H623.745H624.094H624.443H624.73C624.256 47.8347 625.704 62.981 628.968 74.1983C631.01 81.2186 634.125 87.9849 639.099 92.9947C644.578 98.5126 652.012 101.487 660.215 100.287C667.557 99.2124 673.624 95.0661 678.258 90.6265C683.039 86.0461 687.424 80.0821 691.405 73.2603C698.072 61.8355 704.282 46.8371 709.521 28.8816C717.066 28.8812 722.252 28.8812 730.605 28.8813C730.839 50.5902 730.778 77.3378 729.577 103.918C728.168 135.083 725.227 164.921 719.771 186.025C709.206 196.603 703.217 210.393 698.323 221.663C697.851 222.75 697.389 223.814 696.934 224.849C690.755 238.912 685.074 250.294 674.595 258.678C673.064 259.903 671.798 261.426 670.872 263.154C658.405 286.428 655.238 311.557 655.217 335.564C655.204 350.661 656.517 366.691 657.745 381.67C658.404 389.709 659.038 397.446 659.429 404.573C659.452 404.986 659.492 405.397 659.55 405.805C662.862 429.275 666.831 452.114 670.753 474.687C678.009 516.445 685.107 557.29 687.596 599.521C686.871 614.143 694.262 624.158 702.649 630.742C708.577 635.395 716.299 639.216 722.033 642.054C723.516 642.787 724.866 643.456 726.017 644.055C729.335 645.783 731.649 647.177 733.26 648.459C734.34 649.319 734.769 649.867 734.914 650.084C734.921 650.895 734.494 653.594 730.589 659.29C709.429 678.261 705.754 703.288 708.491 726.199C711.093 747.992 719.725 770.112 726.336 787.054C726.656 787.875 726.972 788.684 727.282 789.48C727.364 789.692 727.452 789.902 727.544 790.11C734.751 806.319 743.855 821.901 752.974 836.867C755.157 840.449 757.331 843.982 759.487 847.484C766.488 858.858 773.289 869.907 779.497 881.224C795.537 910.463 805.979 938.713 802.394 969.884C801.261 975.557 801.358 981.152 803.019 986.496C804.751 992.067 807.874 996.373 811.247 999.679C816.356 1004.69 823.397 1008.43 828.117 1010.95C828.915 1011.37 829.646 1011.76 830.29 1012.11C836.156 1015.34 838.359 1017.2 839.272 1018.71L839.292 1018.74C839.553 1019.16 840.878 1021.28 838.28 1028.39C837.673 1030.05 834.989 1033.47 826.237 1037.06C818.012 1040.43 807.175 1042.8 795.534 1044.37C775.2 1047.12 755.113 1047.1 747.163 1047.1C746.041 1047.09 745.16 1047.09 744.555 1047.1C713.35 1047.48 682.156 1047.9 650.972 1048.31C517.428 1050.1 384.057 1051.88 250.695 1050.61ZM734.878 649.811C734.886 649.808 734.906 649.873 734.913 650.014C734.872 649.885 734.869 649.814 734.878 649.811Z" stroke="white" stroke-width="29" stroke-linecap="round" stroke-linejoin="round"/>
<path d="M250.557 1065.11C195.529 1075.25 194.468 995.263 243.882 992.71C229.07 958.391 240.408 916.286 262.3 884.524C293.695 831.46 340.912 778.715 331.157 712.284C327.779 677.723 284.956 615.758 351.344 624.632C369.293 590.167 358.855 539.427 372.317 499.84C384.072 424.797 410.238 344.723 382.406 270.324C364.857 230.72 320.267 204.653 325.053 156.238C320.013 109.027 321.681 61.4548 327.185 14.3814C348.612 16.1786 372.457 9.86998 391.995 19.5819C391.848 65.2801 447.985 131.532 442.78 16.3211C454.199 11.7992 460.373 15.6718 474.674 14.3814C538.253 14.3814 576.374 14.3814 639.953 14.3814C632.679 117.251 676.164 102.332 698.441 14.3822C718.171 14.3809 721.353 14.3812 744.903 14.3815C745.708 61.6101 745.933 147.846 732.668 193.835C711.062 212.199 710.721 248.344 683.654 270C661.903 310.605 671.488 359.672 673.907 403.779C683.12 469.055 698.33 533.517 702.122 599.543C699.409 635.441 773.306 624.876 741.443 669.06C706.62 698.717 727.003 748.802 740.794 784.219C768.01 845.434 825.379 900.421 816.72 972.216C809.853 1003.58 866.667 992.976 851.899 1033.37C840.88 1063.5 753.5 1061.49 744.731 1061.6C580.024 1063.6 415.266 1066.68 250.557 1065.11Z" fill="black" stroke="white" stroke-width="28" stroke-linecap="round" stroke-linejoin="round"/>
<path d="M323.692 713.013C323.704 713.133 323.719 713.254 323.736 713.373C328.297 744.43 319.63 772.579 305.494 799.978C298.417 813.696 290.044 827.084 281.376 840.496C279.52 843.369 277.646 846.248 275.769 849.133C268.993 859.545 262.175 870.021 255.976 880.483C235.177 910.765 222.843 951.158 233.693 986.681C210.553 992.592 199.572 1014.52 200.563 1034.05C201.13 1045.21 205.544 1056.41 214.443 1064.11C223.369 1071.83 235.912 1075.26 251.185 1072.62C384.592 1073.88 518.043 1072.09 651.372 1070.31C682.529 1069.89 713.68 1069.48 744.822 1069.1C745.294 1069.09 746.037 1069.1 747.018 1069.1C754.597 1069.11 776.434 1069.15 798.473 1066.18C810.901 1064.5 823.851 1061.82 834.584 1057.41C845.045 1053.12 855.078 1046.51 858.943 1035.94C863.163 1024.4 862.74 1014.97 858.078 1007.29C853.782 1000.22 846.573 995.959 840.884 992.834C839.804 992.24 838.773 991.683 837.792 991.153C832.945 988.533 829.288 986.556 826.646 983.966C825.258 982.606 824.448 981.318 824.027 979.965C823.609 978.62 823.416 976.698 824.046 973.819C824.097 973.586 824.137 973.351 824.166 973.114C828.775 934.893 815.716 901.506 798.785 870.643C792.287 858.796 785.09 847.106 778.03 835.637C775.921 832.211 773.824 828.805 771.761 825.42C762.749 810.63 754.303 796.112 747.718 781.331L747.15 779.872C740.307 762.312 732.597 742.524 730.335 723.59C728.04 704.368 731.497 687.382 746.306 674.77C746.764 674.38 747.174 673.935 747.526 673.447C755.987 661.714 759.216 651.182 755.285 641.727C751.706 633.118 743.029 628.109 736.178 624.542C734.167 623.495 732.225 622.529 730.36 621.601C724.953 618.911 720.187 616.54 716.233 613.437C711.499 609.721 709.166 605.86 709.6 600.108C709.625 599.777 709.628 599.445 709.609 599.113C707.1 555.428 699.574 512.019 692.135 469.113C688.291 446.946 684.471 424.913 681.378 403.046C680.917 394.737 680.236 386.52 679.558 378.338C678.377 364.078 677.204 349.925 677.217 335.583C677.236 313.834 680.078 293.273 689.584 274.838C703.868 262.873 711.083 247.337 717.075 233.7C717.399 232.964 717.718 232.235 718.034 231.514C724 217.903 728.792 206.972 737.525 199.549C738.648 198.595 739.465 197.33 739.874 195.913C746.77 172.007 750.05 138.191 751.554 104.912C753.066 71.4658 752.805 37.916 752.402 14.2535C752.332 10.1619 748.995 6.88149 744.903 6.88145L735.008 6.88135C719.91 6.88118 715.012 6.88113 698.44 6.8822C695.007 6.88243 692.013 9.21311 691.17 12.5407C685.715 34.0804 679.042 50.7956 672.404 62.1719C669.08 67.8677 665.888 72.0106 663.039 74.7398C660.114 77.542 658.067 78.3665 657.03 78.5183C656.438 78.6049 655.798 78.5886 654.711 77.4937C653.363 76.1359 651.616 73.2922 650.092 68.0527C647.057 57.619 645.639 40.3006 647.435 14.9104C647.581 12.8345 646.859 10.791 645.441 9.26852C644.022 7.74601 642.034 6.88137 639.953 6.88137H639.581H639.209H638.838H638.468H638.098H637.729H637.36H636.992H636.624H636.257H635.89H635.524H635.159H634.794H634.43H634.066H633.703H633.34H632.978H632.616H632.255H631.895H631.535H631.175H630.816H630.458H630.1H629.742H629.386H629.029H628.673H628.318H627.963H627.609H627.255H626.902H626.549H626.197H625.845H625.494H625.143H624.793H624.443H624.094H623.745H623.396H623.048H622.701H622.354H622.008H621.662H621.316H620.971H620.626H620.282H619.938H619.595H619.252H618.91H618.568H618.227H617.886H617.545H617.205H616.865H616.526H616.187H615.849H615.511H615.173H614.836H614.5H614.163H613.827H613.492H613.157H612.822H612.488H612.154H611.821H611.488H611.155H610.823H610.491H610.16H609.829H609.498H609.168H608.838H608.509H608.179H607.851H607.522H607.194H606.867H606.539H606.213H605.886H605.56H605.234H604.909H604.583H604.259H603.934H603.61H603.286H602.963H602.64H602.317H601.995H601.673H601.351H601.03H600.709H600.388H600.068H599.747H599.428H599.108H598.789H598.47H598.152H597.833H597.515H597.198H596.881H596.563H596.247H595.93H595.614H595.298H594.983H594.667H594.352H594.038H593.723H593.409H593.095H592.781H592.468H592.155H591.842H591.529H591.217H590.905H590.593H590.281H589.97H589.659H589.348H589.037H588.727H588.417H588.107H587.797H587.488H587.179H586.87H586.561H586.252H585.944H585.636H585.328H585.02H584.713H584.406H584.099H583.792H583.485H583.179H582.872H582.566H582.26H581.955H581.649H581.344H581.039H580.734H580.429H580.124H579.82H579.516H579.211H578.908H578.604H578.3H577.997H577.693H577.39H577.087H576.784H576.482H576.179H575.877H575.575H575.272H574.971H574.669H574.367H574.065H573.764H573.463H573.161H572.86H572.559H572.258H571.958H571.657H571.357H571.056H570.756H570.456H570.156H569.856H569.556H569.256H568.956H568.656H568.357H568.057H567.758H567.459H567.16H566.86H566.561H566.262H565.963H565.664H565.366H565.067H564.768H564.47H564.171H563.872H563.574H563.276H562.977H562.679H562.381H562.082H561.784H561.486H561.188H560.89H560.591H560.293H559.995H559.697H559.399H559.101H558.803H558.505H558.207H557.909H557.611H557.314H557.016H556.718H556.42H556.122H555.824H555.526H555.228H554.93H554.632H554.334H554.036H553.737H553.439H553.141H552.843H552.545H552.247H551.948H551.65H551.352H551.053H550.755H550.456H550.158H549.859H549.56H549.261H548.963H548.664H548.365H548.066H547.767H547.468H547.168H546.869H546.57H546.27H545.971H545.671H545.371H545.071H544.772H544.472H544.171H543.871H543.571H543.27H542.97H542.669H542.369H542.068H541.767H541.466H541.164H540.863H540.562H540.26H539.958H539.657H539.355H539.052H538.75H538.448H538.145H537.843H537.54H537.237H536.934H536.63H536.327H536.023H535.72H535.416H535.112H534.807H534.503H534.198H533.893H533.588H533.283H532.978H532.672H532.367H532.061H531.755H531.449H531.142H530.835H530.529H530.221H529.914H529.607H529.299H528.991H528.683H528.375H528.066H527.757H527.448H527.139H526.83H526.52H526.21H525.9H525.59H525.279H524.968H524.657H524.346H524.034H523.722H523.41H523.098H522.785H522.472H522.159H521.846H521.532H521.218H520.904H520.59H520.275H519.96H519.644H519.329H519.013H518.697H518.38H518.064H517.747H517.429H517.112H516.794H516.475H516.157H515.838H515.519H515.199H514.88H514.56H514.239H513.918H513.597H513.276H512.954H512.632H512.31H511.987H511.664H511.341H511.017H510.693H510.368H510.044H509.719H509.393H509.067H508.741H508.415H508.088H507.76H507.433H507.105H506.776H506.448H506.118H505.789H505.459H505.129H504.798H504.467H504.136H503.804H503.472H503.139H502.806H502.473H502.139H501.805H501.47H501.135H500.8H500.464H500.127H499.791H499.454H499.116H498.778H498.44H498.101H497.762H497.422H497.082H496.741H496.4H496.059H495.717H495.375H495.032H494.689H494.345H494.001H493.656H493.311H492.966H492.62H492.273H491.926H491.579H491.231H490.882H490.534H490.184H489.834H489.484H489.133H488.782H488.43H488.078H487.725H487.372H487.018H486.664H486.309H485.954H485.598H485.241H484.885H484.527H484.169H483.811H483.452H483.092H482.733H482.372H482.011H481.649H481.287H480.924H480.561H480.197H479.833H479.468H479.103H478.737H478.37H478.003H477.636H477.267H476.898H476.529H476.159H475.789H475.418H475.046H474.674C474.449 6.88137 474.224 6.8915 474 6.91172C468.991 7.36368 465.305 7.11703 461.449 6.85906C460.334 6.78448 459.206 6.70895 458.027 6.64909C452.667 6.37697 447.088 6.54856 440.018 9.34786C437.043 10.5261 435.143 13.4626 435.287 16.6596C436.582 45.3185 433.919 61.1172 430.28 68.5714C428.54 72.1354 427.093 72.7588 426.739 72.8685C426.404 72.9722 425.332 73.1504 423.091 71.8305C418.315 69.0166 412.288 61.6529 407.371 51.3282C402.564 41.2341 399.462 29.6404 399.495 19.606C399.504 16.7503 397.89 14.1372 395.333 12.866C383.918 7.1915 371.591 6.37192 360.205 6.51423C356.063 6.566 352.153 6.73091 348.386 6.88977C341.209 7.19242 334.554 7.4731 327.812 6.90761C323.779 6.56938 320.205 9.49113 319.736 13.5104C314.215 60.7291 312.499 108.625 317.516 156.283C315.142 182.864 326.308 203.15 339.289 220.997C342.564 225.499 346 229.906 349.386 234.219C349.79 234.734 350.194 235.248 350.596 235.76C353.589 239.568 356.525 243.306 359.367 247.097C365.766 255.634 371.416 264.1 375.459 273.162C388.709 308.719 389.214 345.914 384.758 383.968C382.525 403.031 379.067 422.176 375.4 441.375C374.709 444.989 374.011 448.609 373.312 452.23C370.356 467.552 367.393 482.908 365.006 498.049C358.707 516.953 357.497 538.096 356.373 557.755C356.258 559.756 356.145 561.741 356.027 563.707C354.824 583.742 353.172 601.783 346.851 616.594C332.496 615.381 321.511 617.538 314.49 624.336C306.445 632.126 306.185 643.456 307.673 653.292C309.12 662.855 312.636 673.563 315.869 683.408C316.055 683.973 316.24 684.536 316.423 685.096C319.944 695.836 322.944 705.357 323.692 713.013Z" stroke="black" stroke-width="15" stroke-linecap="round" stroke-linejoin="round"/>
</g>
<defs>
<clipPath id="clip0_103_71">
<rect width="1080" height="1080" fill="white"/>
</clipPath>
</defs>
</svg>
