<?xml version="1.0" standalone="no"?>
<!DOCTYPE svg PUBLIC "-//W3C//DTD SVG 20010904//EN"
 "http://www.w3.org/TR/2001/REC-SVG-20010904/DTD/svg10.dtd">
<svg version="1.0" xmlns="http://www.w3.org/2000/svg"
 width="700.000000pt" height="700.000000pt" viewBox="0 0 700.000000 700.000000"
 preserveAspectRatio="xMidYMid meet">
<metadata>
Created by potrace 1.14, written by Peter Selinger 2001-2017
</metadata>
<g transform="translate(0.000000,700.000000) scale(0.100000,-0.100000)"
fill="#000000" stroke="none">
<path d="M1504 6796 l-1 -206 206 -2 205 -3 0 -1371 0 -1371 350 -1 351 0 340
339 340 339 0 -390 0 -390 -828 -828 -827 -827 0 -222 0 -223 1858 3 1857 2 0
1685 c-1 1521 -5 2016 -19 2090 -2 14 -7 44 -10 66 -29 230 -192 589 -365 804
-208 260 -493 473 -776 579 -33 13 -69 27 -80 32 -37 16 -209 58 -280 69 -136
20 -191 22 -1251 27 l-1070 5 0 -206z"/>
<path d="M1230 820 l0 -410 -205 0 -205 0 0 -205 0 -205 2680 0 2680 0 0 205
0 205 -205 0 -205 0 0 410 0 410 -2270 0 -2270 0 0 -410z"/>
</g>
</svg>
