<svg width="42" height="42" viewBox="0 0 48 48" fill="#fff" xmlns="http://www.w3.org/2000/svg">
<path d="M7.69141 8.58203L14.8516 5.72266L15.1328 5.94531C15.0938 6.46094 15.0547 7.37109 15.0156 8.67578C15 9.23047 14.9805 9.90234 14.957 10.6914C14.9336 11.4727 14.9062 12.3945 14.875 13.457C14.8516 14.5195 14.8242 15.7344 14.793 17.1016C14.7695 18.4688 14.7461 20.0117 14.7227 21.7305H17.6055V22.1641H7.57422V21.7305H10.3398L10.4805 7.91406L7.84375 8.96875L7.69141 8.58203Z" fill="white"/>
<path d="M37.1172 32.4258L36.9531 39.1641L23.1953 39.2109C23.1953 38.2812 23.2773 37.4258 23.4414 36.6445C23.6055 35.8555 23.9219 35.1172 24.3906 34.4297C24.8594 33.7422 25.5156 33.0938 26.3594 32.4844C27.2109 31.875 28.3164 31.2852 29.6758 30.7148C30.2383 30.4805 30.7188 30.1992 31.1172 29.8711C31.5234 29.5352 31.8516 29.1719 32.1016 28.7812C32.3516 28.3828 32.5352 27.9727 32.6523 27.5508C32.7695 27.1211 32.8281 26.6992 32.8281 26.2852C32.8281 25.8398 32.7656 25.4141 32.6406 25.0078C32.5156 24.6016 32.3398 24.2461 32.1133 23.9414C31.8945 23.6367 31.625 23.3984 31.3047 23.2266C30.9922 23.0469 30.6445 22.9609 30.2617 22.9688C29.7539 22.9844 29.3281 23.0859 28.9844 23.2734C28.6484 23.4531 28.375 23.6914 28.1641 23.9883C27.9531 24.2773 27.8008 24.6055 27.707 24.9727C27.6211 25.3398 27.5742 25.7109 27.5664 26.0859C27.5664 26.5156 27.5078 26.9141 27.3906 27.2812C27.2734 27.6406 27.1094 27.9531 26.8984 28.2188C26.6875 28.4766 26.4375 28.6797 26.1484 28.8281C25.8672 28.9766 25.5625 29.0469 25.2344 29.0391C24.9609 29.0391 24.6992 28.9961 24.4492 28.9102C24.207 28.8242 23.9922 28.6992 23.8047 28.5352C23.6172 28.3633 23.4688 28.1523 23.3594 27.9023C23.25 27.6445 23.1953 27.3516 23.1953 27.0234C23.1953 26.7109 23.2461 26.3906 23.3477 26.0625C23.4961 25.5469 23.7773 25.0781 24.1914 24.6562C24.6055 24.2266 25.1172 23.8594 25.7266 23.5547C26.3438 23.2422 27.0352 23 27.8008 22.8281C28.5742 22.6484 29.3945 22.5508 30.2617 22.5352H30.3789C30.7539 22.5352 31.1562 22.5547 31.5859 22.5938C32.0156 22.625 32.4492 22.6953 32.8867 22.8047C33.332 22.9062 33.7656 23.0508 34.1875 23.2383C34.6172 23.418 35.0117 23.6523 35.3711 23.9414C35.7383 24.2227 36.0586 24.5664 36.332 24.9727C36.6133 25.3711 36.8281 25.8398 36.9766 26.3789C37.0391 26.6211 37.0859 26.8633 37.1172 27.1055C37.1484 27.3398 37.1641 27.5781 37.1641 27.8203C37.1641 28.5 37.0273 29.1523 36.7539 29.7773C36.4883 30.4023 36.0742 30.9688 35.5117 31.4766C34.9492 31.9766 34.2344 32.4023 33.3672 32.7539C32.5078 33.0977 31.4805 33.332 30.2852 33.457C29.3945 33.4961 28.5625 33.5938 27.7891 33.75C27.4609 33.8203 27.1289 33.9062 26.793 34.0078C26.4648 34.1016 26.1523 34.2227 25.8555 34.3711C25.5586 34.5117 25.293 34.6797 25.0586 34.875C24.8242 35.0625 24.6445 35.2773 24.5195 35.5195L36.6133 35.0625L36.6836 32.4258H37.1172Z" fill="white"/>
<path d="M13.3297 31.5771L29.995 12.3305" stroke="white" stroke-width="2" stroke-linecap="square"/>
</svg>
