<?xml version="1.0" standalone="no"?>
<!DOCTYPE svg PUBLIC "-//W3C//DTD SVG 20010904//EN"
 "http://www.w3.org/TR/2001/REC-SVG-20010904/DTD/svg10.dtd">
<svg version="1.0" xmlns="http://www.w3.org/2000/svg"
 width="512.000000pt" height="512.000000pt" viewBox="0 0 512.000000 512.000000"
 preserveAspectRatio="xMidYMid meet">

<g transform="translate(0.000000,512.000000) scale(0.100000,-0.100000)"
fill="#000000" stroke="none">
<path d="M1100 4970 l0 -150 150 0 150 0 0 -1005 0 -1005 257 0 258 0 247 247
248 248 0 -285 0 -285 -605 -605 -605 -605 0 -162 0 -163 1360 0 1360 0 0
1323 c0 1428 -1 1436 -54 1618 -130 445 -480 795 -925 925 -172 50 -235 54
-1068 54 l-773 0 0 -150z"/>
<path d="M900 600 l0 -300 -150 0 -150 0 0 -150 0 -150 1960 0 1960 0 0 150 0
150 -150 0 -150 0 0 300 0 300 -1660 0 -1660 0 0 -300z"/>
</g>
</svg>
