<?xml version="1.0" standalone="no"?>
<!DOCTYPE svg PUBLIC "-//W3C//DTD SVG 20010904//EN"
 "http://www.w3.org/TR/2001/REC-SVG-20010904/DTD/svg10.dtd">
<svg version="1.0" xmlns="http://www.w3.org/2000/svg"
 width="512.000000pt" height="512.000000pt" viewBox="0 0 512.000000 512.000000"
 preserveAspectRatio="xMidYMid meet">

<g transform="translate(0.000000,512.000000) scale(0.100000,-0.100000)"
fill="#000000" stroke="none">
<path d="M2480 5107 c-49 -16 -133 -102 -148 -153 -7 -23 -12 -67 -12 -98 l0
-56 -56 0 c-87 0 -133 -18 -189 -75 -102 -101 -102 -229 0 -330 56 -57 102
-75 189 -75 l56 0 0 -119 0 -119 -153 -4 c-151 -3 -155 -4 -203 -33 -30 -19
-60 -49 -79 -79 -26 -44 -30 -58 -30 -125 0 -74 2 -81 88 -271 48 -107 87
-198 87 -202 0 -5 -14 -8 -30 -8 -41 0 -80 -39 -80 -80 0 -19 9 -40 25 -55
l24 -25 591 0 591 0 24 25 c50 49 15 135 -55 135 -16 0 -30 3 -30 8 0 4 39 95
87 202 86 190 88 197 88 271 0 67 -4 81 -30 125 -19 30 -49 60 -79 79 -48 29
-52 30 -203 33 l-153 4 0 119 0 119 56 0 c87 0 133 18 189 75 98 97 101 222 8
325 -51 57 -108 80 -195 80 l-58 0 0 56 c0 81 -18 129 -67 184 -65 72 -158 97
-253 67z"/>
<path d="M1005 3908 c-90 -17 -204 -80 -279 -154 -242 -243 -213 -636 64 -847
l35 -27 -69 0 c-100 0 -143 -16 -201 -75 -71 -70 -91 -145 -63 -239 16 -55 99
-138 154 -154 30 -9 164 -12 474 -12 310 0 444 3 474 12 55 16 138 99 154 154
26 89 9 163 -55 234 -53 59 -108 80 -207 80 l-71 0 35 27 c95 73 166 174 206
293 26 76 26 244 0 320 -53 156 -153 274 -289 339 -120 58 -234 73 -362 49z"/>
<path d="M3885 3908 c-90 -17 -204 -80 -279 -154 -242 -243 -213 -636 64 -847
l35 -27 -69 0 c-100 0 -143 -16 -201 -75 -52 -51 -75 -102 -75 -165 0 -92 80
-202 166 -228 30 -9 164 -12 474 -12 310 0 444 3 474 12 55 16 138 99 154 154
26 89 9 163 -55 234 -53 59 -108 80 -207 80 l-71 0 35 27 c59 45 128 125 159
183 52 100 66 156 66 270 0 162 -49 281 -162 395 -130 132 -320 189 -508 153z"/>
<path d="M2080 3027 c-49 -16 -133 -102 -148 -153 -28 -94 -8 -169 63 -239 31
-32 65 -55 91 -63 58 -17 890 -17 948 0 55 16 138 99 154 154 26 89 9 163 -55
234 -72 81 -69 80 -577 79 -291 -1 -453 -5 -476 -12z"/>
<path d="M2044 2395 c-2 -5 -13 -66 -24 -135 -56 -336 -141 -624 -259 -884
-24 -53 -29 -72 -20 -82 16 -20 1621 -21 1637 -1 8 10 -3 46 -44 141 -105 244
-177 497 -232 814 l-27 153 -514 2 c-335 1 -515 -1 -517 -8z"/>
<path d="M695 2231 c-3 -6 -14 -56 -25 -113 -37 -203 -126 -544 -161 -622 -9
-20 -9 -29 1 -41 11 -13 80 -15 555 -15 422 0 545 3 552 13 6 6 24 47 41 90
l31 78 -35 127 c-19 70 -51 205 -70 301 -19 95 -37 178 -40 182 -7 12 -841 12
-849 0z"/>
<path d="M3576 2231 c-3 -4 -21 -87 -40 -182 -19 -96 -51 -232 -70 -302 l-36
-129 32 -76 c17 -42 35 -83 41 -89 14 -19 1090 -19 1105 0 8 9 2 42 -24 122
-49 156 -88 310 -118 466 -15 73 -30 148 -34 164 l-8 30 -421 3 c-236 1 -424
-2 -427 -7z"/>
<path d="M346 1257 c-17 -17 -24 -39 -29 -91 -7 -76 -45 -169 -92 -224 -15
-18 -64 -61 -109 -94 -45 -33 -89 -69 -98 -80 -26 -29 -23 -74 7 -103 l24 -25
565 0 565 0 36 38 c85 89 131 197 144 341 4 47 16 103 26 124 18 39 99 117
121 117 7 0 16 5 19 10 4 7 -190 10 -575 10 l-581 0 -23 -23z"/>
<path d="M3590 1275 c0 -2 16 -12 35 -21 47 -22 109 -93 123 -142 7 -22 12
-59 12 -83 1 -110 62 -263 140 -346 l39 -43 566 0 566 0 24 25 c30 29 33 74 8
103 -10 11 -54 47 -99 80 -45 33 -94 76 -109 94 -47 55 -85 148 -92 224 -5 52
-12 74 -29 91 l-23 23 -581 0 c-319 0 -580 -2 -580 -5z"/>
<path d="M1545 1095 c-19 -18 -25 -35 -25 -70 0 -82 -30 -197 -76 -292 -36
-75 -61 -110 -133 -185 -121 -128 -133 -156 -86 -203 l24 -25 1311 0 1311 0
24 25 c47 46 36 73 -75 192 -82 86 -109 124 -146 197 -46 93 -74 205 -74 292
0 34 -6 51 -25 69 l-24 25 -991 0 -991 0 -24 -25z"/>
<path d="M25 470 c-8 -14 35 -72 78 -104 60 -45 86 -47 526 -44 l414 3 0 75 0
75 -506 3 c-346 1 -508 -1 -512 -8z"/>
<path d="M4079 478 c0 -2 -1 -37 -2 -78 l-1 -75 414 -3 c291 -2 428 1 457 9
66 18 169 119 146 143 -6 5 -1012 9 -1014 4z"/>
<path d="M1225 150 c-16 -26 80 -117 144 -139 50 -16 2328 -16 2385 1 45 14
151 109 143 131 -5 16 -2662 23 -2672 7z"/>
</g>
</svg>
